<svg xmlns="http://www.w3.org/2000/svg" xmlns:xlink="http://www.w3.org/1999/xlink" width="500" zoomAndPan="magnify" viewBox="0 0 375 374.999991" height="500" preserveAspectRatio="xMidYMid meet" version="1.0"><defs><g/><clipPath id="fa037cde85"><path d="M 14.679688 12.8125 L 365 12.8125 L 365 362.1875 L 14.679688 362.1875 Z M 14.679688 12.8125 " clip-rule="nonzero"/></clipPath><clipPath id="e66d3b17ec"><path d="M 189.5 12.8125 C 92.949219 12.8125 14.679688 91.023438 14.679688 187.5 C 14.679688 283.976562 92.949219 362.1875 189.5 362.1875 C 286.046875 362.1875 364.316406 283.976562 364.316406 187.5 C 364.316406 91.023438 286.046875 12.8125 189.5 12.8125 Z M 189.5 12.8125 " clip-rule="nonzero"/></clipPath><clipPath id="8a2bac09ab"><path d="M 14.679688 12.8125 L 364.179688 12.8125 L 364.179688 362.3125 L 14.679688 362.3125 Z M 14.679688 12.8125 " clip-rule="nonzero"/></clipPath><clipPath id="6d97709dc1"><path d="M 189.496094 12.8125 C 92.949219 12.8125 14.679688 91.023438 14.679688 187.496094 C 14.679688 283.972656 92.949219 362.183594 189.496094 362.183594 C 286.042969 362.183594 364.308594 283.972656 364.308594 187.496094 C 364.308594 91.023438 286.042969 12.8125 189.496094 12.8125 Z M 189.496094 12.8125 " clip-rule="nonzero"/></clipPath><clipPath id="cef78b0187"><path d="M 75.1875 67.507812 L 301.574219 67.507812 L 301.574219 297 L 75.1875 297 Z M 75.1875 67.507812 " clip-rule="nonzero"/></clipPath><clipPath id="e6d2776ef5"><path d="M 188.382812 67.507812 C 125.867188 67.507812 75.1875 118.867188 75.1875 182.226562 C 75.1875 245.582031 125.867188 296.941406 188.382812 296.941406 C 250.894531 296.941406 301.574219 245.582031 301.574219 182.226562 C 301.574219 118.867188 250.894531 67.507812 188.382812 67.507812 Z M 188.382812 67.507812 " clip-rule="nonzero"/></clipPath><clipPath id="3431b9112f"><path d="M 144 81.140625 L 262 81.140625 L 262 199 L 144 199 Z M 144 81.140625 " clip-rule="nonzero"/></clipPath><clipPath id="b89c62cb3c"><path d="M 84.304688 161 L 179 161 L 179 255.890625 L 84.304688 255.890625 Z M 84.304688 161 " clip-rule="nonzero"/></clipPath></defs><g clip-path="url(#fa037cde85)"><g clip-path="url(#e66d3b17ec)"><path fill="#424642" d="M 14.679688 12.8125 L 364.054688 12.8125 L 364.054688 362.1875 L 14.679688 362.1875 Z M 14.679688 12.8125 " fill-opacity="1" fill-rule="nonzero"/></g></g><g clip-path="url(#8a2bac09ab)"><g clip-path="url(#6d97709dc1)"><path stroke-linecap="butt" transform="matrix(0.75, 0, 0, 0.75, 14.680955, 12.813672)" fill="none" stroke-linejoin="miter" d="M 233.086867 -0.00156314 C 104.357692 -0.00156314 -0.00168997 104.279694 -0.00168997 232.90991 C -0.00168997 361.545336 104.357692 465.826592 233.086867 465.826592 C 361.816042 465.826592 466.170216 361.545336 466.170216 232.90991 C 466.170216 104.279694 361.816042 -0.00156314 233.086867 -0.00156314 Z M 233.086867 -0.00156314 " stroke="#000000" stroke-width="16" stroke-opacity="1" stroke-miterlimit="4"/></g></g><g clip-path="url(#cef78b0187)"><g clip-path="url(#e6d2776ef5)"><path fill="#272829" d="M 75.1875 67.507812 L 301.574219 67.507812 L 301.574219 296.546875 L 75.1875 296.546875 Z M 75.1875 67.507812 " fill-opacity="1" fill-rule="nonzero"/></g></g><g clip-path="url(#3431b9112f)"><path fill="#ffffff" d="M 261.503906 128.128906 L 255.359375 111.117188 L 243 115.582031 C 239.753906 110.121094 235.707031 105.921875 230.894531 102.386719 L 236.675781 90.175781 L 220.316406 82.523438 L 214.367188 94.882812 C 208.570312 93.441406 202.441406 93.140625 196.167969 94.136719 L 191.472656 81.140625 L 174.460938 87.289062 L 179.15625 100.285156 C 174.285156 103.3125 169.570312 107.558594 166.039062 112.359375 L 153.855469 106.5625 L 146.21875 122.921875 L 158.488281 128.550781 C 157.050781 134.335938 156.644531 140.148438 157.636719 146.421875 L 144.484375 151.171875 L 150.632812 168.183594 L 163.789062 163.429688 C 167.027344 168.894531 171.164062 173.332031 175.96875 176.863281 L 170.222656 189.214844 L 186.613281 196.929688 L 192.191406 184.726562 C 197.976562 186.164062 204.308594 186.425781 209.992188 185.640625 L 214.515625 198.160156 L 231.527344 192.011719 L 227.007812 179.5 C 232.464844 176.253906 236.984375 172.089844 240.515625 167.285156 L 252.894531 173.015625 L 260.625 156.625 L 248.328125 150.726562 C 249.765625 144.941406 250.140625 138.867188 249.140625 132.59375 Z M 210.726562 158.910156 C 200.144531 162.734375 188.464844 157.253906 184.640625 146.667969 C 180.820312 136.085938 186.296875 124.40625 196.882812 120.585938 C 207.464844 116.761719 219.144531 122.242188 222.964844 132.824219 C 226.789062 143.40625 221.308594 155.085938 210.726562 158.910156 Z M 210.726562 158.910156 " fill-opacity="1" fill-rule="nonzero"/></g><path fill="#ffffff" d="M 293.835938 211.257812 L 294.6875 201.175781 L 287.390625 200.558594 C 287.03125 196.90625 285.933594 194.074219 284.320312 191.164062 L 290.089844 186.378906 L 283.578125 178.71875 L 277.507812 183.597656 C 274.90625 181.515625 272.546875 180.003906 268.285156 178.976562 L 268.917969 171.445312 L 258.121094 170.535156 L 257.484375 178.066406 C 255.269531 178.546875 251.472656 179.5625 248.566406 181.175781 L 244.015625 175.417969 L 236.464844 181.945312 L 241.453125 187.546875 C 239.375 190.144531 237.902344 192.753906 236.933594 196.300781 L 229.171875 195.644531 L 228.320312 205.722656 L 236.085938 206.378906 C 236.382812 210.753906 237.507812 213.21875 239.121094 216.128906 L 233.324219 221.101562 L 239.832031 228.859375 L 244.957031 223.9375 C 247.554688 226.015625 251.117188 227.671875 253.222656 228.519531 L 252.648438 235.332031 L 263.445312 236.242188 L 264.023438 229.433594 C 268.398438 229.132812 270.980469 228.015625 273.886719 226.40625 L 278.917969 232.199219 L 286.695312 225.699219 L 281.871094 219.742188 C 283.949219 217.144531 285.511719 214.902344 286.535156 210.640625 Z M 260.914062 215.230469 C 254.660156 214.703125 250.015625 209.203125 250.542969 202.949219 C 251.074219 196.691406 256.570312 192.050781 262.828125 192.578125 C 269.082031 193.105469 273.726562 198.605469 273.199219 204.863281 C 272.667969 211.117188 267.171875 215.757812 260.914062 215.230469 Z M 260.914062 215.230469 " fill-opacity="1" fill-rule="nonzero"/><g clip-path="url(#b89c62cb3c)"><path fill="#ffffff" d="M 178.398438 216.480469 L 178.398438 202.066406 L 168.292969 202.066406 C 167.347656 196.753906 165.464844 192.535156 162.839844 188.617188 L 170.414062 180.894531 L 160.3125 170.722656 L 152.039062 178.257812 C 148.117188 175.632812 143.492188 173.714844 138.179688 172.769531 L 138.179688 161.847656 L 123.761719 161.847656 L 123.761719 172.773438 C 119.210938 173.714844 115.292969 175.601562 111.378906 178.222656 L 104.183594 170.644531 L 94.269531 180.75 L 101.949219 188.621094 C 99.328125 192.535156 97.539062 196.753906 96.59375 202.066406 L 84.304688 202.066406 L 84.304688 216.480469 L 96.601562 216.480469 C 97.539062 221.035156 99.421875 225.359375 102.042969 229.269531 L 94.460938 236.671875 L 104.566406 246.6875 L 111.382812 239.0625 C 115.296875 241.683594 119.210938 243.519531 123.761719 244.460938 L 123.761719 255.9375 L 138.179688 255.9375 L 138.179688 244.464844 C 143.492188 243.519531 148.117188 241.636719 152.03125 239.015625 L 159.960938 246.59375 L 170.234375 236.492188 L 162.75 229.273438 C 165.371094 225.359375 167.347656 221.035156 168.289062 216.480469 Z M 132.6875 224.796875 C 123.796875 224.796875 116.589844 217.59375 116.589844 208.703125 C 116.589844 199.8125 123.796875 192.609375 132.6875 192.609375 C 141.574219 192.609375 148.78125 199.8125 148.78125 208.703125 C 148.78125 217.59375 141.574219 224.796875 132.6875 224.796875 Z M 132.6875 224.796875 " fill-opacity="1" fill-rule="nonzero"/></g><g fill="#f46b27" fill-opacity="1"><g transform="translate(26.14354, 154.320963)"><g><path d="M -0.703125 23.25 L -0.390625 12.875 C -0.347656 11.519531 -0.316406 10.359375 -0.296875 9.390625 C -0.285156 8.421875 -0.269531 7.597656 -0.25 6.921875 C -0.21875 5.878906 -0.148438 5.15625 -0.046875 4.75 C 0.0546875 4.351562 0.257812 4.160156 0.5625 4.171875 C 0.8125 4.179688 1.109375 4.269531 1.453125 4.4375 C 1.804688 4.601562 2.273438 4.769531 2.859375 4.9375 C 3.554688 5.144531 4.28125 5.296875 5.03125 5.390625 C 5.789062 5.492188 6.414062 5.554688 6.90625 5.578125 L 25.125 6.125 C 25.625 6.132812 26.238281 6.109375 26.96875 6.046875 C 27.707031 5.992188 28.453125 5.890625 29.203125 5.734375 C 29.816406 5.566406 30.3125 5.410156 30.6875 5.265625 C 31.0625 5.117188 31.359375 5.050781 31.578125 5.0625 C 31.859375 5.070312 32.03125 5.253906 32.09375 5.609375 C 32.15625 5.960938 32.171875 6.601562 32.140625 7.53125 C 32.128906 8.144531 32.101562 8.894531 32.0625 9.78125 C 32.019531 10.675781 31.984375 11.738281 31.953125 12.96875 L 31.671875 22.46875 C 31.617188 24.070312 31.1875 25.507812 30.375 26.78125 C 29.5625 28.050781 28.519531 29.050781 27.25 29.78125 C 25.976562 30.519531 24.609375 30.863281 23.140625 30.8125 C 22.515625 30.800781 21.90625 30.707031 21.3125 30.53125 C 20.71875 30.351562 20.164062 30.132812 19.65625 29.875 C 19.101562 29.613281 18.675781 29.40625 18.375 29.25 C 18.070312 29.101562 17.796875 29.023438 17.546875 29.015625 C 17.296875 29.015625 17.03125 29.101562 16.75 29.28125 C 16.46875 29.457031 16.085938 29.738281 15.609375 30.125 C 15.128906 30.507812 14.398438 30.984375 13.421875 31.546875 C 12.640625 31.972656 11.804688 32.3125 10.921875 32.5625 C 10.035156 32.8125 9.128906 32.925781 8.203125 32.90625 C 6.566406 32.851562 5.0625 32.382812 3.6875 31.5 C 2.320312 30.613281 1.234375 29.445312 0.421875 28 C -0.378906 26.5625 -0.753906 24.976562 -0.703125 23.25 Z M 8.859375 23.484375 C 10.304688 23.535156 11.5625 23.289062 12.625 22.75 C 13.695312 22.21875 14.253906 21.535156 14.296875 20.703125 L 14.390625 17.515625 C 14.410156 16.753906 14.398438 16.15625 14.359375 15.71875 C 14.316406 15.289062 14.132812 14.972656 13.8125 14.765625 C 13.5 14.554688 12.972656 14.421875 12.234375 14.359375 C 11.492188 14.304688 10.445312 14.257812 9.09375 14.21875 C 7.769531 14.1875 6.738281 14.171875 6 14.171875 C 5.257812 14.179688 4.722656 14.28125 4.390625 14.46875 C 4.066406 14.664062 3.863281 14.976562 3.78125 15.40625 C 3.707031 15.832031 3.660156 16.425781 3.640625 17.1875 L 3.546875 20.375 C 3.585938 21.207031 4.117188 21.921875 5.140625 22.515625 C 6.171875 23.117188 7.410156 23.441406 8.859375 23.484375 Z M 27.609375 18.921875 L 27.671875 16.859375 C 27.691406 16.179688 27.644531 15.695312 27.53125 15.40625 C 27.414062 15.113281 27.039062 14.925781 26.40625 14.84375 C 25.78125 14.757812 24.695312 14.691406 23.15625 14.640625 C 21.644531 14.597656 20.570312 14.597656 19.9375 14.640625 C 19.3125 14.679688 18.929688 14.847656 18.796875 15.140625 C 18.660156 15.429688 18.582031 15.914062 18.5625 16.59375 L 18.5 18.65625 C 18.476562 19.394531 18.890625 20.023438 19.734375 20.546875 C 20.585938 21.066406 21.691406 21.347656 23.046875 21.390625 C 24.367188 21.421875 25.453125 21.207031 26.296875 20.75 C 27.148438 20.300781 27.585938 19.691406 27.609375 18.921875 Z M 27.609375 18.921875 "/></g></g></g><g fill="#f46b27" fill-opacity="1"><g transform="translate(26.056146, 198.370916)"><g><path d="M 5.078125 8.859375 C 4.585938 8.941406 4.179688 9.046875 3.859375 9.171875 C 3.546875 9.304688 3.285156 9.398438 3.078125 9.453125 C 2.785156 9.523438 2.570312 9.457031 2.4375 9.25 C 2.300781 9.050781 2.128906 8.519531 1.921875 7.65625 L 1.4375 5.734375 C 1.113281 4.441406 0.878906 3.539062 0.734375 3.03125 C 0.585938 2.519531 0.609375 2.238281 0.796875 2.1875 C 0.941406 2.15625 1.265625 2.257812 1.765625 2.5 C 2.265625 2.738281 2.953125 2.960938 3.828125 3.171875 C 4.785156 3.410156 5.609375 3.601562 6.296875 3.75 C 6.984375 3.90625 7.769531 4.035156 8.65625 4.140625 C 9.539062 4.253906 10.710938 4.375 12.171875 4.5 C 13.640625 4.625 15.582031 4.796875 18 5.015625 L 27.84375 5.9375 C 28.394531 5.96875 29.039062 5.972656 29.78125 5.953125 C 30.519531 5.941406 31.222656 5.867188 31.890625 5.734375 C 32.398438 5.628906 32.816406 5.503906 33.140625 5.359375 C 33.472656 5.210938 33.742188 5.113281 33.953125 5.0625 C 34.222656 5 34.414062 5.070312 34.53125 5.28125 C 34.65625 5.488281 34.804688 5.945312 34.984375 6.65625 L 35.421875 8.375 C 35.648438 9.289062 35.800781 10.0625 35.875 10.6875 C 35.957031 11.320312 35.859375 11.910156 35.578125 12.453125 C 35.304688 13.003906 34.789062 13.613281 34.03125 14.28125 C 33.28125 14.945312 32.179688 15.769531 30.734375 16.75 C 29.296875 17.726562 27.453125 18.957031 25.203125 20.4375 L 13.875 27.890625 C 13.414062 28.191406 12.875 28.59375 12.25 29.09375 C 11.632812 29.601562 11.050781 30.164062 10.5 30.78125 C 9.957031 31.375 9.550781 31.859375 9.28125 32.234375 C 9.007812 32.617188 8.785156 32.832031 8.609375 32.875 C 8.460938 32.914062 8.320312 32.800781 8.1875 32.53125 C 8.050781 32.269531 7.898438 31.796875 7.734375 31.109375 C 7.628906 30.679688 7.507812 30.164062 7.375 29.5625 C 7.238281 28.957031 7.070312 28.253906 6.875 27.453125 L 6.171875 24.671875 C 5.929688 23.691406 5.78125 22.976562 5.71875 22.53125 C 5.65625 22.09375 5.6875 21.789062 5.8125 21.625 C 5.945312 21.46875 6.1875 21.359375 6.53125 21.296875 C 6.882812 21.242188 7.359375 21.125 7.953125 20.9375 C 8.578125 20.78125 9.210938 20.539062 9.859375 20.21875 C 10.515625 19.90625 11.082031 19.613281 11.5625 19.34375 L 12.375 18.78125 C 12.675781 18.625 12.863281 18.441406 12.9375 18.234375 C 13.007812 18.023438 12.976562 17.578125 12.84375 16.890625 C 12.707031 16.210938 12.441406 15.078125 12.046875 13.484375 C 11.660156 11.941406 11.363281 10.835938 11.15625 10.171875 C 10.957031 9.515625 10.785156 9.113281 10.640625 8.96875 C 10.492188 8.832031 10.265625 8.753906 9.953125 8.734375 C 9.535156 8.710938 8.90625 8.671875 8.0625 8.609375 C 7.21875 8.554688 6.222656 8.640625 5.078125 8.859375 Z M 16.078125 12.484375 C 16.328125 13.503906 16.546875 14.222656 16.734375 14.640625 C 16.929688 15.054688 17.289062 15.195312 17.8125 15.0625 C 18.164062 14.976562 18.644531 14.753906 19.25 14.390625 C 19.863281 14.023438 20.648438 13.535156 21.609375 12.921875 C 22.785156 12.171875 23.664062 11.597656 24.25 11.203125 C 24.832031 10.804688 25.097656 10.5 25.046875 10.28125 C 24.992188 10.082031 24.613281 9.929688 23.90625 9.828125 C 23.195312 9.734375 22.148438 9.644531 20.765625 9.5625 C 19.628906 9.46875 18.707031 9.40625 18 9.375 C 17.289062 9.34375 16.757812 9.367188 16.40625 9.453125 C 15.882812 9.585938 15.632812 9.878906 15.65625 10.328125 C 15.6875 10.785156 15.828125 11.503906 16.078125 12.484375 Z M 16.078125 12.484375 "/></g></g></g><g fill="#f46b27" fill-opacity="1"><g transform="translate(38.852604, 242.80342)"><g><path d="M 8.4375 16.5625 C 7.28125 14.519531 6.582031 12.390625 6.34375 10.171875 C 6.101562 7.953125 6.28125 5.785156 6.875 3.671875 C 7.46875 1.554688 8.429688 -0.378906 9.765625 -2.140625 C 11.109375 -3.910156 12.796875 -5.367188 14.828125 -6.515625 C 16.835938 -7.648438 18.9375 -8.359375 21.125 -8.640625 C 23.3125 -8.921875 25.453125 -8.800781 27.546875 -8.28125 C 29.648438 -7.769531 31.554688 -6.90625 33.265625 -5.6875 C 34.984375 -4.46875 36.375 -2.921875 37.4375 -1.046875 C 38.144531 0.210938 38.59375 1.335938 38.78125 2.328125 C 38.96875 3.328125 39.097656 4.238281 39.171875 5.0625 C 39.253906 5.882812 39.476562 6.617188 39.84375 7.265625 C 40.144531 7.796875 40.523438 8.160156 40.984375 8.359375 C 41.410156 8.546875 41.710938 8.675781 41.890625 8.75 C 42.078125 8.820312 42.070312 8.9375 41.875 9.09375 C 41.6875 9.257812 41.257812 9.535156 40.59375 9.921875 C 39.925781 10.316406 38.941406 10.921875 37.640625 11.734375 C 36.410156 12.492188 35.53125 13.050781 35 13.40625 C 34.476562 13.757812 34.175781 13.867188 34.09375 13.734375 C 34.007812 13.566406 34.085938 13.09375 34.328125 12.3125 C 34.578125 11.539062 34.804688 10.425781 35.015625 8.96875 C 35.179688 7.78125 35.191406 6.601562 35.046875 5.4375 C 34.910156 4.28125 34.613281 3.285156 34.15625 2.453125 C 33.425781 1.171875 32.289062 0.285156 30.75 -0.203125 C 29.21875 -0.703125 27.457031 -0.789062 25.46875 -0.46875 C 23.476562 -0.144531 21.453125 0.597656 19.390625 1.765625 C 17.273438 2.960938 15.601562 4.34375 14.375 5.90625 C 13.15625 7.46875 12.425781 9.082031 12.1875 10.75 C 11.945312 12.425781 12.257812 14.03125 13.125 15.5625 C 13.820312 16.78125 14.789062 17.734375 16.03125 18.421875 C 17.050781 19.003906 17.859375 19.414062 18.453125 19.65625 C 19.054688 19.90625 19.5 20.09375 19.78125 20.21875 C 20.0625 20.34375 20.238281 20.507812 20.3125 20.71875 C 20.382812 20.925781 20.382812 21.296875 20.3125 21.828125 C 20.21875 22.660156 19.921875 23.21875 19.421875 23.5 C 18.941406 23.769531 18.234375 23.796875 17.296875 23.578125 C 16.359375 23.367188 15.097656 22.832031 13.515625 21.96875 C 12.472656 21.382812 11.523438 20.625 10.671875 19.6875 C 9.828125 18.75 9.082031 17.707031 8.4375 16.5625 Z M 8.4375 16.5625 "/></g></g></g><g fill="#f46b27" fill-opacity="1"><g transform="translate(60.411303, 278.932463)"><g><path d="M 35.453125 -0.578125 L 32.578125 -0.390625 C 32.035156 -0.367188 31.582031 -0.320312 31.21875 -0.25 C 30.863281 -0.175781 30.554688 -0.00390625 30.296875 0.265625 C 29.878906 0.679688 29.5 1.46875 29.15625 2.625 C 28.820312 3.789062 28.320312 5.644531 27.65625 8.1875 L 25.59375 16.578125 C 25.445312 17.203125 25.316406 17.941406 25.203125 18.796875 C 25.097656 19.648438 25.023438 20.507812 24.984375 21.375 C 24.960938 22.3125 24.960938 23.039062 24.984375 23.5625 C 25.003906 24.082031 24.960938 24.394531 24.859375 24.5 C 24.722656 24.632812 24.347656 24.398438 23.734375 23.796875 C 23.390625 23.453125 22.9375 22.988281 22.375 22.40625 C 21.820312 21.832031 21.132812 21.128906 20.3125 20.296875 C 18.9375 18.929688 17.925781 17.90625 17.28125 17.21875 C 16.644531 16.539062 16.269531 16.023438 16.15625 15.671875 C 16.050781 15.328125 16.109375 14.988281 16.328125 14.65625 C 16.546875 14.332031 16.828125 13.867188 17.171875 13.265625 C 17.535156 12.628906 17.847656 11.941406 18.109375 11.203125 C 18.367188 10.460938 18.582031 9.796875 18.75 9.203125 L 19.828125 4.796875 C 20.210938 3.304688 20.46875 2.257812 20.59375 1.65625 C 20.726562 1.050781 20.75 0.691406 20.65625 0.578125 C 20.570312 0.472656 20.367188 0.429688 20.046875 0.453125 C 19.765625 0.472656 19.523438 0.515625 19.328125 0.578125 C 19.128906 0.648438 18.867188 0.835938 18.546875 1.140625 C 18.222656 1.441406 17.695312 1.953125 16.96875 2.671875 L 14.828125 4.828125 C 14.472656 5.179688 14.054688 5.648438 13.578125 6.234375 C 13.097656 6.816406 12.6875 7.4375 12.34375 8.09375 C 12.019531 8.726562 11.773438 9.242188 11.609375 9.640625 C 11.441406 10.046875 11.285156 10.320312 11.140625 10.46875 C 10.984375 10.625 10.800781 10.640625 10.59375 10.515625 C 10.394531 10.398438 10.078125 10.128906 9.640625 9.703125 C 9.328125 9.390625 8.941406 8.992188 8.484375 8.515625 C 8.023438 8.035156 7.472656 7.472656 6.828125 6.828125 C 6.171875 6.171875 5.601562 5.613281 5.125 5.15625 C 4.644531 4.695312 4.253906 4.316406 3.953125 4.015625 C 3.535156 3.597656 3.257812 3.28125 3.125 3.0625 C 3 2.851562 3.015625 2.671875 3.171875 2.515625 C 3.316406 2.367188 3.59375 2.210938 4 2.046875 C 4.40625 1.878906 4.921875 1.628906 5.546875 1.296875 C 6.179688 0.929688 6.789062 0.507812 7.375 0.03125 C 7.96875 -0.4375 8.441406 -0.847656 8.796875 -1.203125 L 21.6875 -14.09375 C 22.039062 -14.445312 22.445312 -14.910156 22.90625 -15.484375 C 23.363281 -16.066406 23.785156 -16.6875 24.171875 -17.34375 C 24.503906 -17.96875 24.753906 -18.476562 24.921875 -18.875 C 25.085938 -19.28125 25.25 -19.5625 25.40625 -19.71875 C 25.5625 -19.875 25.734375 -19.882812 25.921875 -19.75 C 26.109375 -19.625 26.410156 -19.351562 26.828125 -18.9375 C 27.128906 -18.632812 27.507812 -18.242188 27.96875 -17.765625 C 28.4375 -17.285156 29.007812 -16.707031 29.6875 -16.03125 C 30.351562 -15.363281 30.921875 -14.800781 31.390625 -14.34375 C 31.867188 -13.882812 32.265625 -13.5 32.578125 -13.1875 C 33.015625 -12.757812 33.296875 -12.453125 33.421875 -12.265625 C 33.546875 -12.085938 33.53125 -11.921875 33.375 -11.765625 C 33.21875 -11.609375 32.941406 -11.453125 32.546875 -11.296875 C 32.160156 -11.140625 31.660156 -10.890625 31.046875 -10.546875 C 30.390625 -10.203125 29.769531 -9.800781 29.1875 -9.34375 C 28.601562 -8.882812 28.132812 -8.476562 27.78125 -8.125 L 25.59375 -5.9375 C 25.070312 -5.414062 24.679688 -5.007812 24.421875 -4.71875 C 24.171875 -4.425781 24.101562 -4.226562 24.21875 -4.125 C 24.394531 -3.945312 25.609375 -3.929688 27.859375 -4.078125 L 32.25 -4.390625 C 32.925781 -4.453125 33.703125 -4.546875 34.578125 -4.671875 C 35.453125 -4.796875 36.207031 -4.972656 36.84375 -5.203125 C 37.46875 -5.367188 37.945312 -5.53125 38.28125 -5.6875 C 38.613281 -5.851562 38.925781 -5.910156 39.21875 -5.859375 C 39.519531 -5.804688 39.921875 -5.570312 40.421875 -5.15625 C 40.929688 -4.75 41.675781 -4.054688 42.65625 -3.078125 C 43.632812 -2.097656 44.363281 -1.394531 44.84375 -0.96875 C 45.320312 -0.539062 45.515625 -0.273438 45.421875 -0.171875 C 45.328125 -0.078125 44.929688 -0.0859375 44.234375 -0.203125 C 43.546875 -0.316406 42.515625 -0.425781 41.140625 -0.53125 C 40.085938 -0.613281 39.046875 -0.65625 38.015625 -0.65625 C 36.992188 -0.65625 36.140625 -0.628906 35.453125 -0.578125 Z M 35.453125 -0.578125 "/></g></g></g><g fill="#f46b27" fill-opacity="1"><g transform="translate(94.904005, 310.884768)"><g><path d="M 27.125 9.5 C 26.550781 10.375 26.046875 11.066406 25.609375 11.578125 C 25.171875 12.085938 24.6875 12.40625 24.15625 12.53125 C 23.625 12.65625 22.921875 12.5625 22.046875 12.25 C 21.179688 11.945312 20.046875 11.410156 18.640625 10.640625 C 17.234375 9.867188 15.425781 8.847656 13.21875 7.578125 C 11.78125 6.753906 10.535156 6.050781 9.484375 5.46875 C 8.429688 4.882812 7.546875 4.382812 6.828125 3.96875 C 5.597656 3.269531 4.78125 2.738281 4.375 2.375 C 3.976562 2.019531 3.863281 1.703125 4.03125 1.421875 C 4.15625 1.203125 4.367188 0.972656 4.671875 0.734375 C 4.972656 0.492188 5.316406 0.179688 5.703125 -0.203125 C 6.234375 -0.703125 6.722656 -1.257812 7.171875 -1.875 C 7.617188 -2.488281 7.960938 -3.007812 8.203125 -3.4375 L 17.28125 -19.25 C 17.53125 -19.6875 17.800781 -20.238281 18.09375 -20.90625 C 18.394531 -21.582031 18.632812 -22.300781 18.8125 -23.0625 C 18.945312 -23.59375 19.039062 -24.046875 19.09375 -24.421875 C 19.144531 -24.796875 19.222656 -25.070312 19.328125 -25.25 C 19.503906 -25.550781 19.832031 -25.625 20.3125 -25.46875 C 20.789062 -25.3125 21.609375 -24.90625 22.765625 -24.25 C 23.453125 -23.851562 24.300781 -23.359375 25.3125 -22.765625 C 26.320312 -22.179688 27.523438 -21.488281 28.921875 -20.6875 C 31.023438 -19.476562 32.742188 -18.472656 34.078125 -17.671875 C 35.410156 -16.867188 36.410156 -16.175781 37.078125 -15.59375 C 37.753906 -15.007812 38.164062 -14.457031 38.3125 -13.9375 C 38.46875 -13.425781 38.429688 -12.851562 38.203125 -12.21875 C 37.984375 -11.59375 37.628906 -10.800781 37.140625 -9.84375 C 36.554688 -8.613281 36.144531 -7.742188 35.90625 -7.234375 C 35.664062 -6.734375 35.488281 -6.515625 35.375 -6.578125 C 35.269531 -6.640625 35.195312 -6.910156 35.15625 -7.390625 C 35.125 -7.878906 34.992188 -8.539062 34.765625 -9.375 C 34.523438 -10.332031 34.046875 -11.335938 33.328125 -12.390625 C 32.609375 -13.453125 31.5 -14.410156 30 -15.265625 L 28.03125 -16.390625 C 27.382812 -16.765625 26.894531 -16.960938 26.5625 -16.984375 C 26.226562 -17.015625 25.863281 -16.753906 25.46875 -16.203125 C 25.082031 -15.648438 24.472656 -14.648438 23.640625 -13.203125 C 22.816406 -11.765625 22.289062 -10.65625 22.0625 -9.875 C 21.832031 -9.101562 22.007812 -8.550781 22.59375 -8.21875 C 23.125 -7.914062 24.140625 -7.722656 25.640625 -7.640625 C 26.359375 -7.617188 26.941406 -7.628906 27.390625 -7.671875 C 27.847656 -7.710938 28.144531 -7.695312 28.28125 -7.625 C 28.414062 -7.539062 28.429688 -7.394531 28.328125 -7.1875 C 28.234375 -6.988281 28.046875 -6.644531 27.765625 -6.15625 L 24.875 -1.125 C 24.570312 -0.59375 24.34375 -0.226562 24.1875 -0.03125 C 24.03125 0.164062 23.882812 0.226562 23.75 0.15625 C 23.613281 0.0703125 23.457031 -0.164062 23.28125 -0.5625 C 23.101562 -0.957031 22.816406 -1.445312 22.421875 -2.03125 C 21.992188 -2.675781 21.617188 -3.1875 21.296875 -3.5625 C 20.984375 -3.9375 20.679688 -4.207031 20.390625 -4.375 C 19.804688 -4.707031 19.238281 -4.582031 18.6875 -4 C 18.132812 -3.414062 17.4375 -2.382812 16.59375 -0.90625 C 15.78125 0.5 15.238281 1.515625 14.96875 2.140625 C 14.707031 2.765625 14.695312 3.226562 14.9375 3.53125 C 15.1875 3.84375 15.703125 4.21875 16.484375 4.65625 L 18.84375 6.015625 C 20.34375 6.878906 21.726562 7.363281 23 7.46875 C 24.269531 7.582031 25.378906 7.484375 26.328125 7.171875 C 27.472656 6.796875 28.273438 6.5 28.734375 6.28125 C 29.191406 6.0625 29.28125 6.191406 29 6.671875 C 28.863281 6.921875 28.640625 7.265625 28.328125 7.703125 C 28.015625 8.148438 27.613281 8.75 27.125 9.5 Z M 27.125 9.5 "/></g></g></g><g fill="#f46b27" fill-opacity="1"><g transform="translate(129.802474, 329.867233)"><g><path d="M 10.40625 0.015625 C 10.476562 0.847656 10.550781 1.472656 10.625 1.890625 C 10.695312 2.316406 10.691406 2.582031 10.609375 2.6875 C 10.535156 2.800781 10.25 2.789062 9.75 2.65625 C 9.457031 2.582031 9.082031 2.472656 8.625 2.328125 C 8.164062 2.191406 7.59375 2.03125 6.90625 1.84375 C 5.507812 1.46875 4.554688 1.222656 4.046875 1.109375 C 3.546875 0.992188 3.328125 0.832031 3.390625 0.625 C 3.429688 0.445312 3.59375 0.195312 3.875 -0.125 C 4.164062 -0.445312 4.519531 -0.953125 4.9375 -1.640625 C 5.320312 -2.265625 5.644531 -2.914062 5.90625 -3.59375 C 6.164062 -4.28125 6.375 -4.851562 6.53125 -5.3125 L 11.34375 -23.34375 C 11.445312 -23.851562 11.554688 -24.46875 11.671875 -25.1875 C 11.785156 -25.90625 11.832031 -26.617188 11.8125 -27.328125 C 11.78125 -28.222656 11.71875 -28.898438 11.625 -29.359375 C 11.53125 -29.828125 11.546875 -30.101562 11.671875 -30.1875 C 11.804688 -30.28125 12.191406 -30.242188 12.828125 -30.078125 C 13.148438 -29.984375 13.582031 -29.859375 14.125 -29.703125 C 14.664062 -29.546875 15.328125 -29.363281 16.109375 -29.15625 C 17.265625 -28.851562 18.210938 -28.566406 18.953125 -28.296875 C 19.703125 -28.035156 20.332031 -27.664062 20.84375 -27.1875 C 21.351562 -26.71875 21.8125 -26.050781 22.21875 -25.1875 C 22.632812 -24.332031 23.066406 -23.175781 23.515625 -21.71875 C 23.960938 -20.257812 24.515625 -18.378906 25.171875 -16.078125 C 26.128906 -12.921875 26.84375 -10.59375 27.3125 -9.09375 C 27.78125 -7.601562 28.179688 -6.8125 28.515625 -6.71875 C 28.773438 -6.65625 29.03125 -7.007812 29.28125 -7.78125 C 29.539062 -8.550781 29.867188 -9.679688 30.265625 -11.171875 L 32.046875 -17.8125 C 32.148438 -18.320312 32.257812 -18.9375 32.375 -19.65625 C 32.488281 -20.375 32.53125 -21.085938 32.5 -21.796875 C 32.476562 -22.691406 32.414062 -23.367188 32.3125 -23.828125 C 32.21875 -24.296875 32.21875 -24.578125 32.3125 -24.671875 C 32.40625 -24.773438 32.703125 -24.757812 33.203125 -24.625 C 33.492188 -24.550781 33.859375 -24.445312 34.296875 -24.3125 C 34.742188 -24.1875 35.296875 -24.035156 35.953125 -23.859375 C 37.347656 -23.484375 38.300781 -23.238281 38.8125 -23.125 C 39.332031 -23.019531 39.566406 -22.847656 39.515625 -22.609375 C 39.460938 -22.429688 39.289062 -22.171875 39 -21.828125 C 38.71875 -21.492188 38.351562 -20.96875 37.90625 -20.25 C 37.519531 -19.59375 37.195312 -18.914062 36.9375 -18.21875 C 36.6875 -17.53125 36.5 -16.945312 36.375 -16.46875 L 33.109375 -4.265625 C 32.453125 -1.816406 31.898438 0.175781 31.453125 1.71875 C 31.015625 3.257812 30.628906 4.441406 30.296875 5.265625 C 29.960938 6.097656 29.601562 6.664062 29.21875 6.96875 C 28.84375 7.269531 28.40625 7.394531 27.90625 7.34375 C 27.414062 7.289062 26.785156 7.160156 26.015625 6.953125 C 25.265625 6.753906 24.632812 6.546875 24.125 6.328125 C 23.613281 6.109375 23.171875 5.773438 22.796875 5.328125 C 22.421875 4.878906 22.039062 4.195312 21.65625 3.28125 C 21.28125 2.375 20.847656 1.113281 20.359375 -0.5 C 19.878906 -2.113281 19.28125 -4.179688 18.5625 -6.703125 C 17.613281 -10.148438 16.878906 -12.6875 16.359375 -14.3125 C 15.835938 -15.945312 15.378906 -16.816406 14.984375 -16.921875 C 14.691406 -16.992188 14.390625 -16.570312 14.078125 -15.65625 C 13.765625 -14.738281 13.367188 -13.390625 12.890625 -11.609375 L 10.828125 -3.90625 C 10.691406 -3.382812 10.578125 -2.769531 10.484375 -2.0625 C 10.398438 -1.351562 10.375 -0.660156 10.40625 0.015625 Z M 10.40625 0.015625 "/></g></g></g><g fill="#f46b27" fill-opacity="1"><g transform="translate(174.512856, 340.300889)"><g><path d="M 17.5 -0.28125 L 10.015625 -0.15625 C 9.066406 -0.144531 8.238281 -0.125 7.53125 -0.09375 C 6.820312 -0.0703125 6.234375 -0.0546875 5.765625 -0.046875 C 5.117188 -0.0351562 4.671875 -0.0546875 4.421875 -0.109375 C 4.179688 -0.171875 4.0625 -0.3125 4.0625 -0.53125 C 4.050781 -0.738281 4.128906 -1.046875 4.296875 -1.453125 C 4.460938 -1.859375 4.628906 -2.398438 4.796875 -3.078125 C 4.972656 -3.785156 5.09375 -4.515625 5.15625 -5.265625 C 5.226562 -6.023438 5.257812 -6.648438 5.25 -7.140625 L 4.953125 -25.375 C 4.941406 -25.875 4.890625 -26.488281 4.796875 -27.21875 C 4.710938 -27.957031 4.570312 -28.695312 4.375 -29.4375 C 4.1875 -30.113281 4.003906 -30.640625 3.828125 -31.015625 C 3.648438 -31.398438 3.554688 -31.703125 3.546875 -31.921875 C 3.546875 -32.140625 3.664062 -32.28125 3.90625 -32.34375 C 4.15625 -32.40625 4.601562 -32.441406 5.25 -32.453125 C 5.71875 -32.460938 6.296875 -32.46875 6.984375 -32.46875 C 7.679688 -32.46875 8.519531 -32.472656 9.5 -32.484375 L 16.984375 -32.609375 C 19.296875 -32.648438 21.425781 -32.28125 23.375 -31.5 C 25.320312 -30.726562 27.015625 -29.640625 28.453125 -28.234375 C 29.898438 -26.828125 31.03125 -25.148438 31.84375 -23.203125 C 32.65625 -21.265625 33.078125 -19.140625 33.109375 -16.828125 C 33.148438 -14.492188 32.785156 -12.328125 32.015625 -10.328125 C 31.253906 -8.328125 30.164062 -6.582031 28.75 -5.09375 C 27.34375 -3.613281 25.6875 -2.445312 23.78125 -1.59375 C 21.875 -0.75 19.78125 -0.3125 17.5 -0.28125 Z M 17 -28.453125 L 15.203125 -28.421875 C 14.765625 -28.410156 14.425781 -28.332031 14.1875 -28.1875 C 13.945312 -28.050781 13.773438 -27.617188 13.671875 -26.890625 C 13.578125 -26.160156 13.535156 -24.976562 13.546875 -23.34375 C 13.554688 -21.71875 13.582031 -19.394531 13.625 -16.375 C 13.675781 -13.394531 13.722656 -11.078125 13.765625 -9.421875 C 13.804688 -7.773438 13.882812 -6.59375 14 -5.875 C 14.125 -5.164062 14.3125 -4.738281 14.5625 -4.59375 C 14.8125 -4.457031 15.15625 -4.394531 15.59375 -4.40625 L 17.390625 -4.4375 C 18.617188 -4.457031 19.707031 -5.003906 20.65625 -6.078125 C 21.601562 -7.160156 22.359375 -8.613281 22.921875 -10.4375 C 23.484375 -12.269531 23.742188 -14.304688 23.703125 -16.546875 C 23.671875 -18.828125 23.34375 -20.863281 22.71875 -22.65625 C 22.101562 -24.445312 21.300781 -25.863281 20.3125 -26.90625 C 19.332031 -27.957031 18.226562 -28.472656 17 -28.453125 Z M 17 -28.453125 "/></g></g></g><g fill="#f46b27" fill-opacity="1"><g transform="translate(218.478666, 337.72692)"><g/></g></g><g fill="#f46b27" fill-opacity="1"><g transform="translate(246.267002, 330.933591)"><g><path d="M 16.703125 -7.46875 C 14.640625 -6.4375 12.507812 -5.863281 10.3125 -5.75 C 8.113281 -5.632812 5.988281 -5.929688 3.9375 -6.640625 C 1.882812 -7.347656 0.015625 -8.425781 -1.671875 -9.875 C -3.367188 -11.320312 -4.738281 -13.085938 -5.78125 -15.171875 C -6.832031 -17.265625 -7.425781 -19.421875 -7.5625 -21.640625 C -7.707031 -23.859375 -7.445312 -26 -6.78125 -28.0625 C -6.113281 -30.132812 -5.070312 -32.015625 -3.65625 -33.703125 C -2.238281 -35.390625 -0.5 -36.75 1.5625 -37.78125 C 3.625 -38.8125 5.742188 -39.378906 7.921875 -39.484375 C 10.109375 -39.597656 12.234375 -39.304688 14.296875 -38.609375 C 16.367188 -37.910156 18.25 -36.835938 19.9375 -35.390625 C 21.625 -33.941406 22.992188 -32.171875 24.046875 -30.078125 C 25.085938 -27.992188 25.679688 -25.84375 25.828125 -23.625 C 25.972656 -21.40625 25.703125 -19.253906 25.015625 -17.171875 C 24.335938 -15.097656 23.296875 -13.21875 21.890625 -11.53125 C 20.492188 -9.851562 18.765625 -8.5 16.703125 -7.46875 Z M 3.609375 -33.6875 C 2.421875 -33.09375 1.578125 -32.050781 1.078125 -30.5625 C 0.578125 -29.082031 0.457031 -27.359375 0.71875 -25.390625 C 0.988281 -23.429688 1.632812 -21.429688 2.65625 -19.390625 C 3.664062 -17.359375 4.878906 -15.644531 6.296875 -14.25 C 7.710938 -12.851562 9.164062 -11.90625 10.65625 -11.40625 C 12.144531 -10.90625 13.484375 -10.953125 14.671875 -11.546875 C 15.878906 -12.148438 16.722656 -13.191406 17.203125 -14.671875 C 17.691406 -16.160156 17.800781 -17.890625 17.53125 -19.859375 C 17.269531 -21.828125 16.632812 -23.828125 15.625 -25.859375 C 14.601562 -27.898438 13.382812 -29.613281 11.96875 -31 C 10.550781 -32.394531 9.101562 -33.34375 7.625 -33.84375 C 6.15625 -34.34375 4.816406 -34.289062 3.609375 -33.6875 Z M 3.609375 -33.6875 "/></g></g></g><g fill="#f46b27" fill-opacity="1"><g transform="translate(286.889721, 308.666139)"><g><path d="M 8.890625 -11.78125 C 9.472656 -11.394531 9.957031 -11.101562 10.34375 -10.90625 C 10.738281 -10.71875 11.003906 -10.546875 11.140625 -10.390625 C 11.285156 -10.222656 11.289062 -10.050781 11.15625 -9.875 C 11.03125 -9.707031 10.738281 -9.421875 10.28125 -9.015625 C 9.957031 -8.722656 9.546875 -8.367188 9.046875 -7.953125 C 8.554688 -7.535156 7.953125 -7.015625 7.234375 -6.390625 C 6.515625 -5.753906 5.910156 -5.210938 5.421875 -4.765625 C 4.941406 -4.316406 4.539062 -3.953125 4.21875 -3.671875 C 3.78125 -3.273438 3.457031 -3.015625 3.25 -2.890625 C 3.050781 -2.773438 2.878906 -2.800781 2.734375 -2.96875 C 2.597656 -3.125 2.457031 -3.410156 2.3125 -3.828125 C 2.175781 -4.242188 1.960938 -4.773438 1.671875 -5.421875 C 1.347656 -6.117188 0.960938 -6.773438 0.515625 -7.390625 C 0.078125 -8.015625 -0.300781 -8.507812 -0.625 -8.875 L -12.6875 -22.546875 C -13.019531 -22.921875 -13.457031 -23.359375 -14 -23.859375 C -14.539062 -24.359375 -15.128906 -24.800781 -15.765625 -25.1875 C -16.222656 -25.488281 -16.625 -25.726562 -16.96875 -25.90625 C -17.320312 -26.09375 -17.566406 -26.265625 -17.703125 -26.421875 C -17.929688 -26.679688 -17.894531 -27.007812 -17.59375 -27.40625 C -17.300781 -27.8125 -16.644531 -28.460938 -15.625 -29.359375 C -15.03125 -29.890625 -14.296875 -30.535156 -13.421875 -31.296875 C -12.546875 -32.054688 -11.507812 -32.96875 -10.3125 -34.03125 C -8.46875 -35.65625 -6.953125 -36.96875 -5.765625 -37.96875 C -4.578125 -38.96875 -3.59375 -39.691406 -2.8125 -40.140625 C -2.039062 -40.597656 -1.390625 -40.816406 -0.859375 -40.796875 C -0.328125 -40.773438 0.195312 -40.554688 0.71875 -40.140625 C 1.25 -39.722656 1.894531 -39.132812 2.65625 -38.375 C 3.601562 -37.4375 4.273438 -36.765625 4.671875 -36.359375 C 5.078125 -35.953125 5.234375 -35.707031 5.140625 -35.625 C 5.046875 -35.539062 4.753906 -35.5625 4.265625 -35.6875 C 3.785156 -35.820312 3.132812 -35.914062 2.3125 -35.96875 C 1.34375 -36.050781 0.242188 -35.921875 -0.984375 -35.578125 C -2.210938 -35.242188 -3.46875 -34.507812 -4.75 -33.375 L -6.484375 -31.84375 C -6.898438 -31.476562 -7.207031 -31.164062 -7.40625 -30.90625 C -7.613281 -30.644531 -7.648438 -30.34375 -7.515625 -30 C -7.390625 -29.664062 -7.085938 -29.207031 -6.609375 -28.625 C -6.128906 -28.039062 -5.429688 -27.226562 -4.515625 -26.1875 C -3.273438 -24.78125 -2.320312 -23.816406 -1.65625 -23.296875 C -0.988281 -22.773438 -0.375 -22.757812 0.1875 -23.25 C 0.4375 -23.46875 0.695312 -23.800781 0.96875 -24.25 C 1.25 -24.707031 1.554688 -25.265625 1.890625 -25.921875 C 2.253906 -26.660156 2.503906 -27.253906 2.640625 -27.703125 C 2.785156 -28.160156 2.925781 -28.445312 3.0625 -28.5625 C 3.175781 -28.664062 3.328125 -28.644531 3.515625 -28.5 C 3.703125 -28.363281 3.988281 -28.078125 4.375 -27.640625 L 8.234375 -23.265625 C 8.597656 -22.847656 8.84375 -22.539062 8.96875 -22.34375 C 9.09375 -22.15625 9.097656 -22.007812 8.984375 -21.90625 C 8.847656 -21.789062 8.535156 -21.691406 8.046875 -21.609375 C 7.566406 -21.535156 6.9375 -21.359375 6.15625 -21.078125 C 4.519531 -20.503906 3.460938 -20.003906 2.984375 -19.578125 C 2.546875 -19.191406 2.4375 -18.773438 2.65625 -18.328125 C 2.882812 -17.890625 3.296875 -17.332031 3.890625 -16.65625 L 5.78125 -14.515625 C 6.101562 -14.148438 6.535156 -13.703125 7.078125 -13.171875 C 7.628906 -12.648438 8.234375 -12.1875 8.890625 -11.78125 Z M 8.890625 -11.78125 "/></g></g></g><g fill="#f46b27" fill-opacity="1"><g transform="translate(314.903731, 282.496888)"><g><path d="M 5.921875 -13.515625 C 6.585938 -13.273438 7.128906 -13.109375 7.546875 -13.015625 C 7.972656 -12.921875 8.269531 -12.816406 8.4375 -12.703125 C 8.613281 -12.566406 8.65625 -12.394531 8.5625 -12.1875 C 8.476562 -11.988281 8.257812 -11.640625 7.90625 -11.140625 C 7.65625 -10.785156 7.335938 -10.347656 6.953125 -9.828125 C 6.578125 -9.304688 6.113281 -8.660156 5.5625 -7.890625 C 5.007812 -7.109375 4.546875 -6.441406 4.171875 -5.890625 C 3.804688 -5.335938 3.5 -4.890625 3.25 -4.546875 C 2.90625 -4.054688 2.648438 -3.726562 2.484375 -3.5625 C 2.316406 -3.40625 2.144531 -3.394531 1.96875 -3.53125 C 1.800781 -3.644531 1.601562 -3.882812 1.375 -4.25 C 1.144531 -4.625 0.816406 -5.09375 0.390625 -5.65625 C -0.0859375 -6.257812 -0.613281 -6.8125 -1.1875 -7.3125 C -1.769531 -7.8125 -2.257812 -8.207031 -2.65625 -8.5 L -17.5625 -19 C -17.96875 -19.289062 -18.488281 -19.613281 -19.125 -19.96875 C -19.769531 -20.320312 -20.445312 -20.613281 -21.15625 -20.84375 C -21.675781 -21.039062 -22.128906 -21.1875 -22.515625 -21.28125 C -22.898438 -21.382812 -23.175781 -21.492188 -23.34375 -21.609375 C -23.625 -21.804688 -23.664062 -22.132812 -23.46875 -22.59375 C -23.269531 -23.0625 -22.78125 -23.847656 -22 -24.953125 C -21.53125 -25.609375 -20.960938 -26.40625 -20.296875 -27.34375 C -19.628906 -28.28125 -18.832031 -29.40625 -17.90625 -30.71875 C -16.488281 -32.726562 -15.316406 -34.351562 -14.390625 -35.59375 C -13.472656 -36.84375 -12.691406 -37.773438 -12.046875 -38.390625 C -11.398438 -39.015625 -10.8125 -39.378906 -10.28125 -39.484375 C -9.757812 -39.585938 -9.191406 -39.5 -8.578125 -39.21875 C -7.972656 -38.9375 -7.210938 -38.515625 -6.296875 -37.953125 C -5.160156 -37.253906 -4.347656 -36.753906 -3.859375 -36.453125 C -3.378906 -36.148438 -3.171875 -35.945312 -3.234375 -35.84375 C -3.304688 -35.738281 -3.59375 -35.691406 -4.09375 -35.703125 C -4.601562 -35.722656 -5.257812 -35.660156 -6.0625 -35.515625 C -7.039062 -35.378906 -8.082031 -35.003906 -9.1875 -34.390625 C -10.300781 -33.773438 -11.351562 -32.765625 -12.34375 -31.359375 L -13.671875 -29.46875 C -13.992188 -29.019531 -14.222656 -28.644531 -14.359375 -28.34375 C -14.503906 -28.039062 -14.46875 -27.742188 -14.25 -27.453125 C -14.039062 -27.160156 -13.640625 -26.78125 -13.046875 -26.3125 C -12.453125 -25.851562 -11.585938 -25.226562 -10.453125 -24.4375 C -8.921875 -23.351562 -7.769531 -22.632812 -7 -22.28125 C -6.226562 -21.925781 -5.628906 -22.050781 -5.203125 -22.65625 C -5.003906 -22.9375 -4.820312 -23.328125 -4.65625 -23.828125 C -4.5 -24.335938 -4.332031 -24.945312 -4.15625 -25.65625 C -3.976562 -26.457031 -3.867188 -27.09375 -3.828125 -27.5625 C -3.796875 -28.03125 -3.726562 -28.335938 -3.625 -28.484375 C -3.539062 -28.609375 -3.390625 -28.625 -3.171875 -28.53125 C -2.960938 -28.445312 -2.617188 -28.238281 -2.140625 -27.90625 L 2.609375 -24.546875 C 3.066406 -24.222656 3.378906 -23.984375 3.546875 -23.828125 C 3.722656 -23.671875 3.765625 -23.53125 3.671875 -23.40625 C 3.578125 -23.257812 3.300781 -23.085938 2.84375 -22.890625 C 2.382812 -22.703125 1.804688 -22.382812 1.109375 -21.9375 C -0.335938 -21 -1.25 -20.265625 -1.625 -19.734375 C -1.957031 -19.265625 -1.960938 -18.835938 -1.640625 -18.453125 C -1.328125 -18.078125 -0.804688 -17.628906 -0.078125 -17.109375 L 2.265625 -15.46875 C 2.660156 -15.175781 3.1875 -14.835938 3.84375 -14.453125 C 4.5 -14.078125 5.191406 -13.765625 5.921875 -13.515625 Z M 5.921875 -13.515625 "/></g></g></g><g fill="#f46b27" fill-opacity="1"><g transform="translate(335.512747, 250.915696)"><g><path d="M -17.546875 -22.9375 L -0.859375 -15.609375 C -0.410156 -15.410156 0.164062 -15.1875 0.875 -14.9375 C 1.59375 -14.695312 2.320312 -14.53125 3.0625 -14.4375 C 3.769531 -14.363281 4.335938 -14.320312 4.765625 -14.3125 C 5.203125 -14.300781 5.519531 -14.253906 5.71875 -14.171875 C 5.914062 -14.085938 5.992188 -13.925781 5.953125 -13.6875 C 5.921875 -13.457031 5.785156 -13.0625 5.546875 -12.5 C 5.367188 -12.101562 5.140625 -11.601562 4.859375 -11 C 4.578125 -10.394531 4.25 -9.675781 3.875 -8.84375 C 3.507812 -7.988281 3.203125 -7.253906 2.953125 -6.640625 C 2.703125 -6.035156 2.488281 -5.539062 2.3125 -5.15625 C 2.070312 -4.601562 1.875 -4.226562 1.71875 -4.03125 C 1.5625 -3.832031 1.382812 -3.773438 1.1875 -3.859375 C 0.988281 -3.941406 0.742188 -4.144531 0.453125 -4.46875 C 0.160156 -4.789062 -0.253906 -5.179688 -0.796875 -5.640625 C -1.359375 -6.128906 -1.96875 -6.5625 -2.625 -6.9375 C -3.289062 -7.3125 -3.847656 -7.597656 -4.296875 -7.796875 L -20.984375 -15.125 C -21.441406 -15.320312 -22.019531 -15.53125 -22.71875 -15.75 C -23.425781 -15.976562 -24.148438 -16.132812 -24.890625 -16.21875 C -25.617188 -16.320312 -26.195312 -16.367188 -26.625 -16.359375 C -27.050781 -16.347656 -27.363281 -16.390625 -27.5625 -16.484375 C -27.757812 -16.566406 -27.832031 -16.734375 -27.78125 -16.984375 C -27.738281 -17.234375 -27.597656 -17.632812 -27.359375 -18.1875 C -27.179688 -18.570312 -26.953125 -19.0625 -26.671875 -19.65625 C -26.398438 -20.257812 -26.082031 -20.988281 -25.71875 -21.84375 C -25.34375 -22.675781 -25.023438 -23.398438 -24.765625 -24.015625 C -24.515625 -24.628906 -24.300781 -25.132812 -24.125 -25.53125 C -23.882812 -26.09375 -23.691406 -26.460938 -23.546875 -26.640625 C -23.398438 -26.828125 -23.226562 -26.878906 -23.03125 -26.796875 C -22.832031 -26.703125 -22.585938 -26.503906 -22.296875 -26.203125 C -22.015625 -25.898438 -21.59375 -25.503906 -21.03125 -25.015625 C -20.46875 -24.535156 -19.859375 -24.117188 -19.203125 -23.765625 C -18.554688 -23.410156 -18.003906 -23.132812 -17.546875 -22.9375 Z M -17.546875 -22.9375 "/></g></g></g><g fill="#f46b27" fill-opacity="1"><g transform="translate(346.631476, 224.900889)"><g><path d="M 4.5 -18.03125 C 4.03125 -15.726562 3.160156 -13.660156 1.890625 -11.828125 C 0.617188 -10.003906 -0.929688 -8.488281 -2.765625 -7.28125 C -4.597656 -6.070312 -6.597656 -5.242188 -8.765625 -4.796875 C -10.929688 -4.347656 -13.160156 -4.359375 -15.453125 -4.828125 C -17.710938 -5.285156 -19.757812 -6.128906 -21.59375 -7.359375 C -23.4375 -8.597656 -24.976562 -10.097656 -26.21875 -11.859375 C -27.457031 -13.617188 -28.320312 -15.519531 -28.8125 -17.5625 C -29.3125 -19.613281 -29.34375 -21.695312 -28.90625 -23.8125 C -28.613281 -25.226562 -28.210938 -26.367188 -27.703125 -27.234375 C -27.191406 -28.097656 -26.691406 -28.863281 -26.203125 -29.53125 C -25.722656 -30.207031 -25.410156 -30.910156 -25.265625 -31.640625 C -25.140625 -32.242188 -25.1875 -32.769531 -25.40625 -33.21875 C -25.601562 -33.644531 -25.742188 -33.941406 -25.828125 -34.109375 C -25.910156 -34.285156 -25.828125 -34.367188 -25.578125 -34.359375 C -25.328125 -34.359375 -24.820312 -34.285156 -24.0625 -34.140625 C -23.3125 -34.003906 -22.1875 -33.8125 -20.6875 -33.5625 C -19.238281 -33.332031 -18.203125 -33.175781 -17.578125 -33.09375 C -16.960938 -33.019531 -16.671875 -32.90625 -16.703125 -32.75 C -16.734375 -32.570312 -17.097656 -32.269531 -17.796875 -31.84375 C -18.492188 -31.425781 -19.398438 -30.734375 -20.515625 -29.765625 C -21.421875 -28.984375 -22.203125 -28.109375 -22.859375 -27.140625 C -23.515625 -26.171875 -23.941406 -25.222656 -24.140625 -24.296875 C -24.429688 -22.847656 -24.160156 -21.429688 -23.328125 -20.046875 C -22.492188 -18.671875 -21.21875 -17.445312 -19.5 -16.375 C -17.789062 -15.3125 -15.773438 -14.546875 -13.453125 -14.078125 C -11.078125 -13.585938 -8.914062 -13.523438 -6.96875 -13.890625 C -5.019531 -14.265625 -3.40625 -15.003906 -2.125 -16.109375 C -0.84375 -17.210938 -0.0234375 -18.628906 0.328125 -20.359375 C 0.609375 -21.734375 0.503906 -23.085938 0.015625 -24.421875 C -0.367188 -25.535156 -0.707031 -26.378906 -1 -26.953125 C -1.289062 -27.535156 -1.503906 -27.96875 -1.640625 -28.25 C -1.773438 -28.53125 -1.796875 -28.769531 -1.703125 -28.96875 C -1.609375 -29.164062 -1.367188 -29.445312 -0.984375 -29.8125 C -0.367188 -30.375 0.222656 -30.597656 0.796875 -30.484375 C 1.335938 -30.367188 1.890625 -29.921875 2.453125 -29.140625 C 3.015625 -28.367188 3.609375 -27.128906 4.234375 -25.421875 C 4.640625 -24.304688 4.851562 -23.117188 4.875 -21.859375 C 4.894531 -20.597656 4.769531 -19.320312 4.5 -18.03125 Z M 4.5 -18.03125 "/></g></g></g><g fill="#f46b27" fill-opacity="1"><g transform="translate(353.707882, 183.939761)"><g><path d="M -6.5 -27.984375 C -5.445312 -27.984375 -4.585938 -27.929688 -3.921875 -27.828125 C -3.253906 -27.734375 -2.726562 -27.492188 -2.34375 -27.109375 C -1.957031 -26.722656 -1.660156 -26.082031 -1.453125 -25.1875 C -1.242188 -24.300781 -1.085938 -23.054688 -0.984375 -21.453125 C -0.890625 -19.847656 -0.785156 -17.769531 -0.671875 -15.21875 C -0.597656 -13.5625 -0.523438 -12.128906 -0.453125 -10.921875 C -0.390625 -9.722656 -0.335938 -8.710938 -0.296875 -7.890625 C -0.234375 -6.472656 -0.242188 -5.5 -0.328125 -4.96875 C -0.421875 -4.445312 -0.632812 -4.179688 -0.96875 -4.171875 C -1.21875 -4.160156 -1.519531 -4.21875 -1.875 -4.34375 C -2.238281 -4.46875 -2.6875 -4.59375 -3.21875 -4.71875 C -3.9375 -4.90625 -4.671875 -5.019531 -5.421875 -5.0625 C -6.179688 -5.101562 -6.804688 -5.113281 -7.296875 -5.09375 L -25.5 -4.296875 C -26 -4.273438 -26.613281 -4.207031 -27.34375 -4.09375 C -28.082031 -3.988281 -28.816406 -3.804688 -29.546875 -3.546875 C -30.066406 -3.378906 -30.5 -3.21875 -30.84375 -3.0625 C -31.195312 -2.90625 -31.476562 -2.820312 -31.6875 -2.8125 C -32.03125 -2.800781 -32.265625 -3.035156 -32.390625 -3.515625 C -32.515625 -4.003906 -32.609375 -4.914062 -32.671875 -6.25 C -32.703125 -7.03125 -32.738281 -8.003906 -32.78125 -9.171875 C -32.820312 -10.347656 -32.878906 -11.738281 -32.953125 -13.34375 C -33.054688 -15.769531 -33.125 -17.757812 -33.15625 -19.3125 C -33.195312 -20.875 -33.148438 -22.09375 -33.015625 -22.96875 C -32.878906 -23.851562 -32.632812 -24.492188 -32.28125 -24.890625 C -31.9375 -25.296875 -31.4375 -25.570312 -30.78125 -25.71875 C -30.125 -25.875 -29.257812 -26.003906 -28.1875 -26.109375 C -26.832031 -26.265625 -25.878906 -26.375 -25.328125 -26.4375 C -24.785156 -26.507812 -24.507812 -26.484375 -24.5 -26.359375 C -24.5 -26.234375 -24.6875 -26.023438 -25.0625 -25.734375 C -25.445312 -25.441406 -25.9375 -24.976562 -26.53125 -24.34375 C -27.207031 -23.632812 -27.796875 -22.691406 -28.296875 -21.515625 C -28.804688 -20.347656 -29.023438 -18.898438 -28.953125 -17.171875 L -28.84375 -14.90625 C -28.8125 -14.164062 -28.71875 -13.644531 -28.5625 -13.34375 C -28.414062 -13.039062 -28 -12.875 -27.3125 -12.84375 C -26.632812 -12.8125 -25.46875 -12.832031 -23.8125 -12.90625 C -22.15625 -12.976562 -20.9375 -13.125 -20.15625 -13.34375 C -19.382812 -13.5625 -19.015625 -14.007812 -19.046875 -14.6875 C -19.066406 -15.300781 -19.445312 -16.257812 -20.1875 -17.5625 C -20.550781 -18.1875 -20.875 -18.675781 -21.15625 -19.03125 C -21.4375 -19.394531 -21.578125 -19.65625 -21.578125 -19.8125 C -21.585938 -19.96875 -21.476562 -20.054688 -21.25 -20.078125 C -21.019531 -20.109375 -20.625 -20.132812 -20.0625 -20.15625 L -14.25 -20.40625 C -13.632812 -20.4375 -13.203125 -20.441406 -12.953125 -20.421875 C -12.710938 -20.398438 -12.585938 -20.3125 -12.578125 -20.15625 C -12.566406 -20 -12.679688 -19.738281 -12.921875 -19.375 C -13.171875 -19.007812 -13.4375 -18.5 -13.71875 -17.84375 C -14.03125 -17.144531 -14.257812 -16.5625 -14.40625 -16.09375 C -14.550781 -15.625 -14.617188 -15.222656 -14.609375 -14.890625 C -14.578125 -14.210938 -14.164062 -13.796875 -13.375 -13.640625 C -12.582031 -13.484375 -11.335938 -13.445312 -9.640625 -13.53125 C -8.023438 -13.59375 -6.878906 -13.675781 -6.203125 -13.78125 C -5.535156 -13.894531 -5.140625 -14.140625 -5.015625 -14.515625 C -4.890625 -14.890625 -4.847656 -15.523438 -4.890625 -16.421875 L -5 -19.140625 C -5.082031 -20.867188 -5.414062 -22.296875 -6 -23.421875 C -6.582031 -24.546875 -7.257812 -25.429688 -8.03125 -26.078125 C -8.957031 -26.835938 -9.632812 -27.351562 -10.0625 -27.625 C -10.488281 -27.894531 -10.425781 -28.046875 -9.875 -28.078125 C -9.59375 -28.085938 -9.1875 -28.078125 -8.65625 -28.046875 C -8.125 -28.023438 -7.40625 -28.003906 -6.5 -27.984375 Z M -6.5 -27.984375 "/></g></g></g></svg>