<svg xmlns="http://www.w3.org/2000/svg" xmlns:xlink="http://www.w3.org/1999/xlink" width="235" zoomAndPan="magnify" viewBox="0 0 176.25 177.000001" height="236" preserveAspectRatio="xMidYMid meet" version="1.0"><defs><clipPath id="b3f073fe03"><path d="M 2 0 L 174.636719 0 L 174.636719 173 L 2 173 Z M 2 0 " clip-rule="nonzero"/></clipPath><clipPath id="d3016fa1d7"><path d="M 6.8125 4.527344 L 170 4.527344 L 170 167.199219 L 6.8125 167.199219 Z M 6.8125 4.527344 " clip-rule="nonzero"/></clipPath><clipPath id="a8326b9d16"><path d="M 88.210938 4.527344 C 43.253906 4.527344 6.8125 40.941406 6.8125 85.863281 C 6.8125 130.78125 43.253906 167.199219 88.210938 167.199219 C 133.164062 167.199219 169.605469 130.78125 169.605469 85.863281 C 169.605469 40.941406 133.164062 4.527344 88.210938 4.527344 Z M 88.210938 4.527344 " clip-rule="nonzero"/></clipPath><clipPath id="424647a627"><path d="M 35.128906 31.980469 L 140.535156 31.980469 L 140.535156 139 L 35.128906 139 Z M 35.128906 31.980469 " clip-rule="nonzero"/></clipPath><clipPath id="f7c6418eac"><path d="M 87.832031 31.980469 C 58.726562 31.980469 35.128906 55.894531 35.128906 85.394531 C 35.128906 114.890625 58.726562 138.804688 87.832031 138.804688 C 116.941406 138.804688 140.535156 114.890625 140.535156 85.394531 C 140.535156 55.894531 116.941406 31.980469 87.832031 31.980469 Z M 87.832031 31.980469 " clip-rule="nonzero"/></clipPath><clipPath id="0fa6be1392"><path d="M 66 35.902344 L 121 35.902344 L 121 91 L 66 91 Z M 66 35.902344 " clip-rule="nonzero"/></clipPath><clipPath id="e92533da28"><path d="M 105 77 L 136.140625 77 L 136.140625 109 L 105 109 Z M 105 77 " clip-rule="nonzero"/></clipPath><clipPath id="b306ec6e34"><path d="M 38.445312 73 L 83 73 L 83 117.191406 L 38.445312 117.191406 Z M 38.445312 73 " clip-rule="nonzero"/></clipPath><clipPath id="54f4022caa"><path d="M 80.011719 102.484375 L 109.84375 102.484375 L 109.84375 132.316406 L 80.011719 132.316406 Z M 80.011719 102.484375 " clip-rule="nonzero"/></clipPath></defs><g clip-path="url(#b3f073fe03)"><path fill="#231f20" d="M 44.972656 10.917969 C 48.800781 8.09375 56.300781 5.808594 62.84375 4.136719 C 68.613281 2.664062 74.160156 2.402344 77.226562 0.957031 C 81.765625 0.957031 85.980469 0.0585938 90.4375 0.203125 C 104.429688 0.671875 116.355469 3.671875 129.597656 10.335938 C 131.09375 10.335938 134.214844 14.363281 135.730469 15.09375 C 137.84375 16.117188 141.359375 18.359375 142.734375 19.742188 C 143.859375 20.875 145.859375 22.132812 147.113281 23.640625 C 149.113281 23.640625 153.996094 30.179688 155.492188 31.683594 C 158.246094 34.449219 159.875 40.359375 162.125 42.625 C 162.878906 43.375 166.882812 50.917969 166.855469 51.796875 C 168.675781 51.796875 171.832031 67.589844 172.824219 70.582031 C 174.648438 76.066406 174.152344 87.535156 173.195312 93.78125 C 173.195312 99.183594 169.800781 114.730469 164.648438 125.964844 C 162.152344 131.402344 154.632812 143.070312 150.328125 147.390625 C 145.371094 152.363281 139.027344 157.21875 131.371094 161.066406 C 117.378906 169.652344 81.507812 175.953125 64.988281 169.078125 C 36.136719 157.070312 27.484375 152.761719 11.972656 125.933594 C 2.8125 110.105469 0.128906 78.003906 4.726562 65.046875 C 13.335938 40.789062 23.304688 26.875 44.972656 10.917969 M 129.054688 157.78125 C 124.933594 159.785156 118.070312 164.925781 112.953125 164.925781 C 112.328125 164.925781 99.34375 167.558594 98.847656 167.9375 C 89.238281 169.480469 80.257812 168.429688 71.507812 166.683594 C 63.675781 165.113281 55.15625 160.910156 48.777344 157.785156 C 47.34375 157.785156 44.351562 155.140625 42.917969 154.417969 C 40.878906 153.457031 37.53125 151.292969 36.21875 149.972656 C 35.144531 148.890625 33.226562 147.6875 32.03125 146.246094 C 30.113281 146.246094 25.453125 139.996094 24.011719 138.554688 C 21.382812 135.910156 19.832031 130.257812 17.675781 128.097656 C 16.957031 127.375 13.460938 120.164062 13.484375 119.324219 C 11.742188 119.324219 8.730469 104.226562 7.777344 101.363281 C 6.039062 96.125 5.226562 85.15625 6.136719 79.183594 C 6.136719 73.453125 9 67.152344 9 62.378906 C 9 56.460938 15.285156 50.921875 17.152344 45.140625 C 17.152344 43.410156 21.246094 37.785156 23.183594 36.914062 C 25.984375 35.621094 27.273438 31.507812 29.429688 29.34375 C 34.167969 24.585938 39.765625 18.527344 47.085938 14.851562 C 57.582031 7.953125 75.300781 3.945312 89.023438 3.945312 C 95.117188 4.707031 105.027344 3.5625 110.550781 6.234375 C 111.886719 6.808594 116.839844 8.335938 118.171875 8.335938 C 118.746094 8.335938 121.03125 9.480469 121.410156 9.480469 C 121.792969 9.480469 122.367188 10.246094 122.746094 10.246094 L 124.269531 10.816406 C 131.128906 10.816406 158.1875 37.746094 158.1875 42.902344 C 169.9375 54.679688 172.761719 92.34375 168.167969 106.65625 C 160.460938 130.65625 152.421875 146.660156 129.054688 157.78125 Z M 129.054688 157.78125 " fill-opacity="1" fill-rule="evenodd"/></g><path fill="#231f20" d="M 64.246094 67.464844 C 64.652344 66.941406 64.945312 66.472656 65.640625 66.125 C 66.457031 65.714844 66.574219 64.199219 67.210938 63.910156 C 67.273438 63.910156 68.375 63.207031 68.4375 63.09375 C 68.4375 63.09375 69.480469 62.335938 69.597656 62.21875 C 70.878906 60.9375 72.507812 60.585938 73.613281 59.476562 C 74.195312 58.890625 78.035156 57.726562 78.035156 57.203125 C 78.851562 57.203125 80.246094 56.734375 80.886719 56.441406 C 81.351562 56.210938 82.222656 56.210938 82.746094 55.976562 C 83.96875 55.394531 86.238281 55.453125 87.691406 55.453125 C 89.382812 54.753906 91.707031 55.917969 93.21875 55.917969 C 95.023438 55.917969 97.175781 57.085938 98.632812 57.085938 C 98.746094 57.085938 99.269531 57.203125 99.328125 57.203125 C 99.445312 57.257812 100.027344 57.433594 100.144531 57.433594 C 100.144531 57.433594 100.722656 57.667969 100.78125 57.667969 C 100.898438 57.726562 101.945312 57.785156 102.0625 57.726562 C 102.238281 57.667969 102.585938 57.320312 102.585938 57.085938 C 102.585938 56.910156 102.703125 56.558594 102.703125 56.441406 C 102.703125 56.035156 102.585938 55.683594 102.410156 55.511719 C 102.351562 55.453125 101.597656 54.988281 101.539062 54.988281 C 100.957031 54.640625 99.386719 54.230469 99.039062 53.875 C 98.691406 53.53125 96.246094 52.945312 95.601562 52.945312 C 94.265625 52.945312 92.929688 52.246094 91.765625 52.246094 L 85.773438 52.1875 C 85.1875 52.1875 84.027344 52.1875 83.449219 52.367188 C 82.746094 52.597656 82.277344 52.828125 81.351562 52.828125 C 80.128906 53.414062 78.207031 53.53125 77.101562 54.054688 C 76.695312 54.230469 76.054688 54.402344 75.648438 54.578125 C 75.527344 54.640625 74.542969 55.046875 74.542969 55.105469 C 74.132812 55.453125 73.378906 55.800781 73.027344 55.976562 C 72.332031 56.328125 71.226562 56.558594 70.707031 57.089844 C 70.066406 57.730469 68.957031 58.074219 68.4375 58.601562 C 67.332031 59.707031 65.875 60.703125 64.882812 61.691406 C 64.480469 62.097656 63.957031 62.917969 63.546875 63.324219 C 63.371094 63.5 61.976562 64.78125 61.976562 64.78125 C 61.742188 65.25 61.570312 65.65625 61.570312 66.242188 C 61.570312 66.296875 61.453125 67.117188 61.570312 67.234375 C 61.742188 67.40625 62.035156 67.40625 62.152344 67.519531 C 62.152344 67.519531 63.082031 67.644531 63.253906 67.644531 C 63.371094 67.644531 63.714844 67.644531 63.78125 67.578125 C 63.839844 67.523438 63.839844 67.464844 63.957031 67.464844 C 64.015625 67.464844 64.246094 67.464844 64.246094 67.464844 M 59.992188 60.636719 C 59.390625 60.136719 58.496094 59.488281 57.996094 58.988281 C 57.152344 58.144531 55.957031 57.441406 55.109375 56.59375 C 54.8125 56.296875 54.269531 55.945312 53.667969 55.945312 C 53.070312 55.945312 52.519531 56.445312 52.125 56.445312 C 51.976562 56.898438 51.824219 57.34375 51.824219 57.84375 C 51.824219 59.1875 55.058594 59.886719 55.058594 60.640625 C 55.414062 60.886719 56.007812 61.183594 56.253906 61.433594 C 56.707031 61.882812 57.75 62.382812 58.546875 62.382812 C 59.59375 62.382812 60.089844 61.734375 59.992188 60.636719 Z M 64.964844 46.167969 C 64.667969 46.167969 64.269531 46.167969 63.972656 46.167969 C 63.871094 46.167969 63.574219 46.214844 63.523438 46.214844 C 63.375 46.265625 63.125 46.367188 63.027344 46.46875 C 62.976562 46.515625 62.777344 46.570312 62.726562 46.617188 C 62.578125 46.765625 62.578125 47.714844 62.578125 47.964844 C 62.578125 48.0625 62.578125 48.214844 62.578125 48.3125 C 62.578125 48.464844 62.828125 49.160156 62.976562 49.160156 C 63.125 50.109375 64.171875 51.007812 64.519531 51.757812 C 64.566406 51.859375 64.964844 52.25 64.964844 52.25 C 65.117188 52.40625 66.164062 53.703125 66.164062 53.953125 C 66.265625 54.050781 66.609375 54.402344 66.808594 54.402344 C 66.859375 54.402344 67.304688 54.449219 67.355469 54.449219 C 67.453125 54.5 67.65625 54.652344 67.808594 54.652344 C 68.105469 54.652344 68.304688 54.601562 68.402344 54.402344 C 68.402344 54.351562 68.601562 54.25 68.601562 54.25 C 68.75 54.101562 68.851562 53.703125 69 53.402344 C 69 53.355469 69 52.855469 69 52.800781 C 69 52.703125 68.800781 52.503906 68.800781 52.355469 C 68.054688 51.207031 67.453125 49.660156 66.90625 48.5625 C 66.707031 48.164062 65.414062 46.117188 64.964844 46.167969 Z M 77.363281 40.382812 C 77.160156 40.382812 76.816406 40.382812 76.664062 40.429688 C 76.515625 40.480469 76.167969 40.730469 76.121094 40.78125 C 76.066406 40.828125 75.871094 40.929688 75.820312 41.03125 C 75.820312 41.082031 75.671875 41.230469 75.621094 41.28125 C 75.371094 41.527344 75.371094 42.226562 75.519531 42.574219 C 75.621094 42.824219 75.820312 43.574219 75.820312 43.917969 C 76.121094 44.972656 76.417969 47.316406 77.066406 47.964844 C 77.5625 48.464844 77.410156 49.160156 78.109375 49.511719 C 78.757812 49.808594 79.554688 49.511719 79.800781 49.011719 C 79.800781 48.3125 79.902344 47.367188 79.902344 46.570312 C 79.902344 45.769531 79.207031 43.621094 78.855469 42.875 C 78.40625 41.925781 78.65625 40.382812 77.363281 40.382812 Z M 91.050781 38.984375 C 89.859375 38.984375 89.660156 39.976562 89.660156 41.03125 C 89.660156 42.027344 89.609375 43.078125 89.609375 44.070312 C 89.507812 44.921875 89.3125 47.367188 89.859375 47.914062 C 90.207031 48.261719 90.949219 48.3125 91.351562 48.113281 C 91.550781 48.011719 92.046875 46.71875 92.046875 46.515625 C 92.046875 46.265625 92.546875 43.972656 92.59375 43.917969 C 92.695312 43.820312 92.546875 42.328125 92.546875 42.226562 C 92.546875 41.328125 92.847656 40.632812 92.847656 39.78125 C 92.847656 39.328125 91.5 38.886719 91.050781 38.984375 Z M 104.652344 41.78125 C 104.042969 41.871094 103.519531 42.601562 103.402344 43.125 C 103.289062 43.679688 102.675781 44.734375 102.675781 45.261719 C 102.527344 45.730469 102.414062 46.636719 102.210938 47.042969 C 102.0625 47.367188 102.0625 48.097656 101.949219 48.480469 C 101.746094 49.152344 101.65625 49.535156 101.65625 50.261719 C 101.65625 51.019531 103.605469 50.785156 103.605469 50.527344 C 104.335938 50.175781 104.335938 48.566406 104.859375 48.039062 C 105.265625 47.628906 105.675781 46.316406 105.90625 45.730469 C 106.574219 44.003906 107.363281 41.808594 104.652344 41.78125 Z M 120.488281 46.796875 C 119.234375 46.636719 119.035156 46.714844 117.988281 47.035156 C 116.996094 47.34375 114.542969 48.765625 114.28125 49.863281 C 114.019531 50.964844 112.816406 51.59375 112.453125 52.378906 C 111.878906 52.851562 110.203125 53.058594 109.417969 53.320312 C 107.484375 53.953125 106.128906 54.578125 104.714844 55.996094 C 104.246094 56.464844 103.773438 57.671875 103.5625 58.300781 L 103.199219 60.238281 C 102.222656 60.578125 100.488281 60.246094 99.378906 60.246094 C 97.550781 60.246094 94.5 60.066406 92.824219 60.609375 C 90.632812 61.328125 91.476562 63.675781 93.511719 63.675781 C 94.5 64.007812 95.664062 63.675781 96.652344 63.675781 C 97.941406 63.675781 99.320312 63.582031 100.546875 63.582031 C 102.789062 63.582031 115.15625 63.074219 115.15625 64.910156 C 114.824219 65.621094 114.511719 66.179688 114.511719 67.054688 C 114.511719 67.203125 114.265625 67.734375 114.195312 67.808594 C 114.097656 67.90625 113.636719 68.007812 113.488281 68.074219 C 113.414062 68.097656 113.222656 68.320312 113.148438 68.320312 C 112.203125 68.464844 111.113281 68.464844 110.164062 68.464844 C 109.65625 68.464844 109.023438 68.273438 108.441406 68.273438 C 107.738281 68.273438 107.007812 68.390625 106.308594 68.390625 C 105.988281 68.390625 105.601562 68.464844 105.601562 68.808594 C 105.601562 69.027344 105.480469 69.316406 105.480469 69.5625 C 105.480469 69.878906 105.359375 70.363281 105.503906 70.675781 C 105.574219 70.824219 105.988281 71.09375 106.183594 71.09375 C 106.402344 71.09375 106.597656 71.261719 106.789062 71.261719 C 107.324219 71.601562 108.929688 71.3125 109.535156 71.3125 C 110.40625 71.3125 111.332031 71.261719 112.230469 71.261719 C 112.832031 71.261719 113.636719 71.3125 114.167969 71.480469 C 114.386719 71.550781 115.726562 72.039062 115.726562 72.136719 C 116.042969 72.773438 116.90625 74.164062 116.90625 74.84375 C 116.90625 75.375 117.226562 76.015625 117.398438 76.574219 C 118.828125 81.160156 119.210938 85.980469 118.339844 90.824219 C 118.148438 91.894531 117.683594 93.113281 117.683594 93.890625 C 117.640625 94.007812 117.488281 94.203125 117.453125 94.277344 C 117.453125 94.316406 117.335938 94.472656 117.335938 94.511719 C 117.296875 94.625 117.140625 94.707031 117.140625 94.898438 C 117.140625 95.09375 116.289062 95.480469 116.230469 95.507812 C 113.859375 95.527344 110.777344 94.699219 108.242188 94.699219 C 106.203125 94.699219 104.625 93.578125 103.085938 92.5 C 100.867188 90.941406 101.441406 91.242188 99.304688 92.359375 C 98.140625 92.96875 96.71875 93.589844 96.347656 93.707031 C 95.800781 93.878906 94.640625 93.757812 94.199219 93.980469 C 93.707031 94.203125 92.21875 94.421875 91.617188 94.476562 C 90.074219 94.476562 88.085938 95.746094 86.546875 95.25 C 85.0625 94.757812 82.03125 95.359375 80.433594 95.359375 L 75.644531 95.304688 C 73.988281 95.304688 71.570312 94.59375 69.75 94.367188 C 68.265625 94.367188 66.171875 93.8125 65.238281 92.878906 C 64.246094 91.882812 61.65625 92.105469 60.335938 91.332031 C 60.335938 91 59.121094 90.617188 58.957031 90.449219 C 58.679688 90.171875 58.515625 89.621094 58.515625 89.125 C 58.515625 88.132812 58.570312 86.308594 58.296875 85.371094 C 58.074219 84.65625 58.628906 83.550781 58.308594 83.019531 C 58.382812 83.019531 58.847656 82.632812 59.003906 82.554688 C 59.078125 82.511719 59.933594 82.4375 60.046875 82.4375 C 60.859375 82.4375 61.90625 82.359375 62.679688 82.359375 L 67.949219 82.320312 C 69.691406 82.320312 71.433594 82.203125 73.136719 82.203125 C 73.796875 82.203125 74.378906 81.816406 74.921875 81.625 C 75.964844 81.625 75.425781 79.679688 74.609375 79.488281 C 73.644531 79.253906 72.25 78.984375 71.242188 78.984375 C 70.230469 78.984375 69.183594 79.101562 68.21875 78.945312 C 68.21875 78.710938 67.484375 78.28125 67.484375 77.738281 C 67.484375 77.15625 67.402344 76.496094 67.175781 76.03125 C 66.746094 75.140625 65.660156 72.773438 64.769531 72.34375 C 62.992188 71.453125 60.203125 70.132812 58.066406 70.367188 C 58.371094 70.453125 57.414062 68.53125 57.371094 68.355469 C 57.152344 67.660156 56.761719 66.695312 56.195312 66.128906 C 55.324219 65.257812 53.355469 64.003906 52.277344 63.464844 C 49.828125 62.257812 45.84375 62.179688 43.1875 62.925781 C 44.519531 61.585938 46.355469 58.261719 47.183594 56.527344 C 47.5 55.875 49.089844 54.429688 49.089844 53.761719 C 49.089844 53.664062 51.277344 51.566406 51.660156 51.1875 C 52.613281 50.328125 53.753906 49.085938 54.519531 48.320312 C 55.277344 47.558594 56.324219 46.890625 57.277344 46.417969 C 58.890625 45.648438 61.371094 41.929688 63.175781 41.929688 C 64.226562 41.546875 66.128906 40.5 67.175781 40.019531 C 68.699219 39.261719 70.796875 39.355469 72.128906 38.019531 C 72.507812 37.636719 76.21875 36.394531 76.984375 36.394531 C 80.21875 36.394531 82.597656 35.25 85.933594 35.25 C 88.691406 35.25 91.550781 35.632812 94.214844 35.632812 C 100.023438 35.632812 105.757812 38.625 109.804688 40.144531 C 112.382812 41.113281 120.488281 44.980469 120.488281 46.796875 Z M 38.703125 77.585938 C 38.703125 79.371094 41.882812 78.867188 43.234375 78.867188 C 45.792969 78.867188 48.351562 78.984375 50.867188 78.984375 L 59.773438 78.984375 C 60.746094 78.984375 62.175781 79.257812 63.03125 78.984375 C 63.683594 78.984375 63.652344 77.820312 63.652344 77.3125 C 63.652344 76.65625 62.644531 75.878906 62.40625 75.375 C 62.136719 74.828125 58.886719 73.121094 58.109375 73.898438 C 57.917969 74.089844 56.988281 74.324219 56.636719 74.441406 C 56.636719 74.480469 55.898438 74.636719 55.746094 74.671875 C 55.515625 74.75 55.167969 74.90625 54.96875 74.984375 C 54.429688 75.257812 53.773438 75.679688 53.074219 75.332031 C 51.992188 74.789062 53.035156 72.34375 53.808594 71.957031 C 54.042969 71.835938 54.546875 71.488281 54.621094 71.257812 C 54.621094 70.75 53.660156 68.578125 53.308594 68.230469 C 52.6875 67.609375 52.222656 66.40625 51.097656 66.40625 C 51.097656 66.363281 50.167969 66.09375 50.054688 66.054688 C 49.898438 65.976562 48.542969 65.863281 48.347656 65.863281 C 47.457031 65.863281 46.101562 65.746094 45.324219 65.976562 C 43.546875 66.5625 42.152344 67.21875 40.953125 68.65625 C 39.785156 70.988281 38.703125 74.945312 38.703125 77.585938 Z M 138.480469 94.890625 C 137.765625 94.890625 136.679688 95.097656 135.84375 94.890625 C 135.003906 94.683594 133.582031 94.34375 132.703125 94.34375 C 130.945312 94.34375 129.191406 93.210938 127.558594 93.210938 C 127.097656 93.210938 125.421875 93.589844 124.964844 93.796875 C 124.628906 93.796875 121.238281 95.433594 121.238281 94.390625 C 121.238281 93 121.558594 91.269531 121.738281 89.855469 C 122.253906 85.910156 121.796875 82.097656 121.21875 78.296875 C 121.164062 77.953125 121.070312 77.546875 121.070312 77.148438 C 121.019531 77.148438 120.765625 76.253906 120.765625 76.203125 C 120.765625 75.851562 120.519531 75.355469 120.519531 75.054688 C 120.519531 74.558594 120.070312 73.558594 119.871094 73.109375 C 119.773438 72.910156 119.726562 72.707031 119.476562 72.722656 C 119.476562 71.183594 120.96875 71.546875 122.257812 71.546875 C 123.707031 71.546875 124.515625 71.023438 124.515625 69.566406 C 124.515625 69.039062 123.828125 68.269531 123.300781 68.269531 C 123.226562 68.269531 122.660156 68.109375 122.578125 68.191406 C 122.21875 68.554688 119.960938 68.351562 119.375 68.265625 C 118.789062 68.265625 117.894531 67.851562 117.894531 67.183594 C 117.894531 66.390625 118.714844 65.589844 119.171875 64.925781 C 119.660156 64.695312 120.300781 64.234375 120.964844 64.078125 C 121.625 63.925781 122.550781 63.847656 123.1875 63.640625 C 123.925781 63.414062 126.738281 63.871094 126.917969 64.464844 C 127.121094 64.464844 127.378906 64.796875 127.582031 64.902344 C 127.65625 64.925781 127.734375 64.976562 127.785156 65.03125 C 127.863281 65.109375 128.066406 65.289062 128.140625 65.339844 C 128.273438 65.417969 128.449219 65.644531 128.476562 65.773438 C 128.476562 65.953125 128.910156 66.390625 129.0625 66.464844 C 129.289062 66.570312 129.726562 66.570312 130.007812 66.570312 C 130.515625 66.570312 131.160156 66.464844 131.363281 66.027344 C 131.488281 65.75 131.519531 65.441406 131.519531 65.054688 C 131.519531 64.695312 131.238281 63.820312 131.023438 63.605469 C 131.023438 63.019531 128.925781 61.40625 128.496094 61.191406 C 128.125 61.003906 127.449219 60.726562 127.011719 60.667969 C 127.011719 60.632812 126.707031 60.539062 126.707031 60.539062 C 126.707031 60.539062 126.242188 60.417969 126.214844 60.417969 C 125.9375 60.417969 125.566406 60.292969 125.257812 60.292969 C 124.671875 60.292969 123.964844 59.949219 123.472656 60.203125 C 123.132812 60.355469 122.300781 60.382812 121.902344 60.445312 C 120.851562 60.445312 119.835938 60.601562 118.730469 60.601562 L 115.089844 60.570312 C 114.007812 60.570312 112.902344 60.511719 111.761719 60.511719 C 110.867188 60.511719 108.738281 60.757812 107.96875 60.445312 C 107.96875 60.382812 107.535156 60.417969 107.535156 60.417969 C 107.507812 60.382812 107.292969 60.292969 107.226562 60.265625 C 107.078125 60.203125 106.894531 59.921875 106.894531 59.675781 C 106.894531 59.398438 107.324219 58.40625 107.445312 58.15625 C 108.003906 57.042969 109.695312 56.824219 110.742188 56.300781 C 111.085938 56.300781 111.574219 56.113281 112.066406 56.113281 C 112.53125 56.113281 113.113281 56.207031 113.363281 56.453125 C 113.609375 56.703125 114.964844 57.507812 114.964844 57.695312 C 114.964844 57.9375 115.210938 58.09375 115.367188 58.21875 C 115.394531 58.21875 116.074219 58.808594 116.320312 58.867188 C 116.722656 58.996094 117.0625 58.933594 117.335938 58.808594 C 118.109375 58.433594 117.863281 57.539062 117.863281 56.792969 C 117.863281 56.515625 117.460938 55.800781 117.296875 55.496094 C 117.296875 55.1875 116.832031 54.484375 116.601562 54.253906 C 116.40625 54.0625 115.632812 53.746094 115.632812 53.476562 C 115.632812 53.242188 115.980469 52.664062 116.09375 52.464844 C 117.179688 50.800781 118.496094 49.980469 120.550781 49.980469 C 121.363281 49.980469 122.175781 50.253906 122.835938 50.253906 C 123.335938 50.253906 124.035156 50.875 124.503906 50.875 C 125.3125 50.875 126.550781 52.273438 127.132812 52.972656 C 127.765625 53.703125 128.378906 54.320312 128.75 55.058594 C 129.179688 55.988281 130.351562 57.28125 131.210938 58.148438 C 131.582031 58.519531 133.308594 61.539062 133.308594 61.789062 C 133.921875 63.640625 134.789062 66.109375 135.710938 67.960938 C 136.632812 69.816406 138.113281 73.089844 138.113281 75.1875 C 138.113281 75.671875 138.851562 80.304688 139.011719 80.464844 C 139.417969 80.867188 139.253906 84.339844 139.253906 85.144531 C 139.253906 86.84375 139.011719 88.457031 139.011719 90.15625 C 139.011719 90.960938 138.851562 91.847656 138.851562 92.578125 C 138.851562 92.65625 138.527344 93.546875 138.449219 93.707031 C 138.449219 93.789062 138.207031 94.839844 138.207031 94.839844 M 38.347656 82.351562 L 47.066406 82.351562 C 48.925781 82.351562 50.925781 82.398438 52.78125 82.398438 C 53.070312 82.398438 55.304688 82.113281 55.304688 82.300781 C 55.589844 84.171875 54.785156 86.464844 55.261719 88.378906 C 55.261719 88.472656 55.449219 89.574219 55.449219 89.621094 C 55.304688 89.910156 53.6875 89.335938 53.640625 89.335938 C 52.832031 89.097656 51.449219 89.097656 50.542969 89.097656 C 48.78125 88.855469 46.496094 88.90625 44.6875 88.90625 C 42.542969 88.90625 40.542969 89.574219 38.445312 89.574219 C 37.925781 88.472656 37.925781 87.085938 37.925781 85.652344 C 37.925781 84.933594 37.6875 82.164062 38.347656 82.351562 Z M 80.921875 72.039062 C 83.351562 72.039062 85.945312 70.265625 88.316406 69.683594 C 89.195312 69.464844 89.777344 69.164062 90.65625 69.433594 C 91.125 69.578125 93.058594 71.152344 93.390625 71.152344 C 94.324219 71.152344 95.292969 70.738281 96.335938 70.738281 C 96.917969 70.738281 98.492188 72.816406 98.960938 73.28125 C 99.980469 74.308594 101.054688 75.195312 102.601562 75.195312 C 102.738281 76.082031 99.980469 76.136719 99.34375 76.136719 C 98.820312 76.136719 97.664062 75.695312 97.222656 75.417969 C 96.945312 75.253906 95.707031 73.867188 95.707031 73.867188 C 95.335938 73.867188 94.414062 73.621094 94.375 74.128906 C 94.296875 75.035156 92.628906 75.070312 91.707031 74.558594 C 90.878906 74.097656 90.550781 72.398438 89.96875 72.257812 C 88.207031 71.816406 85.476562 73.367188 83.714844 73.367188 C 82.9375 73.367188 82.058594 73.175781 81.367188 72.898438 C 81.203125 72.839844 80.652344 72.625 80.652344 72.425781 C 80.652344 72.148438 80.953125 72.039062 80.921875 72.039062 M 86.910156 84.808594 C 86.933594 84.808594 87.132812 84.558594 87.214844 84.53125 C 87.519531 84.398438 87.765625 84.398438 88.09375 84.363281 C 88.566406 84.308594 89.003906 84.253906 89.503906 84.253906 C 90.410156 84.253906 91.566406 83.644531 92.421875 83.453125 C 93.667969 83.144531 92.230469 82.984375 91.652344 82.785156 C 90.300781 82.34375 88.867188 81.84375 87.460938 81.625 C 86 81.402344 85.28125 83.230469 83.960938 83.339844 C 82.554688 83.339844 81.476562 82.320312 80.039062 83.035156 C 78.554688 83.78125 76.210938 84.335938 74.941406 85.390625 C 74.972656 85.667969 73.589844 87.359375 74.253906 87.359375 C 74.972656 87.359375 76.183594 86.609375 76.84375 86.386719 C 77.921875 86.027344 79.1875 86.277344 80.375 86.082031 C 81.175781 85.972656 81.890625 85.75 82.691406 85.75 C 83.492188 85.75 84.484375 86.441406 85.28125 86.441406 C 85.859375 86.585938 86.496094 86.585938 87.101562 86.585938 C 87.269531 86.585938 87.570312 86.636719 87.652344 86.554688 C 87.738281 86.472656 87.601562 86.25 87.542969 86.195312 C 87.460938 86.109375 87.542969 85.527344 87.4375 85.363281 C 87.378906 85.277344 86.992188 84.777344 86.910156 84.808594 Z M 81.375 105.195312 C 80.515625 105.195312 77.375 106.179688 76.265625 106.425781 C 71.453125 107.632812 63.640625 106.753906 59.203125 104.914062 C 55.425781 103.34375 53.003906 101.390625 51.625 101.179688 C 50.824219 102.789062 49.53125 103.773438 47.617188 104.386719 C 45.773438 105.003906 44.296875 106.859375 42.199219 106.550781 C 42.199219 105.996094 41.148438 104.265625 40.964844 103.402344 C 40.660156 102.105469 39.984375 100.316406 39.550781 98.957031 C 39.242188 98.027344 37.949219 92.65625 39.492188 92.902344 C 40.78125 93.09375 45.898438 92.902344 47.128906 92.535156 C 49.097656 91.921875 53.84375 92.472656 55.503906 93.273438 C 57.417969 93.582031 60.125 95.007812 61.601562 95.746094 C 63.390625 96.609375 65.855469 97.042969 67.640625 97.90625 C 70.167969 99.324219 72.261719 100.808594 74.847656 102.351562 C 76.699219 103.460938 79.46875 105.316406 81.375 105.195312 Z M 127.675781 117.472656 C 127.675781 118.378906 124.304688 118.75 123.1875 118.75 C 120.640625 118.75 117.945312 117.101562 115.925781 117.101562 C 112.335938 117.101562 109.789062 112.21875 106.722656 111.773438 C 106.722656 113.199219 99.167969 117.101562 97.519531 117.101562 C 94.230469 117.101562 88.839844 119.273438 85.398438 117.546875 C 83.902344 117.546875 82.183594 117.324219 80.984375 116.726562 C 79.488281 115.972656 77.394531 116.050781 75.820312 115.296875 C 74.921875 114.847656 74.398438 113.796875 73.503906 113.351562 C 72.753906 112.976562 70.808594 110.871094 69.796875 111.425781 C 69.796875 111.984375 66.164062 113.09375 65.671875 113.402344 C 64.3125 114.265625 61.726562 115.441406 60.1875 115.808594 C 57.75 116.394531 53.722656 117.890625 50.6875 117.988281 C 49.199219 118.03125 49.140625 117.707031 48.113281 116.675781 C 47.746094 116.304688 47.390625 114.722656 47.007812 114.207031 C 46.222656 113.152344 45.671875 112.070312 45.054688 111.070312 C 44.226562 109.726562 44.097656 109.601562 45.417969 109.164062 C 48.089844 108.28125 49.644531 106.660156 52.550781 105.128906 C 56.46875 108.570312 64.4375 109.535156 66.347656 110.132812 C 68.132812 110.132812 70.042969 110.5625 71.894531 110.5625 C 73.433594 110.5625 75.035156 110.253906 76.636719 110.253906 C 78.542969 109.945312 80.886719 108.714844 82.984375 108.21875 C 84.644531 107.84375 85.875 107.539062 87.476562 106.734375 C 87.972656 106.488281 89.574219 105.441406 89.574219 105.128906 C 89.820312 105.128906 90.003906 105.070312 90.25 105.070312 C 90.433594 105.070312 90.863281 105.253906 91.050781 105.316406 C 91.171875 105.378906 91.480469 105.808594 91.601562 105.808594 C 91.851562 105.871094 92.34375 106.367188 92.527344 106.550781 C 92.71875 106.734375 93.449219 107.105469 93.636719 107.105469 C 94.828125 108.101562 95.949219 107.949219 97.148438 108.550781 C 100.664062 110.273438 105.074219 110.578125 109.492188 110.578125 C 112.410156 110.578125 115.398438 109.226562 118.316406 109.226562 C 120.789062 109.226562 125.351562 106.152344 127 105.324219 C 128.570312 105.324219 129.839844 106.148438 131.1875 106.601562 C 132.164062 106.898438 133.585938 107.277344 134.632812 107.277344 C 133.832031 108.371094 133.574219 109.75 132.925781 110.730469 C 132.167969 111.890625 130.46875 113.851562 130.035156 115.160156 C 129.746094 116.066406 127.6875 116.96875 127.675781 117.472656 Z M 135.421875 104.066406 C 133.8125 104.066406 132.285156 103.453125 130.804688 102.84375 C 129.410156 102.273438 127.238281 100.574219 125.785156 100.859375 C 124.351562 103.726562 116.636719 106.425781 113.65625 106.425781 C 111.320312 106.425781 108.914062 106.734375 106.449219 106.734375 C 104.109375 106.734375 101.523438 105.375 99.367188 105.375 C 98.070312 105.375 96.53125 104.082031 95.230469 103.894531 C 95.230469 103.894531 93.289062 103.042969 92.890625 102.792969 C 92.097656 102.296875 91.097656 101.347656 90.253906 100.945312 C 88.5625 100.097656 88.324219 102.164062 86.871094 102.496094 C 82.1875 103.554688 75.882812 98.324219 75.171875 98.554688 C 75.71875 98.300781 81.441406 98.554688 82.238281 98.554688 C 85.425781 98.554688 88.8125 97.90625 91.949219 97.90625 C 93.488281 97.90625 95.433594 97.105469 96.976562 97.105469 C 97.324219 97.105469 100.957031 96.257812 100.957031 95.910156 C 107.695312 99.25 121.984375 100.074219 128.796875 96.703125 C 129.238281 96.703125 129.542969 97.074219 129.917969 97.222656 C 130.742188 97.597656 132.6875 97.75 133.734375 97.75 C 135.007812 97.75 136.351562 98.050781 137.546875 98.050781 C 137.410156 98.082031 137.007812 99.730469 136.972656 99.980469 C 136.894531 100.496094 135.425781 104.039062 135.425781 103.960938 M 89.644531 124.148438 C 88.6875 124.148438 87.207031 125.589844 86.335938 125.589844 C 85.203125 125.589844 83.289062 126.679688 81.757812 126.765625 C 78.929688 126.988281 75.578125 127.769531 72.921875 127.769531 C 71.394531 127.769531 69.347656 128.382812 67.78125 127.859375 C 66.664062 127.503906 65.292969 127.40625 63.957031 127.320312 C 61.871094 127.179688 59.914062 126.574219 57.890625 126.03125 C 56.308594 125.609375 54.832031 124.527344 53.625 122.554688 C 53.152344 121.773438 53.171875 121.101562 54.222656 120.882812 C 55.984375 120.515625 57.644531 119.648438 59.417969 119.304688 C 62.074219 118.785156 64.25 117.90625 66.734375 117.078125 C 67.910156 116.683594 69.085938 115.242188 70.046875 115.113281 C 70.589844 116.1875 75.082031 118.335938 76.28125 118.703125 C 78.53125 119.433594 81.875 121.058594 84.4375 121.058594 C 88.355469 122.367188 92.957031 120.796875 96.769531 120.796875 C 97.554688 120.691406 99.070312 120.324219 99.855469 120.0625 C 101.265625 119.589844 102.574219 119.328125 103.933594 118.648438 C 104.558594 118.335938 107.066406 116.34375 107.171875 116.34375 C 108.480469 116.550781 109.628906 117.703125 110.675781 118.230469 C 113.96875 119.851562 119.71875 122.050781 123.691406 122.050781 C 123.636719 122.417969 121.074219 124.882812 120.609375 125.089844 C 119.71875 125.511719 118.773438 125.925781 117.835938 126.242188 C 117.316406 126.398438 115.953125 127.132812 115.433594 127.132812 C 114.386719 127.972656 111.042969 128.128906 109.574219 128.128906 C 108.582031 128.128906 107.484375 128.078125 106.542969 128.078125 C 106.390625 128.078125 105.554688 128.128906 105.449219 128.078125 C 105.34375 128.023438 104.402344 127.917969 104.402344 127.917969 C 102.675781 127.917969 100.796875 126.976562 99.175781 126.976562 C 97.554688 126.976562 95.257812 126.554688 93.792969 126.085938 C 92.851562 125.769531 90.445312 124.304688 89.644531 124.148438 Z M 89.609375 127.839844 C 87.765625 128.140625 86.222656 129.738281 84.433594 129.738281 C 82.738281 129.738281 80.949219 130.386719 79.457031 130.386719 C 76.71875 130.386719 73.679688 131.332031 71.042969 131.332031 C 70.242188 131.332031 68.351562 131.78125 67.707031 131.480469 C 66.0625 130.683594 68.105469 132.53125 68.105469 132.53125 C 69.796875 133.128906 71.738281 133.425781 73.277344 134.175781 C 73.53125 134.277344 75.421875 134.875 75.769531 134.875 C 76.265625 134.875 77.066406 135.125 77.5625 135.226562 C 77.761719 135.226562 78.804688 135.476562 78.804688 135.570312 C 81.792969 135.570312 84.828125 136.371094 88.015625 136.371094 L 93.339844 136.371094 C 95.230469 136.371094 97.023438 135.675781 98.816406 135.675781 C 102.203125 135.675781 104.144531 134.226562 106.980469 133.277344 C 108.175781 132.878906 108.574219 132.726562 109.269531 132.03125 C 109.417969 131.882812 108.871094 131.78125 108.871094 131.78125 C 108.226562 131.78125 107.277344 131.679688 106.535156 131.679688 C 105.140625 131.183594 102.898438 131.480469 101.457031 131.035156 C 99.464844 130.386719 96.328125 130.980469 94.535156 130.085938 C 93.339844 129.484375 90.800781 127.839844 89.609375 127.839844 Z M 125.449219 74.945312 C 126.039062 74.480469 126.757812 74.003906 126.949219 74.003906 C 127.496094 74.003906 128.464844 73.78125 128.957031 73.53125 C 129.097656 73.480469 130.558594 73.0625 130.695312 73.0625 C 131.992188 72.871094 134.148438 71.761719 134.148438 74.03125 C 134.148438 74.535156 134.28125 75.277344 133.785156 75.445312 C 132.902344 75.722656 131.964844 76.386719 131 76.386719 C 129.816406 76.882812 127.523438 77.21875 126.203125 77.21875 C 125.621094 77.21875 125.402344 76.964844 124.988281 76.773438 C 124.769531 76.664062 124.628906 76.523438 124.546875 76.332031 C 124.546875 75.597656 124.804688 75.457031 125.449219 74.945312 Z M 126.035156 87.457031 C 126.542969 86.402344 128.734375 86.464844 129.90625 86.464844 C 130.953125 86.464844 132.035156 86.914062 133.085938 86.914062 C 133.71875 86.914062 135.464844 86.722656 135.464844 87.644531 C 135.464844 87.964844 135.65625 88.378906 135.65625 88.761719 C 135.65625 89.015625 134.957031 89.910156 134.796875 89.910156 C 134.035156 90.292969 132.574219 89.816406 131.746094 89.816406 C 130.324219 89.816406 128.386719 89.910156 127.144531 89.496094 C 126.730469 89.371094 126.289062 89.015625 126.003906 88.730469 C 125.902344 88.632812 125.8125 87.488281 126.035156 87.457031 Z M 86.023438 139.890625 C 76.582031 139.363281 67.023438 137.121094 59.363281 131.480469 C 55.398438 128.554688 51.496094 125.234375 49.375 122.953125 C 46.28125 119.617188 43.414062 115.980469 41.566406 112.15625 C 40.179688 109.277344 38.234375 106.527344 37.285156 102.714844 C 35.585938 95.894531 34.523438 89.949219 34.523438 82.867188 C 34.523438 79.242188 35.855469 75.132812 36.425781 71.511719 C 36.425781 69.980469 38.617188 67.027344 38.617188 65.210938 C 38.617188 62.925781 41.472656 60.632812 42.328125 58.914062 C 43.28125 57.007812 44.136719 54.429688 45.472656 52.902344 C 45.472656 52.425781 51.847656 45.9375 52.613281 45.175781 C 55.085938 42.695312 60.039062 40.019531 63.269531 38.398438 C 63.464844 38.398438 66.414062 36.96875 66.511719 36.875 C 67.082031 36.300781 68.886719 36.011719 69.558594 35.730469 C 69.839844 35.632812 71.175781 34.871094 71.460938 34.871094 C 72.414062 34.871094 73.367188 34.105469 74.308594 34.183594 C 75.113281 34.105469 76.324219 33.539062 77.046875 33.214844 C 78.738281 32.410156 83.332031 32.007812 85.429688 32.007812 C 87.359375 32.007812 89.453125 32.007812 91.390625 32.007812 C 93.324219 32.007812 95.097656 32.492188 97.03125 32.492188 C 98.726562 32.492188 100.980469 32.894531 102.347656 33.539062 C 102.589844 33.617188 104.285156 34.105469 104.527344 34.105469 C 105.085938 34.105469 106.132812 34.914062 106.539062 34.914062 C 109.683594 36.289062 112.742188 37.738281 115.480469 39.113281 C 116.253906 39.464844 118.148438 40.378906 119.847656 41.457031 C 122.921875 43.398438 125.902344 46.765625 128.488281 49.347656 C 130.867188 51.375 131.816406 53.761719 133.722656 55.667969 C 134.484375 56.433594 137.53125 62.0625 137.53125 62.730469 C 138.195312 64.734375 139.242188 66.546875 139.914062 68.550781 C 141.71875 74.183594 142.289062 78.855469 142.289062 85.4375 C 142.324219 87.117188 142.441406 88.628906 142.441406 90.265625 C 142.441406 91.078125 141.859375 96.210938 141.625 96.445312 C 141.507812 96.5625 141.394531 99.242188 141.160156 99.476562 C 140.8125 99.828125 140.230469 101.109375 140.230469 101.929688 C 139.761719 103.441406 138.246094 105.308594 138.246094 106.824219 C 138.246094 107.871094 137.320312 109.742188 136.738281 110.324219 C 136.160156 110.90625 134.910156 114.371094 134.410156 115.105469 C 131.265625 119.730469 125.203125 126.609375 120.328125 129.332031 C 119.988281 129.519531 119.375 130.117188 119.019531 130.46875 C 118.84375 130.640625 117.714844 131.519531 117.714844 131.519531 C 115.882812 133.09375 112.996094 134.230469 110.996094 135.191406 C 103.328125 139.035156 94.65625 140.371094 86.023438 139.890625 Z M 86.023438 139.890625 " fill-opacity="1" fill-rule="evenodd"/><path fill="#231f20" d="M 156.9375 113.0625 C 156.007812 113.964844 151.605469 113.160156 150.574219 112.628906 C 147.542969 111.070312 147.238281 108.441406 147.289062 105.5 C 147.332031 102.566406 150.625 100.394531 152.929688 100.058594 C 155.6875 99.664062 158.425781 99.664062 159.703125 103.425781 C 160.28125 105.117188 161.027344 109.890625 158.871094 110.558594 C 156.648438 111.246094 155.011719 110.738281 153.148438 109.597656 C 148.765625 106.90625 154.660156 102.285156 156.277344 105.71875 C 157.417969 108.152344 155.402344 107.152344 155.394531 107.867188 C 155.386719 108.648438 157.601562 108.488281 157.863281 108.234375 C 161.371094 104.828125 153.277344 99.375 150.089844 105.617188 C 148.816406 108.113281 151.78125 112.257812 154.523438 112.296875 C 155.367188 112.308594 156.675781 112.734375 156.9375 113.0625 " fill-opacity="1" fill-rule="evenodd"/><path fill="#231f20" d="M 27.382812 101.863281 C 26.460938 100.957031 21.582031 101.667969 20.542969 102.195312 C 17.503906 103.730469 17.660156 106.410156 17.6875 109.355469 C 17.6875 109.808594 20.734375 114.035156 20.988281 114.035156 C 24.4375 114.003906 28.40625 116.324219 30.085938 111.523438 C 30.679688 109.832031 31.917969 105.929688 29.761719 105.242188 C 27.546875 104.539062 25.445312 104.171875 23.574219 105.304688 C 19.171875 107.960938 25.035156 112.625 26.671875 109.203125 C 27.835938 106.78125 25.808594 107.769531 25.804688 107.046875 C 25.800781 106.265625 28.019531 106.441406 28.277344 106.699219 C 31.757812 110.132812 23.648438 115.519531 20.484375 109.261719 C 19.933594 108.167969 21.289062 104.21875 21.996094 103.882812 C 22.964844 103.421875 24.269531 103.003906 25.4375 102.996094 C 26.28125 102.992188 27.125 102.195312 27.382812 101.863281 " fill-opacity="1" fill-rule="evenodd"/><g clip-path="url(#d3016fa1d7)"><g clip-path="url(#a8326b9d16)"><path fill="#ebe1d8" d="M 6.8125 4.527344 L 169.484375 4.527344 L 169.484375 167.199219 L 6.8125 167.199219 Z M 6.8125 4.527344 " fill-opacity="1" fill-rule="nonzero"/></g></g><g clip-path="url(#424647a627)"><g clip-path="url(#f7c6418eac)"><path fill="#473c38" d="M 35.128906 31.980469 L 140.535156 31.980469 L 140.535156 138.621094 L 35.128906 138.621094 Z M 35.128906 31.980469 " fill-opacity="1" fill-rule="nonzero"/></g></g><g clip-path="url(#0fa6be1392)"><path fill="#ffffff" d="M 120.945312 57.777344 L 118.085938 49.855469 L 112.332031 51.933594 C 110.820312 49.394531 108.933594 47.4375 106.695312 45.792969 L 109.386719 40.105469 L 101.769531 36.542969 L 99 42.300781 C 96.300781 41.628906 93.449219 41.488281 90.527344 41.949219 L 88.339844 35.902344 L 80.421875 38.761719 L 82.605469 44.816406 C 80.335938 46.222656 78.144531 48.199219 76.5 50.4375 L 70.828125 47.734375 L 67.269531 55.355469 L 72.984375 57.972656 C 72.3125 60.667969 72.125 63.375 72.585938 66.292969 L 66.464844 68.507812 L 69.324219 76.425781 L 75.449219 74.214844 C 76.960938 76.757812 78.886719 78.824219 81.121094 80.46875 L 78.449219 86.21875 L 86.078125 89.808594 L 88.675781 84.128906 C 91.367188 84.796875 94.316406 84.921875 96.964844 84.554688 L 99.070312 90.382812 L 106.988281 87.519531 L 104.886719 81.695312 C 107.425781 80.183594 109.53125 78.246094 111.175781 76.007812 L 116.9375 78.675781 L 120.539062 71.046875 L 114.8125 68.300781 C 115.480469 65.605469 115.65625 62.777344 115.191406 59.855469 Z M 97.304688 72.109375 C 92.378906 73.890625 86.941406 71.335938 85.160156 66.410156 C 83.378906 61.480469 85.929688 56.042969 90.859375 54.265625 C 95.785156 52.484375 101.222656 55.035156 103.003906 59.964844 C 104.785156 64.890625 102.234375 70.328125 97.304688 72.109375 Z M 97.304688 72.109375 " fill-opacity="1" fill-rule="nonzero"/></g><g clip-path="url(#e92533da28)"><path fill="#ffffff" d="M 136 96.480469 L 136.394531 91.789062 L 133 91.5 C 132.832031 89.796875 132.320312 88.480469 131.570312 87.125 L 134.257812 84.898438 L 131.222656 81.332031 L 128.398438 83.601562 C 127.1875 82.632812 126.089844 81.929688 124.101562 81.449219 L 124.398438 77.945312 L 119.371094 77.519531 L 119.074219 81.027344 C 118.042969 81.25 116.277344 81.726562 114.921875 82.476562 L 112.804688 79.796875 L 109.289062 82.832031 L 111.609375 85.441406 C 110.644531 86.652344 109.957031 87.867188 109.507812 89.515625 L 105.890625 89.210938 L 105.496094 93.90625 L 109.109375 94.210938 C 109.25 96.246094 109.773438 97.394531 110.523438 98.75 L 107.828125 101.066406 L 110.855469 104.675781 L 113.242188 102.386719 C 114.453125 103.351562 116.109375 104.125 117.089844 104.519531 L 116.824219 107.691406 L 121.851562 108.113281 L 122.117188 104.945312 C 124.15625 104.804688 125.359375 104.285156 126.710938 103.535156 L 129.054688 106.234375 L 132.675781 103.207031 L 130.429688 100.429688 C 131.394531 99.222656 132.125 98.179688 132.601562 96.195312 Z M 120.671875 98.332031 C 117.757812 98.085938 115.597656 95.523438 115.84375 92.613281 C 116.089844 89.699219 118.648438 87.539062 121.5625 87.785156 C 124.476562 88.03125 126.636719 90.589844 126.390625 93.503906 C 126.144531 96.414062 123.585938 98.578125 120.671875 98.332031 Z M 120.671875 98.332031 " fill-opacity="1" fill-rule="nonzero"/></g><g clip-path="url(#b306ec6e34)"><path fill="#ffffff" d="M 82.253906 98.914062 L 82.253906 92.203125 L 77.546875 92.203125 C 77.109375 89.726562 76.230469 87.765625 75.007812 85.941406 L 78.535156 82.34375 L 73.832031 77.609375 L 69.980469 81.117188 C 68.15625 79.894531 66 79 63.527344 78.5625 L 63.527344 73.476562 L 56.816406 73.476562 L 56.816406 78.5625 C 54.695312 79 52.871094 79.878906 51.050781 81.101562 L 47.699219 77.570312 L 43.082031 82.277344 L 46.660156 85.941406 C 45.4375 87.765625 44.605469 89.726562 44.167969 92.203125 L 38.445312 92.203125 L 38.445312 98.914062 L 44.167969 98.914062 C 44.605469 101.035156 45.484375 103.046875 46.703125 104.867188 L 43.171875 108.316406 L 47.878906 112.976562 L 51.050781 109.425781 C 52.875 110.648438 54.695312 111.503906 56.816406 111.941406 L 56.816406 117.285156 L 63.527344 117.285156 L 63.527344 111.941406 C 66 111.503906 68.15625 110.625 69.976562 109.40625 L 73.667969 112.933594 L 78.453125 108.230469 L 74.96875 104.871094 C 76.1875 103.046875 77.109375 101.035156 77.546875 98.914062 Z M 60.96875 102.785156 C 56.832031 102.785156 53.476562 99.429688 53.476562 95.292969 C 53.476562 91.152344 56.832031 87.796875 60.96875 87.796875 C 65.109375 87.796875 68.464844 91.152344 68.464844 95.292969 C 68.464844 99.429688 65.109375 102.785156 60.96875 102.785156 Z M 60.96875 102.785156 " fill-opacity="1" fill-rule="nonzero"/></g><g clip-path="url(#54f4022caa)"><path fill="#7d7c7c" d="M 102.605469 113.636719 L 105.453125 113.828125 C 106.496094 113.898438 107.472656 113.382812 108 112.484375 L 109.609375 109.757812 C 109.671875 109.652344 109.703125 109.523438 109.695312 109.40625 L 109.597656 107.371094 C 109.582031 107.15625 109.460938 106.957031 109.273438 106.851562 C 109.082031 106.746094 108.851562 106.746094 108.660156 106.84375 L 105.953125 108.316406 C 105.398438 108.617188 104.695312 108.433594 104.355469 107.898438 L 104.320312 107.84375 C 104.144531 107.570312 104.089844 107.238281 104.160156 106.914062 C 104.238281 106.59375 104.433594 106.324219 104.714844 106.15625 L 107.15625 104.691406 C 107.359375 104.574219 107.472656 104.347656 107.464844 104.117188 C 107.453125 103.882812 107.3125 103.671875 107.101562 103.574219 C 104.765625 102.484375 102.382812 102.84375 100.011719 104.621094 C 99.414062 105.074219 99.027344 105.761719 98.941406 106.507812 L 98.605469 109.546875 L 94.210938 113.941406 L 89.941406 109.671875 C 90.074219 109.304688 90.152344 108.914062 90.152344 108.511719 C 90.152344 107.617188 89.808594 106.78125 89.175781 106.15625 C 89.140625 106.121094 89.089844 106.085938 89.050781 106.058594 L 83.953125 103.082031 C 83.707031 102.933594 83.390625 102.976562 83.183594 103.179688 L 80.765625 105.601562 C 80.570312 105.796875 80.527344 106.101562 80.652344 106.347656 L 83.480469 111.585938 C 83.507812 111.640625 83.542969 111.691406 83.59375 111.730469 C 84.238281 112.378906 85.097656 112.710938 85.949219 112.710938 C 86.34375 112.710938 86.734375 112.640625 87.109375 112.5 L 91.378906 116.765625 L 86.730469 121.414062 L 83.558594 121.863281 C 82.761719 121.976562 82.058594 122.433594 81.632812 123.109375 C 80.28125 125.210938 80.015625 127.382812 80.84375 129.550781 C 80.929688 129.769531 81.125 129.921875 81.355469 129.949219 C 81.589844 129.980469 81.820312 129.878906 81.953125 129.683594 L 83.683594 127.230469 C 84.140625 126.574219 85.027344 126.40625 85.703125 126.835938 C 86.371094 127.265625 86.582031 128.136719 86.1875 128.824219 L 84.851562 131.144531 C 84.738281 131.34375 84.738281 131.582031 84.851562 131.777344 C 84.964844 131.976562 85.175781 132.09375 85.398438 132.09375 L 87.128906 132.09375 C 87.261719 132.09375 87.390625 132.054688 87.496094 131.984375 L 89.957031 130.246094 C 90.738281 129.699219 91.179688 128.761719 91.117188 127.804688 L 90.941406 125.304688 L 95.425781 120.816406 L 98.128906 123.515625 L 97.039062 124.605469 C 96.792969 124.851562 96.792969 125.253906 97.039062 125.5 L 102.375 130.835938 C 103.191406 131.652344 104.257812 132.058594 105.328125 132.058594 C 106.398438 132.058594 107.464844 131.652344 108.28125 130.835938 C 109.914062 129.207031 109.914062 126.554688 108.28125 124.929688 L 102.945312 119.59375 C 102.699219 119.347656 102.296875 119.347656 102.050781 119.59375 L 100.960938 120.683594 L 98.261719 117.984375 Z M 99.652344 110.285156 C 99.75 110.183594 99.820312 110.050781 99.835938 109.902344 L 100.203125 106.640625 C 100.242188 106.242188 100.453125 105.867188 100.769531 105.628906 C 102.332031 104.453125 103.835938 104.011719 105.328125 104.304688 L 104.0625 105.066406 C 103.484375 105.410156 103.078125 105.964844 102.921875 106.621094 C 102.769531 107.273438 102.878906 107.949219 103.246094 108.519531 L 103.28125 108.574219 C 103.976562 109.664062 105.410156 110.03125 106.542969 109.417969 L 108.371094 108.425781 L 108.414062 109.265625 L 106.894531 111.832031 C 106.609375 112.316406 106.078125 112.589844 105.523438 112.554688 L 102.386719 112.351562 C 102.207031 112.335938 102.03125 112.40625 101.894531 112.535156 L 97.359375 117.089844 L 95.109375 114.832031 Z M 84.550781 110.894531 L 81.988281 106.164062 L 83.734375 104.417969 L 88.332031 107.097656 C 88.691406 107.484375 88.886719 107.976562 88.886719 108.503906 C 88.886719 109.058594 88.667969 109.574219 88.28125 109.96875 L 87.417969 110.832031 C 86.628906 111.625 85.359375 111.640625 84.550781 110.894531 Z M 89.84375 124.613281 C 89.71875 124.742188 89.648438 124.921875 89.660156 125.105469 L 89.859375 127.898438 C 89.894531 128.410156 89.652344 128.917969 89.230469 129.210938 L 86.941406 130.828125 L 86.503906 130.828125 L 87.292969 129.457031 C 88.023438 128.1875 87.628906 126.570312 86.390625 125.773438 C 85.148438 124.972656 83.507812 125.296875 82.65625 126.503906 L 81.703125 127.863281 C 81.496094 126.5 81.828125 125.15625 82.699219 123.796875 C 82.9375 123.433594 83.320312 123.1875 83.742188 123.125 L 87.117188 122.636719 C 87.25 122.617188 87.375 122.554688 87.472656 122.460938 L 92.269531 117.667969 L 94.527344 119.921875 Z M 102.492188 120.9375 L 107.382812 125.824219 C 108.511719 126.957031 108.511719 128.804688 107.382812 129.945312 C 106.25 131.074219 104.398438 131.074219 103.261719 129.945312 L 98.378906 125.050781 Z M 99.019531 122.617188 L 88.226562 111.816406 L 89.265625 110.777344 L 100.066406 121.574219 Z M 99.019531 122.617188 " fill-opacity="1" fill-rule="nonzero"/></g></svg>