<svg xmlns="http://www.w3.org/2000/svg" xmlns:xlink="http://www.w3.org/1999/xlink" width="522" zoomAndPan="magnify" viewBox="0 0 391.5 362.250002" height="483" preserveAspectRatio="xMidYMid meet" version="1.0"><defs><g/><clipPath id="591674338e"><path d="M 20.734375 0 L 370 0 L 370 348.652344 L 20.734375 348.652344 Z M 20.734375 0 " clip-rule="nonzero"/></clipPath><clipPath id="43b8139935"><path d="M 195.191406 0 C 98.839844 0 20.734375 78.046875 20.734375 174.328125 C 20.734375 270.605469 98.839844 348.652344 195.191406 348.652344 C 291.539062 348.652344 369.648438 270.605469 369.648438 174.328125 C 369.648438 78.046875 291.539062 0 195.191406 0 Z M 195.191406 0 " clip-rule="nonzero"/></clipPath><clipPath id="1371f70054"><path d="M 20.734375 0 L 369.511719 0 L 369.511719 348.777344 L 20.734375 348.777344 Z M 20.734375 0 " clip-rule="nonzero"/></clipPath><clipPath id="af89abb8b9"><path d="M 195.1875 0 C 98.839844 0 20.734375 78.046875 20.734375 174.324219 C 20.734375 270.601562 98.839844 348.648438 195.1875 348.648438 C 291.535156 348.648438 369.640625 270.601562 369.640625 174.324219 C 369.640625 78.046875 291.535156 0 195.1875 0 Z M 195.1875 0 " clip-rule="nonzero"/></clipPath><clipPath id="0e7aa7170d"><path d="M 81.117188 54.582031 L 307.03125 54.582031 L 307.03125 284 L 81.117188 284 Z M 81.117188 54.582031 " clip-rule="nonzero"/></clipPath><clipPath id="4114b2c39f"><path d="M 194.074219 54.582031 C 131.6875 54.582031 81.117188 105.835938 81.117188 169.0625 C 81.117188 232.289062 131.6875 283.542969 194.074219 283.542969 C 256.460938 283.542969 307.03125 232.289062 307.03125 169.0625 C 307.03125 105.835938 256.460938 54.582031 194.074219 54.582031 Z M 194.074219 54.582031 " clip-rule="nonzero"/></clipPath><clipPath id="cc753a24b2"><path d="M 150 68.1875 L 268 68.1875 L 268 185 L 150 185 Z M 150 68.1875 " clip-rule="nonzero"/></clipPath><clipPath id="b95fbf711e"><path d="M 233 157 L 300.527344 157 L 300.527344 223 L 233 223 Z M 233 157 " clip-rule="nonzero"/></clipPath><clipPath id="208e9c6619"><path d="M 90.210938 148 L 185 148 L 185 242.578125 L 90.210938 242.578125 Z M 90.210938 148 " clip-rule="nonzero"/></clipPath></defs><g clip-path="url(#591674338e)"><g clip-path="url(#43b8139935)"><path fill="#424642" d="M 20.734375 0 L 369.386719 0 L 369.386719 348.652344 L 20.734375 348.652344 Z M 20.734375 0 " fill-opacity="1" fill-rule="nonzero"/></g></g><g clip-path="url(#1371f70054)"><g clip-path="url(#af89abb8b9)"><path stroke-linecap="butt" transform="matrix(0.74845, 0, 0, 0.74845, 20.732948, 0.0015326)" fill="none" stroke-linejoin="miter" d="M 233.087663 -0.00204769 C 104.358147 -0.00204769 0.00190619 104.275906 0.00190619 232.911478 C 0.00190619 361.54705 104.358147 465.825004 233.087663 465.825004 C 361.817179 465.825004 466.17342 361.54705 466.17342 232.911478 C 466.17342 104.275906 361.817179 -0.00204769 233.087663 -0.00204769 Z M 233.087663 -0.00204769 " stroke="#000000" stroke-width="16" stroke-opacity="1" stroke-miterlimit="4"/></g></g><g clip-path="url(#0e7aa7170d)"><g clip-path="url(#4114b2c39f)"><path fill="#272829" d="M 81.117188 54.582031 L 307.03125 54.582031 L 307.03125 283.148438 L 81.117188 283.148438 Z M 81.117188 54.582031 " fill-opacity="1" fill-rule="nonzero"/></g></g><g clip-path="url(#cc753a24b2)"><path fill="#ffffff" d="M 267.046875 115.078125 L 260.914062 98.101562 L 248.582031 102.558594 C 245.34375 97.109375 241.300781 92.917969 236.5 89.390625 L 242.269531 77.203125 L 225.941406 69.570312 L 220.003906 81.902344 C 214.222656 80.464844 208.105469 80.164062 201.84375 81.15625 L 197.160156 68.1875 L 180.183594 74.320312 L 184.871094 87.292969 C 180.003906 90.316406 175.300781 94.550781 171.78125 99.34375 L 159.621094 93.558594 L 152 109.882812 L 164.242188 115.5 C 162.808594 121.273438 162.402344 127.074219 163.394531 133.332031 L 150.269531 138.074219 L 156.402344 155.050781 L 169.53125 150.308594 C 172.765625 155.757812 176.894531 160.1875 181.6875 163.710938 L 175.953125 176.039062 L 192.3125 183.738281 L 197.875 171.558594 C 203.648438 172.992188 209.96875 173.253906 215.640625 172.472656 L 220.15625 184.964844 L 237.132812 178.832031 L 232.621094 166.34375 C 238.066406 163.105469 242.578125 158.949219 246.101562 154.152344 L 258.453125 159.871094 L 266.167969 143.515625 L 253.898438 137.628906 C 255.332031 131.859375 255.703125 125.792969 254.707031 119.535156 Z M 216.375 145.796875 C 205.8125 149.609375 194.15625 144.140625 190.34375 133.582031 C 186.527344 123.019531 191.996094 111.363281 202.558594 107.550781 C 213.117188 103.734375 224.773438 109.203125 228.585938 119.765625 C 232.402344 130.324219 226.933594 141.980469 216.375 145.796875 Z M 216.375 145.796875 " fill-opacity="1" fill-rule="nonzero"/></g><g clip-path="url(#b95fbf711e)"><path fill="#ffffff" d="M 299.3125 198.035156 L 300.160156 187.976562 L 292.878906 187.359375 C 292.519531 183.710938 291.425781 180.890625 289.816406 177.984375 L 295.574219 173.210938 L 289.074219 165.5625 L 283.015625 170.429688 C 280.421875 168.355469 278.066406 166.847656 273.8125 165.820312 L 274.445312 158.308594 L 263.667969 157.394531 L 263.035156 164.914062 C 260.824219 165.390625 257.035156 166.40625 254.132812 168.015625 L 249.59375 162.269531 L 242.058594 168.78125 L 247.035156 174.375 C 244.960938 176.964844 243.492188 179.570312 242.527344 183.109375 L 234.777344 182.453125 L 233.929688 192.511719 L 241.679688 193.167969 C 241.976562 197.535156 243.101562 199.992188 244.707031 202.894531 L 238.925781 207.859375 L 245.421875 215.601562 L 250.53125 210.691406 C 253.125 212.765625 256.683594 214.417969 258.78125 215.261719 L 258.207031 222.058594 L 268.984375 222.96875 L 269.558594 216.171875 C 273.925781 215.875 276.5 214.757812 279.40625 213.152344 L 284.421875 218.9375 L 292.1875 212.445312 L 287.371094 206.5 C 289.441406 203.910156 291.003906 201.675781 292.027344 197.417969 Z M 266.457031 202 C 260.214844 201.472656 255.582031 195.984375 256.109375 189.742188 C 256.636719 183.5 262.125 178.867188 268.367188 179.394531 C 274.609375 179.921875 279.242188 185.410156 278.714844 191.652344 C 278.1875 197.894531 272.699219 202.527344 266.457031 202 Z M 266.457031 202 " fill-opacity="1" fill-rule="nonzero"/></g><g clip-path="url(#208e9c6619)"><path fill="#ffffff" d="M 184.109375 203.25 L 184.109375 188.863281 L 174.027344 188.863281 C 173.085938 183.5625 171.203125 179.351562 168.585938 175.441406 L 176.144531 167.738281 L 166.0625 157.585938 L 157.804688 165.105469 C 153.894531 162.484375 149.277344 160.570312 143.976562 159.625 L 143.976562 148.730469 L 129.589844 148.730469 L 129.589844 159.628906 C 125.046875 160.570312 121.136719 162.453125 117.234375 165.066406 L 110.050781 157.503906 L 100.15625 167.589844 L 107.820312 175.449219 C 105.207031 179.351562 103.421875 183.5625 102.476562 188.863281 L 90.214844 188.863281 L 90.214844 203.25 L 102.484375 203.25 C 103.421875 207.792969 105.300781 212.105469 107.914062 216.007812 L 100.347656 223.398438 L 110.433594 233.394531 L 117.234375 225.78125 C 121.140625 228.398438 125.046875 230.230469 129.589844 231.167969 L 129.589844 242.625 L 143.976562 242.625 L 143.976562 231.175781 C 149.277344 230.230469 153.894531 228.351562 157.800781 225.734375 L 165.710938 233.296875 L 175.964844 223.21875 L 168.496094 216.015625 C 171.113281 212.109375 173.085938 207.792969 174.023438 203.25 Z M 138.492188 211.546875 C 129.625 211.546875 122.433594 204.359375 122.433594 195.484375 C 122.433594 186.617188 129.625 179.425781 138.492188 179.425781 C 147.363281 179.425781 154.554688 186.617188 154.554688 195.484375 C 154.554688 204.359375 147.363281 211.546875 138.492188 211.546875 Z M 138.492188 211.546875 " fill-opacity="1" fill-rule="nonzero"/></g><g fill="#ffb000" fill-opacity="1"><g transform="translate(30.793162, 172.157333)"><g><path d="M 4.328125 9.234375 C 3.835938 9.285156 3.425781 9.359375 3.09375 9.453125 C 2.769531 9.554688 2.5 9.628906 2.28125 9.671875 C 1.988281 9.722656 1.785156 9.640625 1.671875 9.421875 C 1.554688 9.203125 1.425781 8.648438 1.28125 7.765625 L 0.953125 5.8125 C 0.742188 4.519531 0.585938 3.601562 0.484375 3.0625 C 0.378906 2.53125 0.421875 2.253906 0.609375 2.234375 C 0.753906 2.203125 1.066406 2.328125 1.546875 2.609375 C 2.035156 2.890625 2.707031 3.179688 3.5625 3.484375 C 4.476562 3.796875 5.273438 4.050781 5.953125 4.25 C 6.628906 4.445312 7.398438 4.632812 8.265625 4.8125 C 9.140625 5 10.296875 5.210938 11.734375 5.453125 C 13.179688 5.703125 15.101562 6.035156 17.5 6.453125 L 27.21875 8.15625 C 27.757812 8.21875 28.398438 8.273438 29.140625 8.328125 C 29.878906 8.378906 30.582031 8.363281 31.25 8.28125 C 31.769531 8.226562 32.195312 8.140625 32.53125 8.015625 C 32.875 7.898438 33.15625 7.828125 33.375 7.796875 C 33.65625 7.742188 33.835938 7.828125 33.921875 8.046875 C 34.015625 8.273438 34.125 8.75 34.25 9.46875 L 34.53125 11.21875 C 34.6875 12.144531 34.78125 12.925781 34.8125 13.5625 C 34.851562 14.195312 34.710938 14.769531 34.390625 15.28125 C 34.066406 15.800781 33.503906 16.363281 32.703125 16.96875 C 31.898438 17.570312 30.738281 18.300781 29.21875 19.15625 C 27.707031 20.007812 25.765625 21.082031 23.390625 22.375 L 11.546875 28.859375 C 11.054688 29.140625 10.484375 29.503906 9.828125 29.953125 C 9.171875 30.398438 8.546875 30.90625 7.953125 31.46875 C 7.359375 32 6.910156 32.441406 6.609375 32.796875 C 6.304688 33.160156 6.070312 33.359375 5.90625 33.390625 C 5.75 33.421875 5.613281 33.296875 5.5 33.015625 C 5.394531 32.734375 5.285156 32.25 5.171875 31.5625 C 5.097656 31.125 5.019531 30.601562 4.9375 30 C 4.851562 29.394531 4.742188 28.6875 4.609375 27.875 L 4.140625 25.046875 C 3.972656 24.054688 3.875 23.335938 3.84375 22.890625 C 3.820312 22.441406 3.878906 22.140625 4.015625 21.984375 C 4.160156 21.828125 4.410156 21.734375 4.765625 21.703125 C 5.128906 21.679688 5.613281 21.609375 6.21875 21.484375 C 6.851562 21.378906 7.503906 21.191406 8.171875 20.921875 C 8.847656 20.648438 9.425781 20.398438 9.90625 20.171875 L 10.78125 19.71875 C 11.09375 19.5625 11.296875 19.378906 11.390625 19.171875 C 11.484375 18.960938 11.488281 18.515625 11.40625 17.828125 C 11.320312 17.148438 11.148438 16.003906 10.890625 14.390625 C 10.628906 12.816406 10.425781 11.691406 10.28125 11.015625 C 10.132812 10.335938 9.992188 9.925781 9.859375 9.78125 C 9.722656 9.644531 9.5 9.554688 9.1875 9.515625 C 8.757812 9.453125 8.128906 9.359375 7.296875 9.234375 C 6.472656 9.109375 5.484375 9.109375 4.328125 9.234375 Z M 14.96875 13.71875 C 15.132812 14.757812 15.300781 15.488281 15.46875 15.90625 C 15.632812 16.332031 15.972656 16.503906 16.484375 16.421875 C 16.847656 16.359375 17.347656 16.171875 17.984375 15.859375 C 18.617188 15.554688 19.4375 15.132812 20.4375 14.59375 C 21.664062 13.957031 22.585938 13.460938 23.203125 13.109375 C 23.816406 12.765625 24.101562 12.484375 24.0625 12.265625 C 24.03125 12.066406 23.664062 11.890625 22.96875 11.734375 C 22.28125 11.578125 21.25 11.394531 19.875 11.1875 C 18.75 11 17.835938 10.859375 17.140625 10.765625 C 16.441406 10.679688 15.910156 10.671875 15.546875 10.734375 C 15.035156 10.816406 14.769531 11.085938 14.75 11.546875 C 14.726562 12.003906 14.800781 12.726562 14.96875 13.71875 Z M 14.96875 13.71875 "/></g></g></g><g fill="#ffb000" fill-opacity="1"><g transform="translate(39.832472, 217.61979)"><g><path d="M 7.484375 15.78125 L 4.28125 9.03125 C 3.875 8.175781 3.507812 7.429688 3.1875 6.796875 C 2.875 6.160156 2.617188 5.632812 2.421875 5.21875 C 2.140625 4.632812 1.972656 4.21875 1.921875 3.96875 C 1.878906 3.726562 1.953125 3.566406 2.140625 3.484375 C 2.335938 3.390625 2.65625 3.332031 3.09375 3.3125 C 3.53125 3.289062 4.09375 3.21875 4.78125 3.09375 C 5.5 2.945312 6.210938 2.75 6.921875 2.5 C 7.628906 2.25 8.207031 2.019531 8.65625 1.8125 L 25.09375 -5.984375 C 25.539062 -6.191406 26.082031 -6.488281 26.71875 -6.875 C 27.351562 -7.269531 27.96875 -7.707031 28.5625 -8.1875 C 29.082031 -8.632812 29.476562 -9.015625 29.75 -9.328125 C 30.03125 -9.648438 30.269531 -9.859375 30.46875 -9.953125 C 30.65625 -10.035156 30.828125 -9.976562 30.984375 -9.78125 C 31.148438 -9.59375 31.375 -9.207031 31.65625 -8.625 C 31.851562 -8.207031 32.09375 -7.679688 32.375 -7.046875 C 32.65625 -6.421875 33.003906 -5.664062 33.421875 -4.78125 L 36.625 1.96875 C 37.613281 4.050781 38.160156 6.132812 38.265625 8.21875 C 38.367188 10.300781 38.078125 12.289062 37.390625 14.1875 C 36.710938 16.082031 35.65625 17.800781 34.21875 19.34375 C 32.789062 20.882812 31.039062 22.148438 28.96875 23.140625 C 26.851562 24.140625 24.726562 24.703125 22.59375 24.828125 C 20.46875 24.953125 18.4375 24.679688 16.5 24.015625 C 14.570312 23.359375 12.828125 22.332031 11.265625 20.9375 C 9.710938 19.550781 8.453125 17.832031 7.484375 15.78125 Z M 32.875 3.703125 L 32.09375 2.078125 C 31.90625 1.679688 31.691406 1.398438 31.453125 1.234375 C 31.222656 1.078125 30.765625 1.101562 30.078125 1.3125 C 29.390625 1.53125 28.300781 1.976562 26.8125 2.65625 C 25.332031 3.34375 23.234375 4.332031 20.515625 5.625 C 17.816406 6.894531 15.726562 7.890625 14.25 8.609375 C 12.78125 9.328125 11.738281 9.890625 11.125 10.296875 C 10.519531 10.703125 10.203125 11.046875 10.171875 11.328125 C 10.148438 11.609375 10.234375 11.945312 10.421875 12.34375 L 11.203125 13.96875 C 11.722656 15.070312 12.671875 15.832031 14.046875 16.25 C 15.421875 16.664062 17.050781 16.75 18.9375 16.5 C 20.832031 16.257812 22.796875 15.660156 24.828125 14.703125 C 26.878906 13.734375 28.585938 12.597656 29.953125 11.296875 C 31.316406 9.992188 32.273438 8.675781 32.828125 7.34375 C 33.378906 6.019531 33.394531 4.804688 32.875 3.703125 Z M 32.875 3.703125 "/></g></g></g><g fill="#ffb000" fill-opacity="1"><g transform="translate(60.259282, 258.36238)"><g><path d="M 16.046875 2.4375 C 17.503906 -0.0820312 18.554688 -1.945312 19.203125 -3.15625 C 19.847656 -4.363281 20.101562 -5.039062 19.96875 -5.1875 C 19.882812 -5.269531 19.53125 -5.039062 18.90625 -4.5 C 18.28125 -3.96875 17.398438 -3.175781 16.265625 -2.125 L 11.21875 2.515625 C 10.84375 2.878906 10.425781 3.335938 9.96875 3.890625 C 9.507812 4.441406 9.125 5.015625 8.8125 5.609375 C 8.394531 6.347656 8.113281 6.921875 7.96875 7.328125 C 7.832031 7.742188 7.695312 7.96875 7.5625 8 C 7.4375 8.039062 7.1875 7.859375 6.8125 7.453125 C 6.59375 7.222656 6.332031 6.929688 6.03125 6.578125 C 5.738281 6.234375 5.351562 5.800781 4.875 5.28125 C 3.863281 4.195312 3.175781 3.46875 2.8125 3.09375 C 2.457031 2.71875 2.359375 2.457031 2.515625 2.3125 C 2.648438 2.1875 2.929688 2.0625 3.359375 1.9375 C 3.785156 1.820312 4.347656 1.59375 5.046875 1.25 C 5.710938 0.925781 6.332031 0.546875 6.90625 0.109375 C 7.488281 -0.316406 7.984375 -0.691406 8.390625 -1.015625 L 22.046875 -13.609375 C 22.410156 -13.984375 22.832031 -14.441406 23.3125 -14.984375 C 23.789062 -15.535156 24.203125 -16.117188 24.546875 -16.734375 C 25.015625 -17.492188 25.332031 -18.085938 25.5 -18.515625 C 25.675781 -18.953125 25.84375 -19.171875 26 -19.171875 C 26.164062 -19.171875 26.457031 -18.945312 26.875 -18.5 C 27.101562 -18.257812 27.398438 -17.925781 27.765625 -17.5 C 28.128906 -17.082031 28.570312 -16.59375 29.09375 -16.03125 C 29.875 -15.175781 30.503906 -14.441406 30.984375 -13.828125 C 31.472656 -13.222656 31.765625 -12.613281 31.859375 -12 C 31.960938 -11.382812 31.890625 -10.65625 31.640625 -9.8125 C 31.390625 -8.976562 30.9375 -7.90625 30.28125 -6.59375 C 29.632812 -5.289062 28.78125 -3.625 27.71875 -1.59375 C 26.375 0.925781 25.390625 2.847656 24.765625 4.171875 C 24.148438 5.503906 24.007812 6.347656 24.34375 6.703125 C 24.675781 7.066406 25.523438 6.992188 26.890625 6.484375 C 28.265625 5.972656 30.265625 5.148438 32.890625 4.015625 C 35.003906 3.128906 36.738281 2.410156 38.09375 1.859375 C 39.445312 1.316406 40.546875 0.945312 41.390625 0.75 C 42.242188 0.5625 42.972656 0.546875 43.578125 0.703125 C 44.179688 0.859375 44.75 1.1875 45.28125 1.6875 C 45.820312 2.1875 46.484375 2.859375 47.265625 3.703125 C 48.390625 4.921875 49.164062 5.738281 49.59375 6.15625 C 50.019531 6.570312 50.132812 6.875 49.9375 7.0625 C 49.800781 7.1875 49.515625 7.320312 49.078125 7.46875 C 48.640625 7.613281 48.0625 7.859375 47.34375 8.203125 C 46.664062 8.515625 46.035156 8.894531 45.453125 9.34375 C 44.867188 9.800781 44.394531 10.195312 44.03125 10.53125 L 30.28125 23.203125 C 29.914062 23.585938 29.503906 24.050781 29.046875 24.59375 C 28.585938 25.144531 28.203125 25.71875 27.890625 26.3125 C 27.578125 26.84375 27.335938 27.289062 27.171875 27.65625 C 27.003906 28.019531 26.859375 28.265625 26.734375 28.390625 C 26.597656 28.515625 26.429688 28.519531 26.234375 28.40625 C 26.046875 28.289062 25.742188 28.003906 25.328125 27.546875 C 25.023438 27.222656 24.648438 26.8125 24.203125 26.3125 C 23.765625 25.8125 23.222656 25.207031 22.578125 24.5 C 21.929688 23.800781 21.375 23.207031 20.90625 22.71875 C 20.4375 22.226562 20.054688 21.828125 19.765625 21.515625 C 19.367188 21.085938 19.117188 20.769531 19.015625 20.5625 C 18.921875 20.363281 18.941406 20.203125 19.078125 20.078125 C 19.234375 19.929688 19.5 19.789062 19.875 19.65625 C 20.25 19.519531 20.742188 19.3125 21.359375 19.03125 C 22.023438 18.707031 22.648438 18.328125 23.234375 17.890625 C 23.816406 17.460938 24.300781 17.097656 24.6875 16.796875 L 29.625 12.25 C 30.757812 11.195312 31.613281 10.394531 32.1875 9.84375 C 32.769531 9.289062 33.007812 8.957031 32.90625 8.84375 C 32.78125 8.707031 32.082031 8.90625 30.8125 9.4375 C 29.550781 9.976562 27.59375 10.863281 24.9375 12.09375 C 22.539062 13.21875 20.660156 14.070312 19.296875 14.65625 C 17.941406 15.238281 16.914062 15.59375 16.21875 15.71875 C 15.519531 15.851562 14.953125 15.773438 14.515625 15.484375 C 14.078125 15.191406 13.578125 14.742188 13.015625 14.140625 C 12.453125 13.523438 12.050781 12.992188 11.8125 12.546875 C 11.582031 12.109375 11.550781 11.539062 11.71875 10.84375 C 11.894531 10.15625 12.332031 9.15625 13.03125 7.84375 C 13.726562 6.539062 14.734375 4.738281 16.046875 2.4375 Z M 16.046875 2.4375 "/></g></g></g><g fill="#ffb000" fill-opacity="1"><g transform="translate(97.664809, 295.052646)"><g><path d="M 25.453125 -13.546875 L 15.5 1.703125 C 15.238281 2.117188 14.925781 2.65625 14.5625 3.3125 C 14.207031 3.96875 13.925781 4.648438 13.71875 5.359375 C 13.53125 6.054688 13.394531 6.613281 13.3125 7.03125 C 13.226562 7.457031 13.128906 7.765625 13.015625 7.953125 C 12.898438 8.117188 12.726562 8.164062 12.5 8.09375 C 12.28125 8.03125 11.910156 7.832031 11.390625 7.5 C 11.035156 7.269531 10.585938 6.960938 10.046875 6.578125 C 9.503906 6.203125 8.84375 5.765625 8.0625 5.265625 C 7.289062 4.753906 6.625 4.328125 6.0625 3.984375 C 5.5 3.640625 5.039062 3.351562 4.6875 3.125 C 4.195312 2.800781 3.863281 2.539062 3.6875 2.34375 C 3.519531 2.15625 3.492188 1.976562 3.609375 1.8125 C 3.722656 1.625 3.957031 1.410156 4.3125 1.171875 C 4.675781 0.929688 5.140625 0.582031 5.703125 0.125 C 6.253906 -0.351562 6.769531 -0.882812 7.25 -1.46875 C 7.726562 -2.050781 8.097656 -2.550781 8.359375 -2.96875 L 18.3125 -18.21875 C 18.570312 -18.625 18.867188 -19.15625 19.203125 -19.8125 C 19.546875 -20.476562 19.828125 -21.164062 20.046875 -21.875 C 20.242188 -22.570312 20.375 -23.128906 20.4375 -23.546875 C 20.507812 -23.960938 20.609375 -24.265625 20.734375 -24.453125 C 20.847656 -24.617188 21.023438 -24.660156 21.265625 -24.578125 C 21.503906 -24.492188 21.867188 -24.289062 22.359375 -23.96875 C 22.710938 -23.738281 23.160156 -23.4375 23.703125 -23.0625 C 24.253906 -22.695312 24.914062 -22.257812 25.6875 -21.75 C 26.46875 -21.25 27.132812 -20.820312 27.6875 -20.46875 C 28.25 -20.113281 28.707031 -19.820312 29.0625 -19.59375 C 29.582031 -19.257812 29.921875 -19.003906 30.078125 -18.828125 C 30.234375 -18.648438 30.253906 -18.476562 30.140625 -18.3125 C 30.015625 -18.125 29.78125 -17.910156 29.4375 -17.671875 C 29.09375 -17.441406 28.632812 -17.097656 28.0625 -16.640625 C 27.5 -16.160156 26.988281 -15.625 26.53125 -15.03125 C 26.070312 -14.445312 25.710938 -13.953125 25.453125 -13.546875 Z M 25.453125 -13.546875 "/></g></g></g><g fill="#ffb000" fill-opacity="1"><g transform="translate(121.591257, 310.524336)"><g><path d="M 10.34375 0.984375 C 10.320312 1.828125 10.332031 2.457031 10.375 2.875 C 10.414062 3.300781 10.394531 3.5625 10.3125 3.65625 C 10.226562 3.757812 9.941406 3.722656 9.453125 3.546875 C 9.160156 3.441406 8.789062 3.296875 8.34375 3.109375 C 7.90625 2.929688 7.359375 2.722656 6.703125 2.484375 C 5.335938 1.972656 4.40625 1.632812 3.90625 1.46875 C 3.414062 1.3125 3.207031 1.128906 3.28125 0.921875 C 3.34375 0.753906 3.535156 0.523438 3.859375 0.234375 C 4.191406 -0.0546875 4.585938 -0.53125 5.046875 -1.1875 C 5.492188 -1.769531 5.878906 -2.382812 6.203125 -3.03125 C 6.535156 -3.675781 6.796875 -4.222656 6.984375 -4.671875 L 13.453125 -22.140625 C 13.609375 -22.640625 13.769531 -23.242188 13.9375 -23.953125 C 14.113281 -24.660156 14.21875 -25.363281 14.25 -26.0625 C 14.320312 -26.957031 14.328125 -27.632812 14.265625 -28.09375 C 14.210938 -28.5625 14.257812 -28.832031 14.40625 -28.90625 C 14.550781 -28.988281 14.925781 -28.921875 15.53125 -28.703125 C 15.84375 -28.585938 16.257812 -28.421875 16.78125 -28.203125 C 17.3125 -27.992188 17.953125 -27.75 18.703125 -27.46875 C 19.828125 -27.050781 20.75 -26.679688 21.46875 -26.359375 C 22.1875 -26.035156 22.773438 -25.613281 23.234375 -25.09375 C 23.691406 -24.570312 24.082031 -23.863281 24.40625 -22.96875 C 24.726562 -22.082031 25.046875 -20.890625 25.359375 -19.390625 C 25.679688 -17.898438 26.066406 -15.984375 26.515625 -13.640625 C 27.160156 -10.410156 27.648438 -8.03125 27.984375 -6.5 C 28.316406 -4.976562 28.640625 -4.15625 28.953125 -4.03125 C 29.210938 -3.9375 29.503906 -4.257812 29.828125 -5 C 30.148438 -5.75 30.578125 -6.84375 31.109375 -8.28125 L 33.5 -14.734375 C 33.65625 -15.234375 33.820312 -15.832031 34 -16.53125 C 34.175781 -17.238281 34.28125 -17.941406 34.3125 -18.640625 C 34.375 -19.535156 34.378906 -20.21875 34.328125 -20.6875 C 34.273438 -21.15625 34.296875 -21.4375 34.390625 -21.53125 C 34.484375 -21.625 34.78125 -21.578125 35.28125 -21.390625 C 35.5625 -21.285156 35.914062 -21.144531 36.34375 -20.96875 C 36.78125 -20.789062 37.3125 -20.585938 37.9375 -20.359375 C 39.289062 -19.859375 40.21875 -19.53125 40.71875 -19.375 C 41.21875 -19.21875 41.425781 -19.03125 41.34375 -18.8125 C 41.28125 -18.632812 41.09375 -18.390625 40.78125 -18.078125 C 40.46875 -17.765625 40.0625 -17.285156 39.5625 -16.640625 C 39.101562 -16.015625 38.71875 -15.363281 38.40625 -14.6875 C 38.09375 -14.019531 37.847656 -13.457031 37.671875 -13 L 33.296875 -1.15625 C 32.421875 1.207031 31.691406 3.128906 31.109375 4.609375 C 30.523438 6.097656 30.023438 7.242188 29.609375 8.046875 C 29.203125 8.847656 28.796875 9.378906 28.390625 9.640625 C 27.984375 9.898438 27.535156 9.976562 27.046875 9.875 C 26.554688 9.78125 25.9375 9.59375 25.1875 9.3125 C 24.476562 9.050781 23.875 8.785156 23.375 8.515625 C 22.875 8.253906 22.460938 7.878906 22.140625 7.390625 C 21.816406 6.910156 21.507812 6.195312 21.21875 5.25 C 20.925781 4.3125 20.617188 3.019531 20.296875 1.375 C 19.972656 -0.257812 19.566406 -2.363281 19.078125 -4.9375 C 18.441406 -8.4375 17.941406 -11.023438 17.578125 -12.703125 C 17.210938 -14.390625 16.84375 -15.300781 16.46875 -15.4375 C 16.175781 -15.539062 15.832031 -15.144531 15.4375 -14.25 C 15.050781 -13.363281 14.535156 -12.054688 13.890625 -10.328125 L 11.125 -2.859375 C 10.945312 -2.367188 10.773438 -1.773438 10.609375 -1.078125 C 10.453125 -0.390625 10.363281 0.296875 10.34375 0.984375 Z M 10.34375 0.984375 "/></g></g></g><g fill="#ffb000" fill-opacity="1"><g transform="translate(164.219951, 324.223135)"><g/></g></g><g fill="#ffb000" fill-opacity="1"><g transform="translate(192.311066, 327.671945)"><g><path d="M 14.125 -4.1875 C 14.394531 -3.539062 14.628906 -3.023438 14.828125 -2.640625 C 15.035156 -2.253906 15.148438 -1.953125 15.171875 -1.734375 C 15.179688 -1.523438 15.070312 -1.378906 14.84375 -1.296875 C 14.625 -1.210938 14.207031 -1.144531 13.59375 -1.09375 C 13.164062 -1.0625 12.625 -1.023438 11.96875 -0.984375 C 11.3125 -0.941406 10.519531 -0.882812 9.59375 -0.8125 C 8.675781 -0.726562 7.890625 -0.648438 7.234375 -0.578125 C 6.578125 -0.515625 6.035156 -0.460938 5.609375 -0.421875 C 5.023438 -0.367188 4.609375 -0.363281 4.359375 -0.40625 C 4.109375 -0.457031 3.976562 -0.585938 3.96875 -0.796875 C 3.945312 -1.015625 4 -1.328125 4.125 -1.734375 C 4.257812 -2.148438 4.410156 -2.703125 4.578125 -3.390625 C 4.722656 -4.117188 4.800781 -4.859375 4.8125 -5.609375 C 4.832031 -6.367188 4.820312 -6.988281 4.78125 -7.46875 L 3.265625 -25.609375 C 3.222656 -26.097656 3.128906 -26.707031 2.984375 -27.4375 C 2.847656 -28.175781 2.644531 -28.882812 2.375 -29.5625 C 2.132812 -30.15625 1.921875 -30.632812 1.734375 -31 C 1.546875 -31.375 1.441406 -31.671875 1.421875 -31.890625 C 1.398438 -32.140625 1.546875 -32.320312 1.859375 -32.4375 C 2.179688 -32.550781 2.773438 -32.644531 3.640625 -32.71875 C 4.210938 -32.769531 4.921875 -32.820312 5.765625 -32.875 C 6.609375 -32.925781 7.609375 -33.003906 8.765625 -33.109375 L 17.765625 -33.859375 C 19.765625 -34.023438 21.617188 -33.6875 23.328125 -32.84375 C 25.035156 -32 26.4375 -30.800781 27.53125 -29.25 C 28.625 -27.695312 29.257812 -25.90625 29.4375 -23.875 C 29.601562 -21.894531 29.273438 -20.035156 28.453125 -18.296875 C 27.628906 -16.554688 26.445312 -15.128906 24.90625 -14.015625 C 23.363281 -12.898438 21.59375 -12.257812 19.59375 -12.09375 L 16.296875 -11.8125 C 15.203125 -11.71875 14.425781 -11.628906 13.96875 -11.546875 C 13.507812 -11.472656 13.242188 -11.316406 13.171875 -11.078125 C 13.109375 -10.835938 13.097656 -10.425781 13.140625 -9.84375 L 13.28125 -8.1875 C 13.320312 -7.707031 13.398438 -7.09375 13.515625 -6.34375 C 13.640625 -5.59375 13.84375 -4.875 14.125 -4.1875 Z M 15.6875 -29.53125 L 13.5625 -29.359375 C 13.050781 -29.304688 12.660156 -29.226562 12.390625 -29.125 C 12.128906 -29.03125 11.953125 -28.773438 11.859375 -28.359375 C 11.765625 -27.953125 11.742188 -27.285156 11.796875 -26.359375 C 11.847656 -25.429688 11.945312 -24.117188 12.09375 -22.421875 C 12.226562 -20.742188 12.347656 -19.4375 12.453125 -18.5 C 12.554688 -17.5625 12.6875 -16.898438 12.84375 -16.515625 C 13.007812 -16.140625 13.234375 -15.921875 13.515625 -15.859375 C 13.796875 -15.804688 14.191406 -15.804688 14.703125 -15.859375 L 16.828125 -16.03125 C 17.535156 -16.09375 18.148438 -16.453125 18.671875 -17.109375 C 19.203125 -17.765625 19.59375 -18.617188 19.84375 -19.671875 C 20.101562 -20.734375 20.179688 -21.875 20.078125 -23.09375 C 19.972656 -24.351562 19.707031 -25.472656 19.28125 -26.453125 C 18.851562 -27.429688 18.320312 -28.203125 17.6875 -28.765625 C 17.0625 -29.335938 16.394531 -29.59375 15.6875 -29.53125 Z M 15.6875 -29.53125 "/></g></g></g><g fill="#ffb000" fill-opacity="1"><g transform="translate(235.059812, 322.940436)"><g><path d="M 17.359375 -5.640625 C 15.203125 -4.835938 13.03125 -4.492188 10.84375 -4.609375 C 8.65625 -4.734375 6.578125 -5.253906 4.609375 -6.171875 C 2.640625 -7.097656 0.898438 -8.363281 -0.609375 -9.96875 C -2.128906 -11.582031 -3.300781 -13.484375 -4.125 -15.671875 C -4.9375 -17.859375 -5.296875 -20.054688 -5.203125 -22.265625 C -5.117188 -24.484375 -4.632812 -26.582031 -3.75 -28.5625 C -2.863281 -30.550781 -1.628906 -32.304688 -0.046875 -33.828125 C 1.535156 -35.359375 3.40625 -36.523438 5.5625 -37.328125 C 7.71875 -38.128906 9.878906 -38.46875 12.046875 -38.34375 C 14.222656 -38.21875 16.300781 -37.695312 18.28125 -36.78125 C 20.269531 -35.863281 22.019531 -34.597656 23.53125 -32.984375 C 25.050781 -31.378906 26.21875 -29.484375 27.03125 -27.296875 C 27.851562 -25.109375 28.21875 -22.90625 28.125 -20.6875 C 28.039062 -18.476562 27.546875 -16.378906 26.640625 -14.390625 C 25.742188 -12.398438 24.507812 -10.644531 22.9375 -9.125 C 21.375 -7.601562 19.515625 -6.441406 17.359375 -5.640625 Z M 7.15625 -33.046875 C 5.914062 -32.585938 4.972656 -31.648438 4.328125 -30.234375 C 3.679688 -28.816406 3.378906 -27.113281 3.421875 -25.125 C 3.472656 -23.132812 3.894531 -21.078125 4.6875 -18.953125 C 5.488281 -16.828125 6.515625 -15 7.765625 -13.46875 C 9.023438 -11.9375 10.363281 -10.847656 11.78125 -10.203125 C 13.195312 -9.554688 14.523438 -9.460938 15.765625 -9.921875 C 17.035156 -10.390625 17.988281 -11.328125 18.625 -12.734375 C 19.257812 -14.148438 19.550781 -15.851562 19.5 -17.84375 C 19.457031 -19.832031 19.035156 -21.890625 18.234375 -24.015625 C 17.441406 -26.140625 16.414062 -27.96875 15.15625 -29.5 C 13.90625 -31.03125 12.578125 -32.117188 11.171875 -32.765625 C 9.765625 -33.421875 8.425781 -33.515625 7.15625 -33.046875 Z M 7.15625 -33.046875 "/></g></g></g><g fill="#ffb000" fill-opacity="1"><g transform="translate(278.253535, 305.224612)"><g><path d="M 9.796875 -11 C 10.367188 -10.59375 10.84375 -10.273438 11.21875 -10.046875 C 11.59375 -9.828125 11.847656 -9.628906 11.984375 -9.453125 C 12.109375 -9.285156 12.09375 -9.109375 11.9375 -8.921875 C 11.789062 -8.742188 11.472656 -8.46875 10.984375 -8.09375 C 10.640625 -7.84375 10.195312 -7.523438 9.65625 -7.140625 C 9.113281 -6.753906 8.472656 -6.285156 7.734375 -5.734375 C 6.992188 -5.191406 6.363281 -4.71875 5.84375 -4.3125 C 5.320312 -3.90625 4.890625 -3.578125 4.546875 -3.328125 C 4.078125 -2.972656 3.722656 -2.742188 3.484375 -2.640625 C 3.253906 -2.546875 3.078125 -2.582031 2.953125 -2.75 C 2.816406 -2.925781 2.695312 -3.222656 2.59375 -3.640625 C 2.488281 -4.066406 2.328125 -4.617188 2.109375 -5.296875 C 1.828125 -5.972656 1.492188 -6.632812 1.109375 -7.28125 C 0.722656 -7.925781 0.382812 -8.445312 0.09375 -8.84375 L -10.75 -23.453125 C -11.039062 -23.847656 -11.4375 -24.316406 -11.9375 -24.859375 C -12.445312 -25.410156 -12.992188 -25.929688 -13.578125 -26.421875 C -14.109375 -26.796875 -14.539062 -27.082031 -14.875 -27.28125 C -15.21875 -27.488281 -15.457031 -27.679688 -15.59375 -27.859375 C -15.757812 -28.078125 -15.722656 -28.316406 -15.484375 -28.578125 C -15.253906 -28.835938 -14.78125 -29.234375 -14.0625 -29.765625 C -13.570312 -30.128906 -12.976562 -30.5625 -12.28125 -31.0625 C -11.59375 -31.570312 -10.753906 -32.191406 -9.765625 -32.921875 L -2.28125 -38.46875 C -0.851562 -39.53125 0.695312 -40.140625 2.375 -40.296875 C 4.0625 -40.460938 5.6875 -40.210938 7.25 -39.546875 C 8.8125 -38.890625 10.128906 -37.835938 11.203125 -36.390625 C 11.773438 -35.628906 12.210938 -34.820312 12.515625 -33.96875 C 12.816406 -33.125 13.015625 -32.28125 13.109375 -31.4375 C 13.210938 -30.3125 13.25 -29.40625 13.21875 -28.71875 C 13.195312 -28.039062 13.195312 -27.488281 13.21875 -27.0625 C 13.25 -26.644531 13.382812 -26.28125 13.625 -25.96875 C 13.9375 -25.539062 14.703125 -24.992188 15.921875 -24.328125 L 19.703125 -22.3125 C 20.296875 -22.03125 20.957031 -21.742188 21.6875 -21.453125 C 22.414062 -21.171875 23.160156 -20.929688 23.921875 -20.734375 C 25.253906 -20.441406 26.117188 -20.257812 26.515625 -20.1875 C 26.910156 -20.113281 26.703125 -19.773438 25.890625 -19.171875 C 25.515625 -18.898438 25.023438 -18.546875 24.421875 -18.109375 C 23.828125 -17.679688 23.070312 -17.128906 22.15625 -16.453125 C 20.695312 -15.367188 19.617188 -14.585938 18.921875 -14.109375 C 18.222656 -13.640625 17.710938 -13.390625 17.390625 -13.359375 C 17.066406 -13.328125 16.78125 -13.476562 16.53125 -13.8125 C 16.289062 -14.144531 15.878906 -14.570312 15.296875 -15.09375 C 14.785156 -15.59375 14.191406 -16.0625 13.515625 -16.5 C 12.847656 -16.9375 12.269531 -17.28125 11.78125 -17.53125 L 8.9375 -19.03125 C 7.976562 -19.539062 7.285156 -19.890625 6.859375 -20.078125 C 6.441406 -20.265625 6.101562 -20.3125 5.84375 -20.21875 C 5.59375 -20.125 5.242188 -19.914062 4.796875 -19.59375 C 4.378906 -19.28125 4.097656 -19.019531 3.953125 -18.8125 C 3.816406 -18.613281 3.847656 -18.335938 4.046875 -17.984375 C 4.253906 -17.640625 4.648438 -17.070312 5.234375 -16.28125 L 6.96875 -13.953125 C 7.257812 -13.554688 7.648438 -13.078125 8.140625 -12.515625 C 8.640625 -11.953125 9.191406 -11.445312 9.796875 -11 Z M -2.234375 -33.359375 L -3.9375 -32.09375 C -4.351562 -31.78125 -4.648438 -31.515625 -4.828125 -31.296875 C -5.003906 -31.085938 -5.046875 -30.804688 -4.953125 -30.453125 C -4.859375 -30.109375 -4.59375 -29.617188 -4.15625 -28.984375 C -3.71875 -28.359375 -3.085938 -27.492188 -2.265625 -26.390625 C -1.429688 -25.273438 -0.78125 -24.421875 -0.3125 -23.828125 C 0.144531 -23.242188 0.523438 -22.851562 0.828125 -22.65625 C 1.140625 -22.457031 1.421875 -22.414062 1.671875 -22.53125 C 1.929688 -22.644531 2.269531 -22.859375 2.6875 -23.171875 L 4.390625 -24.4375 C 5.109375 -24.96875 5.382812 -25.851562 5.21875 -27.09375 C 5.0625 -28.34375 4.535156 -29.570312 3.640625 -30.78125 C 2.722656 -32.007812 1.691406 -32.878906 0.546875 -33.390625 C -0.585938 -33.898438 -1.515625 -33.890625 -2.234375 -33.359375 Z M -2.234375 -33.359375 "/></g></g></g><g fill="#ffb000" fill-opacity="1"><g transform="translate(313.712187, 276.915037)"><g><path d="M -18.171875 -17.96875 C -17.953125 -16.78125 -17.765625 -15.953125 -17.609375 -15.484375 C -17.460938 -15.015625 -17.617188 -14.960938 -18.078125 -15.328125 C -18.296875 -15.492188 -18.597656 -15.753906 -18.984375 -16.109375 C -19.367188 -16.472656 -19.882812 -16.929688 -20.53125 -17.484375 C -21.332031 -18.203125 -21.953125 -18.816406 -22.390625 -19.328125 C -22.828125 -19.847656 -23.046875 -20.40625 -23.046875 -21 C -23.054688 -21.59375 -22.8125 -22.332031 -22.3125 -23.21875 C -21.820312 -24.113281 -21.023438 -25.285156 -19.921875 -26.734375 C -18.828125 -28.179688 -17.394531 -30.03125 -15.625 -32.28125 C -13.851562 -34.519531 -12.394531 -36.335938 -11.25 -37.734375 C -10.101562 -39.140625 -9.144531 -40.195312 -8.375 -40.90625 C -7.613281 -41.613281 -6.945312 -42.023438 -6.375 -42.140625 C -5.8125 -42.265625 -5.222656 -42.175781 -4.609375 -41.875 C -4.003906 -41.570312 -3.265625 -41.109375 -2.390625 -40.484375 C -1.265625 -39.722656 -0.460938 -39.175781 0.015625 -38.84375 C 0.503906 -38.519531 0.710938 -38.3125 0.640625 -38.21875 C 0.566406 -38.125 0.28125 -38.097656 -0.21875 -38.140625 C -0.71875 -38.179688 -1.414062 -38.160156 -2.3125 -38.078125 C -3.300781 -38.003906 -4.359375 -37.6875 -5.484375 -37.125 C -6.617188 -36.5625 -7.71875 -35.609375 -8.78125 -34.265625 L -9.265625 -33.65625 C -9.378906 -33.5 -9.421875 -33.34375 -9.390625 -33.1875 C -9.359375 -33.03125 -9.101562 -32.742188 -8.625 -32.328125 C -8.144531 -31.910156 -7.34375 -31.25 -6.21875 -30.34375 C -5.09375 -29.445312 -3.5 -28.179688 -1.4375 -26.546875 L 6.828125 -20.03125 C 7.210938 -19.726562 7.71875 -19.367188 8.34375 -18.953125 C 8.96875 -18.535156 9.625 -18.191406 10.3125 -17.921875 C 10.976562 -17.671875 11.519531 -17.484375 11.9375 -17.359375 C 12.351562 -17.242188 12.644531 -17.117188 12.8125 -16.984375 C 12.976562 -16.859375 13.015625 -16.6875 12.921875 -16.46875 C 12.828125 -16.25 12.59375 -15.898438 12.21875 -15.421875 C 11.945312 -15.078125 11.601562 -14.648438 11.1875 -14.140625 C 10.769531 -13.640625 10.273438 -13.03125 9.703125 -12.3125 C 9.128906 -11.582031 8.640625 -10.953125 8.234375 -10.421875 C 7.835938 -9.890625 7.507812 -9.457031 7.25 -9.125 C 6.882812 -8.664062 6.601562 -8.359375 6.40625 -8.203125 C 6.207031 -8.054688 6.023438 -8.046875 5.859375 -8.171875 C 5.691406 -8.304688 5.5 -8.5625 5.28125 -8.9375 C 5.070312 -9.320312 4.769531 -9.8125 4.375 -10.40625 C 3.957031 -11.007812 3.476562 -11.570312 2.9375 -12.09375 C 2.394531 -12.613281 1.929688 -13.023438 1.546875 -13.328125 L -6.71875 -19.84375 C -8.78125 -21.476562 -10.382812 -22.734375 -11.53125 -23.609375 C -12.675781 -24.492188 -13.507812 -25.113281 -14.03125 -25.46875 C -14.550781 -25.820312 -14.894531 -25.992188 -15.0625 -25.984375 C -15.226562 -25.984375 -15.367188 -25.910156 -15.484375 -25.765625 L -15.9375 -25.1875 C -17.007812 -23.832031 -17.675781 -22.535156 -17.9375 -21.296875 C -18.207031 -20.066406 -18.285156 -18.957031 -18.171875 -17.96875 Z M -18.171875 -17.96875 "/></g></g></g><g fill="#ffb000" fill-opacity="1"><g transform="translate(338.485645, 243.890172)"><g><path d="M 1.28125 -10.109375 C 1.71875 -9.890625 2.101562 -9.734375 2.4375 -9.640625 C 2.769531 -9.554688 3.035156 -9.472656 3.234375 -9.390625 C 3.515625 -9.273438 3.644531 -9.09375 3.625 -8.84375 C 3.601562 -8.601562 3.421875 -8.070312 3.078125 -7.25 L 2.296875 -5.421875 C 1.785156 -4.210938 1.429688 -3.351562 1.234375 -2.84375 C 1.035156 -2.34375 0.847656 -2.128906 0.671875 -2.203125 C 0.535156 -2.253906 0.335938 -2.53125 0.078125 -3.03125 C -0.171875 -3.53125 -0.582031 -4.140625 -1.15625 -4.859375 C -1.75 -5.609375 -2.273438 -6.242188 -2.734375 -6.765625 C -3.203125 -7.296875 -3.753906 -7.867188 -4.390625 -8.484375 C -5.023438 -9.109375 -5.890625 -9.910156 -6.984375 -10.890625 C -8.078125 -11.867188 -9.53125 -13.175781 -11.34375 -14.8125 L -18.625 -21.46875 C -19.039062 -21.8125 -19.546875 -22.195312 -20.140625 -22.625 C -20.742188 -23.0625 -21.351562 -23.429688 -21.96875 -23.734375 C -22.425781 -23.953125 -22.832031 -24.101562 -23.1875 -24.1875 C -23.539062 -24.269531 -23.816406 -24.351562 -24.015625 -24.4375 C -24.273438 -24.550781 -24.382812 -24.726562 -24.34375 -24.96875 C -24.300781 -25.207031 -24.140625 -25.660156 -23.859375 -26.328125 L -23.171875 -27.953125 C -22.796875 -28.828125 -22.453125 -29.535156 -22.140625 -30.078125 C -21.828125 -30.628906 -21.394531 -31.035156 -20.84375 -31.296875 C -20.300781 -31.566406 -19.53125 -31.742188 -18.53125 -31.828125 C -17.53125 -31.910156 -16.160156 -31.90625 -14.421875 -31.8125 C -12.691406 -31.726562 -10.476562 -31.597656 -7.78125 -31.421875 L 5.703125 -30.5625 C 6.265625 -30.519531 6.941406 -30.515625 7.734375 -30.546875 C 8.523438 -30.578125 9.320312 -30.675781 10.125 -30.84375 C 10.914062 -30.96875 11.53125 -31.101562 11.96875 -31.25 C 12.414062 -31.394531 12.722656 -31.429688 12.890625 -31.359375 C 13.035156 -31.304688 13.078125 -31.128906 13.015625 -30.828125 C 12.960938 -30.535156 12.800781 -30.066406 12.53125 -29.421875 C 12.363281 -29.023438 12.148438 -28.546875 11.890625 -27.984375 C 11.640625 -27.421875 11.351562 -26.757812 11.03125 -26 L 9.90625 -23.375 C 9.519531 -22.445312 9.21875 -21.785156 9 -21.390625 C 8.78125 -21.003906 8.566406 -20.78125 8.359375 -20.71875 C 8.160156 -20.664062 7.90625 -20.722656 7.59375 -20.890625 C 7.28125 -21.066406 6.832031 -21.257812 6.25 -21.46875 C 5.65625 -21.71875 5.003906 -21.910156 4.296875 -22.046875 C 3.585938 -22.179688 2.960938 -22.28125 2.421875 -22.34375 L 1.453125 -22.40625 C 1.097656 -22.457031 0.828125 -22.421875 0.640625 -22.296875 C 0.453125 -22.171875 0.210938 -21.796875 -0.078125 -21.171875 C -0.367188 -20.554688 -0.835938 -19.5 -1.484375 -18 C -2.097656 -16.53125 -2.523438 -15.46875 -2.765625 -14.8125 C -3.015625 -14.15625 -3.125 -13.726562 -3.09375 -13.53125 C -3.0625 -13.34375 -2.921875 -13.148438 -2.671875 -12.953125 C -2.347656 -12.679688 -1.867188 -12.269531 -1.234375 -11.71875 C -0.597656 -11.164062 0.238281 -10.628906 1.28125 -10.109375 Z M -5.296875 -19.609375 C -4.878906 -20.578125 -4.628906 -21.28125 -4.546875 -21.71875 C -4.460938 -22.164062 -4.660156 -22.492188 -5.140625 -22.703125 C -5.472656 -22.835938 -5.988281 -22.945312 -6.6875 -23.03125 C -7.394531 -23.113281 -8.316406 -23.191406 -9.453125 -23.265625 C -10.835938 -23.390625 -11.878906 -23.46875 -12.578125 -23.5 C -13.273438 -23.539062 -13.664062 -23.460938 -13.75 -23.265625 C -13.832031 -23.066406 -13.625 -22.710938 -13.125 -22.203125 C -12.625 -21.703125 -11.847656 -20.992188 -10.796875 -20.078125 C -9.953125 -19.328125 -9.253906 -18.722656 -8.703125 -18.265625 C -8.160156 -17.816406 -7.722656 -17.523438 -7.390625 -17.390625 C -6.910156 -17.179688 -6.535156 -17.265625 -6.265625 -17.640625 C -6.003906 -18.015625 -5.679688 -18.671875 -5.296875 -19.609375 Z M -5.296875 -19.609375 "/></g></g></g><g fill="#ffb000" fill-opacity="1"><g transform="translate(354.849283, 200.925121)"><g><path d="M -1.203125 -28.921875 C -0.179688 -28.722656 0.644531 -28.515625 1.28125 -28.296875 C 1.925781 -28.078125 2.398438 -27.734375 2.703125 -27.265625 C 3.003906 -26.804688 3.175781 -26.117188 3.21875 -25.203125 C 3.257812 -24.285156 3.179688 -23.019531 2.984375 -21.40625 C 2.785156 -19.789062 2.507812 -17.71875 2.15625 -15.1875 C 1.914062 -13.519531 1.71875 -12.09375 1.5625 -10.90625 C 1.414062 -9.71875 1.28125 -8.695312 1.15625 -7.84375 C 0.957031 -6.414062 0.765625 -5.457031 0.578125 -4.96875 C 0.398438 -4.476562 0.132812 -4.253906 -0.21875 -4.296875 C -0.46875 -4.335938 -0.753906 -4.441406 -1.078125 -4.609375 C -1.398438 -4.785156 -1.804688 -4.988281 -2.296875 -5.21875 C -2.960938 -5.488281 -3.660156 -5.71875 -4.390625 -5.90625 C -5.128906 -6.09375 -5.742188 -6.21875 -6.234375 -6.28125 L -24.25 -8.84375 C -24.738281 -8.90625 -25.351562 -8.945312 -26.09375 -8.96875 C -26.832031 -9 -27.582031 -8.976562 -28.34375 -8.90625 C -29.03125 -8.78125 -29.582031 -8.660156 -30 -8.546875 C -30.425781 -8.441406 -30.75 -8.40625 -30.96875 -8.4375 C -31.175781 -8.46875 -31.285156 -8.597656 -31.296875 -8.828125 C -31.316406 -9.066406 -31.285156 -9.472656 -31.203125 -10.046875 C -31.140625 -10.472656 -31.050781 -11.015625 -30.9375 -11.671875 C -30.832031 -12.328125 -30.71875 -13.125 -30.59375 -14.0625 C -30.457031 -15.007812 -30.347656 -15.8125 -30.265625 -16.46875 C -30.191406 -17.125 -30.125 -17.660156 -30.0625 -18.078125 C -29.976562 -18.691406 -29.894531 -19.097656 -29.8125 -19.296875 C -29.738281 -19.503906 -29.597656 -19.59375 -29.390625 -19.5625 C -29.171875 -19.53125 -28.875 -19.40625 -28.5 -19.1875 C -28.132812 -18.96875 -27.628906 -18.703125 -26.984375 -18.390625 C -26.285156 -18.066406 -25.578125 -17.816406 -24.859375 -17.640625 C -24.140625 -17.460938 -23.535156 -17.34375 -23.046875 -17.28125 L -12.609375 -15.796875 C -9.984375 -15.421875 -7.957031 -15.148438 -6.53125 -14.984375 C -5.101562 -14.816406 -4.0625 -14.769531 -3.40625 -14.84375 C -2.757812 -14.925781 -2.34375 -15.15625 -2.15625 -15.53125 C -1.976562 -15.90625 -1.84375 -16.4375 -1.75 -17.125 L -1.34375 -20.015625 C -1.101562 -21.710938 -1.175781 -23.164062 -1.5625 -24.375 C -1.957031 -25.582031 -2.457031 -26.570312 -3.0625 -27.34375 C -3.800781 -28.238281 -4.347656 -28.851562 -4.703125 -29.1875 C -5.066406 -29.519531 -4.976562 -29.648438 -4.4375 -29.578125 C -4.15625 -29.535156 -3.753906 -29.460938 -3.234375 -29.359375 C -2.722656 -29.253906 -2.046875 -29.109375 -1.203125 -28.921875 Z M -1.203125 -28.921875 "/></g></g></g></svg>