<svg xmlns="http://www.w3.org/2000/svg" xmlns:xlink="http://www.w3.org/1999/xlink" width="500" zoomAndPan="magnify" viewBox="0 0 375 374.999991" height="500" preserveAspectRatio="xMidYMid meet" version="1.0"><defs><g/><clipPath id="031c3fc945"><path d="M 14.371094 8.542969 L 364 8.542969 L 364 357.917969 L 14.371094 357.917969 Z M 14.371094 8.542969 " clip-rule="nonzero"/></clipPath><clipPath id="c05de36c48"><path d="M 189.1875 8.542969 C 92.640625 8.542969 14.371094 86.753906 14.371094 183.230469 C 14.371094 279.710938 92.640625 357.917969 189.1875 357.917969 C 285.738281 357.917969 364.007812 279.710938 364.007812 183.230469 C 364.007812 86.753906 285.738281 8.542969 189.1875 8.542969 Z M 189.1875 8.542969 " clip-rule="nonzero"/></clipPath><clipPath id="c86fbc8dbf"><path d="M 75.1875 67.507812 L 301.574219 67.507812 L 301.574219 297 L 75.1875 297 Z M 75.1875 67.507812 " clip-rule="nonzero"/></clipPath><clipPath id="ab09d9b135"><path d="M 188.382812 67.507812 C 125.867188 67.507812 75.1875 118.867188 75.1875 182.226562 C 75.1875 245.582031 125.867188 296.941406 188.382812 296.941406 C 250.894531 296.941406 301.574219 245.582031 301.574219 182.226562 C 301.574219 118.867188 250.894531 67.507812 188.382812 67.507812 Z M 188.382812 67.507812 " clip-rule="nonzero"/></clipPath><clipPath id="5b8fc8a937"><path d="M 142 75.925781 L 260 75.925781 L 260 193 L 142 193 Z M 142 75.925781 " clip-rule="nonzero"/></clipPath><clipPath id="e34016348c"><path d="M 82.304688 156 L 177 156 L 177 250.675781 L 82.304688 250.675781 Z M 82.304688 156 " clip-rule="nonzero"/></clipPath><clipPath id="21fd6e597e"><path d="M 172 219 L 236 219 L 236 282.683594 L 172 282.683594 Z M 172 219 " clip-rule="nonzero"/></clipPath></defs><path fill="#231f20" d="M 96.371094 22.222656 C 104.605469 16.171875 120.714844 11.269531 134.773438 7.6875 C 147.175781 4.527344 159.09375 3.96875 165.683594 0.871094 C 175.433594 0.871094 184.496094 -1.054688 194.074219 -0.742188 C 224.136719 0.257812 249.761719 6.695312 278.222656 20.980469 C 281.4375 20.980469 288.144531 29.605469 291.394531 31.171875 C 295.9375 33.371094 303.492188 38.175781 306.449219 41.140625 C 308.863281 43.570312 313.164062 46.261719 315.855469 49.496094 C 320.15625 49.496094 330.644531 63.507812 333.867188 66.730469 C 339.785156 72.660156 343.28125 85.328125 348.117188 90.179688 C 349.734375 91.792969 358.339844 107.960938 358.28125 109.839844 C 362.191406 109.839844 368.972656 143.6875 371.109375 150.101562 C 375.023438 161.859375 373.957031 186.441406 371.90625 199.828125 C 371.90625 211.40625 364.609375 244.730469 353.535156 268.808594 C 348.171875 280.46875 332.011719 305.480469 322.769531 314.734375 C 312.117188 325.398438 298.480469 335.804688 282.027344 344.046875 C 251.96875 362.449219 174.878906 375.957031 139.382812 361.222656 C 77.390625 335.484375 58.796875 326.246094 25.464844 268.75 C 5.78125 234.820312 0.015625 166.015625 9.894531 138.238281 C 28.398438 86.246094 49.816406 56.429688 96.371094 22.222656 M 277.058594 337.003906 C 268.203125 341.304688 253.449219 352.320312 242.449219 352.320312 C 241.109375 352.320312 213.210938 357.964844 212.140625 358.773438 C 191.496094 362.082031 172.195312 359.832031 153.398438 356.085938 C 136.566406 352.722656 118.257812 343.714844 104.554688 337.015625 C 101.472656 337.015625 95.042969 331.34375 91.960938 329.800781 C 87.582031 327.738281 80.390625 323.105469 77.566406 320.273438 C 75.253906 317.953125 71.136719 315.375 68.566406 312.28125 C 64.449219 312.28125 54.429688 298.886719 51.335938 295.796875 C 45.6875 290.128906 42.351562 278.011719 37.722656 273.382812 C 36.175781 271.835938 28.664062 256.375 28.714844 254.578125 C 24.972656 254.578125 18.496094 222.222656 16.449219 216.085938 C 12.710938 204.855469 10.96875 181.34375 12.925781 168.542969 C 12.925781 156.261719 19.078125 142.757812 19.078125 132.523438 C 19.078125 119.835938 32.585938 107.964844 36.59375 95.574219 C 36.59375 91.863281 45.390625 79.804688 49.554688 77.945312 C 55.574219 75.167969 58.34375 66.359375 62.972656 61.714844 C 73.15625 51.515625 85.183594 38.535156 100.914062 30.65625 C 123.46875 15.867188 161.546875 7.277344 191.035156 7.277344 C 204.128906 8.914062 225.417969 6.460938 237.292969 12.1875 C 240.164062 13.414062 250.800781 16.691406 253.671875 16.691406 C 254.902344 16.691406 259.8125 19.144531 260.625 19.144531 C 261.449219 19.144531 262.679688 20.785156 263.5 20.785156 L 266.773438 22.007812 C 281.511719 22.007812 339.652344 79.722656 339.652344 90.777344 C 364.902344 116.023438 370.96875 196.753906 361.097656 227.429688 C 344.542969 278.871094 327.261719 313.171875 277.058594 337.003906 Z M 277.058594 337.003906 " fill-opacity="1" fill-rule="evenodd"/><path fill="#231f20" d="M 137.789062 143.425781 C 138.667969 142.300781 139.292969 141.296875 140.789062 140.550781 C 142.546875 139.675781 142.792969 136.421875 144.164062 135.804688 C 144.292969 135.804688 146.667969 134.300781 146.796875 134.054688 C 146.796875 134.054688 149.039062 132.429688 149.292969 132.183594 C 152.042969 129.429688 155.546875 128.675781 157.921875 126.308594 C 159.167969 125.050781 167.421875 122.554688 167.421875 121.429688 C 169.171875 121.429688 172.171875 120.429688 173.542969 119.800781 C 174.550781 119.304688 176.417969 119.304688 177.542969 118.800781 C 180.171875 117.554688 185.050781 117.679688 188.171875 117.679688 C 191.800781 116.183594 196.804688 118.675781 200.042969 118.675781 C 203.921875 118.675781 208.550781 121.183594 211.679688 121.183594 C 211.925781 121.183594 213.054688 121.429688 213.175781 121.429688 C 213.425781 121.550781 214.675781 121.925781 214.925781 121.925781 C 214.925781 121.925781 216.171875 122.429688 216.300781 122.429688 C 216.550781 122.554688 218.804688 122.675781 219.050781 122.554688 C 219.425781 122.429688 220.171875 121.679688 220.171875 121.183594 C 220.171875 120.800781 220.429688 120.050781 220.429688 119.800781 C 220.429688 118.929688 220.171875 118.175781 219.800781 117.808594 C 219.675781 117.679688 218.054688 116.679688 217.929688 116.679688 C 216.675781 115.9375 213.300781 115.054688 212.554688 114.296875 C 211.804688 113.554688 206.550781 112.304688 205.167969 112.304688 C 202.300781 112.304688 199.421875 110.804688 196.921875 110.804688 L 184.046875 110.679688 C 182.792969 110.679688 180.292969 110.679688 179.050781 111.0625 C 177.542969 111.554688 176.539062 112.054688 174.546875 112.054688 C 171.921875 113.304688 167.792969 113.558594 165.414062 114.683594 C 164.546875 115.054688 163.167969 115.429688 162.296875 115.800781 C 162.035156 115.9375 159.917969 116.808594 159.917969 116.933594 C 159.039062 117.683594 157.414062 118.425781 156.660156 118.804688 C 155.167969 119.554688 152.789062 120.050781 151.671875 121.183594 C 150.296875 122.554688 147.917969 123.300781 146.796875 124.425781 C 144.421875 126.796875 141.292969 128.929688 139.160156 131.046875 C 138.292969 131.917969 137.164062 133.675781 136.289062 134.550781 C 135.914062 134.929688 132.914062 137.671875 132.914062 137.671875 C 132.410156 138.679688 132.039062 139.550781 132.039062 140.808594 C 132.039062 140.925781 131.792969 142.675781 132.039062 142.925781 C 132.410156 143.304688 133.035156 143.304688 133.292969 143.546875 C 133.292969 143.546875 135.289062 143.804688 135.660156 143.804688 C 135.914062 143.804688 136.652344 143.804688 136.792969 143.671875 C 136.914062 143.546875 136.914062 143.425781 137.164062 143.425781 C 137.292969 143.425781 137.789062 143.425781 137.789062 143.425781 M 128.644531 128.792969 C 127.359375 127.71875 125.4375 126.332031 124.363281 125.261719 C 122.546875 123.445312 119.980469 121.945312 118.160156 120.125 C 117.523438 119.488281 116.347656 118.738281 115.058594 118.738281 C 113.777344 118.738281 112.597656 119.804688 111.75 119.804688 C 111.425781 120.773438 111.101562 121.730469 111.101562 122.800781 C 111.101562 125.683594 118.050781 127.183594 118.050781 128.792969 C 118.8125 129.324219 120.089844 129.960938 120.621094 130.496094 C 121.585938 131.460938 123.832031 132.53125 125.546875 132.53125 C 127.789062 132.53125 128.859375 131.144531 128.644531 128.792969 Z M 139.339844 97.78125 C 138.699219 97.78125 137.84375 97.78125 137.199219 97.78125 C 136.988281 97.78125 136.347656 97.882812 136.242188 97.882812 C 135.921875 97.988281 135.386719 98.203125 135.171875 98.421875 C 135.0625 98.523438 134.636719 98.636719 134.527344 98.746094 C 134.207031 99.0625 134.207031 101.09375 134.207031 101.632812 C 134.207031 101.839844 134.207031 102.160156 134.207031 102.375 C 134.207031 102.695312 134.746094 104.191406 135.0625 104.191406 C 135.386719 106.222656 137.628906 108.152344 138.378906 109.757812 C 138.480469 109.972656 139.339844 110.816406 139.339844 110.816406 C 139.660156 111.148438 141.910156 113.925781 141.910156 114.460938 C 142.128906 114.675781 142.867188 115.425781 143.296875 115.425781 C 143.402344 115.425781 144.363281 115.53125 144.46875 115.53125 C 144.683594 115.632812 145.121094 115.960938 145.445312 115.960938 C 146.085938 115.960938 146.515625 115.855469 146.71875 115.425781 C 146.71875 115.316406 147.148438 115.101562 147.148438 115.101562 C 147.472656 114.78125 147.6875 113.925781 148.007812 113.28125 C 148.007812 113.179688 148.007812 112.109375 148.007812 111.996094 C 148.007812 111.789062 147.582031 111.359375 147.582031 111.039062 C 145.976562 108.574219 144.683594 105.261719 143.511719 102.910156 C 143.082031 102.058594 140.300781 97.667969 139.339844 97.78125 Z M 165.976562 85.375 C 165.542969 85.375 164.804688 85.375 164.476562 85.476562 C 164.152344 85.585938 163.40625 86.121094 163.304688 86.230469 C 163.191406 86.332031 162.769531 86.550781 162.664062 86.765625 C 162.664062 86.875 162.339844 87.195312 162.234375 87.300781 C 161.695312 87.832031 161.695312 89.328125 162.019531 90.078125 C 162.234375 90.613281 162.664062 92.21875 162.664062 92.957031 C 163.304688 95.210938 163.941406 100.238281 165.339844 101.632812 C 166.40625 102.699219 166.078125 104.191406 167.578125 104.941406 C 168.976562 105.582031 170.6875 104.941406 171.214844 103.871094 C 171.214844 102.375 171.433594 100.347656 171.433594 98.636719 C 171.433594 96.925781 169.933594 92.320312 169.1875 90.71875 C 168.222656 88.6875 168.757812 85.375 165.976562 85.375 Z M 195.386719 82.382812 C 192.828125 82.382812 192.398438 84.507812 192.398438 86.765625 C 192.398438 88.902344 192.289062 91.152344 192.289062 93.285156 C 192.070312 95.105469 191.652344 100.34375 192.828125 101.523438 C 193.578125 102.269531 195.171875 102.375 196.035156 101.945312 C 196.464844 101.734375 197.53125 98.953125 197.53125 98.523438 C 197.53125 97.992188 198.601562 93.070312 198.707031 92.957031 C 198.921875 92.746094 198.601562 89.546875 198.601562 89.328125 C 198.601562 87.40625 199.25 85.910156 199.25 84.085938 C 199.25 83.121094 196.351562 82.167969 195.386719 82.382812 Z M 224.621094 88.378906 C 223.308594 88.566406 222.183594 90.136719 221.929688 91.257812 C 221.6875 92.445312 220.371094 94.707031 220.371094 95.835938 C 220.046875 96.839844 219.804688 98.78125 219.371094 99.652344 C 219.054688 100.34375 219.054688 101.910156 218.804688 102.734375 C 218.367188 104.171875 218.183594 104.992188 218.183594 106.554688 C 218.183594 108.179688 222.367188 107.675781 222.367188 107.117188 C 223.9375 106.363281 223.9375 102.914062 225.058594 101.785156 C 225.9375 100.910156 226.8125 98.09375 227.308594 96.839844 C 228.746094 93.140625 230.441406 88.4375 224.621094 88.378906 Z M 258.644531 99.125 C 255.949219 98.785156 255.527344 98.949219 253.277344 99.636719 C 251.144531 100.300781 245.867188 103.34375 245.304688 105.699219 C 244.746094 108.058594 242.164062 109.410156 241.375 111.089844 C 240.140625 112.105469 236.546875 112.546875 234.859375 113.109375 C 230.707031 114.460938 227.789062 115.800781 224.75 118.847656 C 223.742188 119.851562 222.726562 122.433594 222.277344 123.78125 L 221.496094 127.933594 C 219.398438 128.664062 215.671875 127.949219 213.285156 127.949219 C 209.359375 127.949219 202.800781 127.566406 199.195312 128.726562 C 194.492188 130.273438 196.300781 135.304688 200.675781 135.304688 C 202.800781 136.015625 205.304688 135.304688 207.429688 135.304688 C 210.195312 135.304688 213.15625 135.101562 215.792969 135.101562 C 220.617188 135.101562 247.1875 134.019531 247.1875 137.949219 C 246.476562 139.472656 245.800781 140.667969 245.800781 142.542969 C 245.800781 142.863281 245.277344 144.003906 245.121094 144.160156 C 244.910156 144.371094 243.921875 144.585938 243.605469 144.734375 C 243.445312 144.785156 243.035156 145.257812 242.875 145.257812 C 240.84375 145.570312 238.496094 145.570312 236.460938 145.570312 C 235.367188 145.570312 234.011719 145.15625 232.761719 145.15625 C 231.246094 145.15625 229.675781 145.410156 228.179688 145.410156 C 227.488281 145.410156 226.65625 145.570312 226.65625 146.300781 C 226.65625 146.777344 226.398438 147.394531 226.398438 147.917969 C 226.398438 148.59375 226.140625 149.632812 226.445312 150.308594 C 226.601562 150.621094 227.488281 151.203125 227.90625 151.203125 C 228.378906 151.203125 228.800781 151.5625 229.210938 151.5625 C 230.359375 152.292969 233.804688 151.671875 235.105469 151.671875 C 236.984375 151.671875 238.96875 151.5625 240.90625 151.5625 C 242.195312 151.5625 243.921875 151.671875 245.066406 152.03125 C 245.539062 152.1875 248.410156 153.234375 248.410156 153.4375 C 249.09375 154.804688 250.949219 157.78125 250.949219 159.242188 C 250.949219 160.375 251.636719 161.75 252.007812 162.953125 C 255.078125 172.78125 255.902344 183.109375 254.03125 193.496094 C 253.621094 195.785156 252.613281 198.402344 252.613281 200.066406 C 252.53125 200.316406 252.199219 200.734375 252.121094 200.890625 C 252.121094 200.980469 251.871094 201.3125 251.871094 201.394531 C 251.785156 201.640625 251.449219 201.8125 251.449219 202.230469 C 251.449219 202.644531 249.621094 203.476562 249.496094 203.527344 C 244.402344 203.570312 237.78125 201.796875 232.332031 201.796875 C 227.945312 201.796875 224.554688 199.398438 221.253906 197.085938 C 216.488281 193.742188 217.71875 194.390625 213.128906 196.78125 C 210.625 198.085938 207.574219 199.417969 206.773438 199.667969 C 205.59375 200.035156 203.105469 199.785156 202.160156 200.261719 C 201.097656 200.734375 197.902344 201.203125 196.601562 201.320312 C 193.289062 201.320312 189.023438 204.042969 185.710938 202.976562 C 182.523438 201.921875 176.007812 203.214844 172.574219 203.214844 L 162.285156 203.09375 C 158.726562 203.09375 153.527344 201.574219 149.621094 201.085938 C 146.425781 201.085938 141.925781 199.902344 139.925781 197.894531 C 137.789062 195.757812 132.226562 196.238281 129.386719 194.585938 C 129.386719 193.871094 126.78125 193.046875 126.425781 192.691406 C 125.832031 192.097656 125.480469 190.917969 125.480469 189.847656 C 125.480469 187.722656 125.597656 183.816406 125.011719 181.804688 C 124.53125 180.269531 125.71875 177.902344 125.027344 176.765625 C 125.191406 176.765625 126.1875 175.933594 126.523438 175.769531 C 126.6875 175.679688 128.519531 175.515625 128.765625 175.515625 C 130.511719 175.515625 132.761719 175.347656 134.425781 175.347656 L 145.746094 175.269531 C 149.492188 175.269531 153.238281 175.019531 156.898438 175.019531 C 158.3125 175.019531 159.5625 174.183594 160.730469 173.777344 C 162.972656 173.777344 161.808594 169.609375 160.0625 169.195312 C 157.988281 168.695312 154.988281 168.113281 152.824219 168.113281 C 150.652344 168.113281 148.40625 168.367188 146.328125 168.03125 C 146.328125 167.527344 144.75 166.609375 144.75 165.445312 C 144.75 164.199219 144.578125 162.777344 144.082031 161.789062 C 143.164062 159.875 140.832031 154.800781 138.917969 153.878906 C 135.097656 151.972656 129.105469 149.140625 124.511719 149.644531 C 125.164062 149.828125 123.105469 145.710938 123.019531 145.335938 C 122.546875 143.84375 121.703125 141.777344 120.488281 140.5625 C 118.621094 138.695312 114.390625 136.003906 112.070312 134.855469 C 106.808594 132.261719 98.25 132.097656 92.539062 133.695312 C 95.402344 130.828125 99.351562 123.695312 101.128906 119.984375 C 101.804688 118.578125 105.222656 115.484375 105.222656 114.054688 C 105.222656 113.84375 109.917969 109.347656 110.742188 108.535156 C 112.792969 106.695312 115.242188 104.03125 116.886719 102.394531 C 118.519531 100.761719 120.769531 99.328125 122.8125 98.3125 C 126.285156 96.667969 131.613281 88.695312 135.492188 88.695312 C 137.746094 87.875 141.835938 85.625 144.085938 84.601562 C 147.363281 82.972656 151.871094 83.171875 154.730469 80.308594 C 155.546875 79.492188 163.515625 76.832031 165.160156 76.832031 C 172.113281 76.832031 177.226562 74.378906 184.390625 74.378906 C 190.320312 74.378906 196.464844 75.195312 202.1875 75.195312 C 214.667969 75.195312 226.992188 81.613281 235.683594 84.867188 C 241.230469 86.949219 258.644531 95.234375 258.644531 99.125 Z M 82.90625 165.117188 C 82.90625 168.949219 89.730469 167.863281 92.644531 167.863281 C 98.140625 167.863281 103.632812 168.117188 109.039062 168.117188 L 128.179688 168.117188 C 130.265625 168.117188 133.34375 168.699219 135.179688 168.117188 C 136.585938 168.117188 136.511719 165.617188 136.511719 164.535156 C 136.511719 163.125 134.347656 161.457031 133.839844 160.375 C 133.253906 159.210938 126.273438 155.546875 124.605469 157.214844 C 124.191406 157.628906 122.191406 158.125 121.445312 158.378906 C 121.445312 158.460938 119.855469 158.792969 119.527344 158.875 C 119.03125 159.039062 118.28125 159.375 117.855469 159.542969 C 116.699219 160.128906 115.285156 161.035156 113.789062 160.289062 C 111.457031 159.125 113.703125 153.882812 115.367188 153.050781 C 115.863281 152.796875 116.949219 152.050781 117.113281 151.550781 C 117.113281 150.46875 115.039062 145.808594 114.285156 145.066406 C 112.953125 143.734375 111.953125 141.152344 109.539062 141.152344 C 109.539062 141.066406 107.542969 140.488281 107.296875 140.398438 C 106.957031 140.234375 104.046875 139.996094 103.632812 139.996094 C 101.710938 139.996094 98.800781 139.738281 97.136719 140.234375 C 93.3125 141.488281 90.3125 142.898438 87.738281 145.976562 C 85.230469 150.976562 82.90625 159.457031 82.90625 165.117188 Z M 297.304688 202.203125 C 295.773438 202.203125 293.441406 202.652344 291.640625 202.203125 C 289.839844 201.761719 286.785156 201.035156 284.894531 201.035156 C 281.117188 201.035156 277.347656 198.613281 273.835938 198.613281 C 272.847656 198.613281 269.25 199.417969 268.261719 199.863281 C 267.542969 199.863281 260.257812 203.375 260.257812 201.132812 C 260.257812 198.160156 260.941406 194.449219 261.332031 191.417969 C 262.4375 182.960938 261.460938 174.789062 260.214844 166.644531 C 260.097656 165.902344 259.894531 165.039062 259.894531 164.183594 C 259.785156 164.183594 259.246094 162.257812 259.246094 162.152344 C 259.246094 161.402344 258.710938 160.335938 258.710938 159.691406 C 258.710938 158.628906 257.75 156.488281 257.320312 155.523438 C 257.109375 155.09375 257.003906 154.664062 256.46875 154.695312 C 256.46875 151.398438 259.679688 152.171875 262.449219 152.171875 C 265.566406 152.171875 267.296875 151.050781 267.296875 147.925781 C 267.296875 146.800781 265.820312 145.152344 264.6875 145.152344 C 264.527344 145.152344 263.316406 144.804688 263.136719 144.980469 C 262.359375 145.761719 257.507812 145.328125 256.257812 145.136719 C 254.996094 145.136719 253.074219 144.253906 253.074219 142.824219 C 253.074219 141.121094 254.832031 139.40625 255.820312 137.984375 C 256.863281 137.492188 258.238281 136.496094 259.664062 136.167969 C 261.089844 135.835938 263.074219 135.671875 264.441406 135.230469 C 266.035156 134.738281 272.074219 135.726562 272.460938 136.992188 C 272.898438 136.992188 273.449219 137.710938 273.890625 137.933594 C 274.050781 137.984375 274.214844 138.09375 274.328125 138.207031 C 274.492188 138.375 274.929688 138.761719 275.089844 138.867188 C 275.371094 139.035156 275.753906 139.519531 275.808594 139.796875 C 275.808594 140.183594 276.746094 141.121094 277.066406 141.277344 C 277.558594 141.507812 278.5 141.507812 279.101562 141.507812 C 280.195312 141.507812 281.574219 141.277344 282.015625 140.347656 C 282.285156 139.746094 282.347656 139.085938 282.347656 138.257812 C 282.347656 137.488281 281.742188 135.613281 281.28125 135.15625 C 281.28125 133.894531 276.777344 130.441406 275.851562 129.976562 C 275.054688 129.578125 273.601562 128.976562 272.667969 128.855469 C 272.667969 128.785156 272.007812 128.585938 272.007812 128.585938 C 272.007812 128.585938 271.011719 128.316406 270.953125 128.316406 C 270.355469 128.316406 269.558594 128.054688 268.894531 128.054688 C 267.636719 128.054688 266.113281 127.316406 265.058594 127.855469 C 264.328125 128.183594 262.539062 128.25 261.683594 128.378906 C 259.425781 128.378906 257.242188 128.714844 254.863281 128.714844 L 247.042969 128.648438 C 244.722656 128.648438 242.34375 128.519531 239.894531 128.519531 C 237.972656 128.519531 233.398438 129.050781 231.746094 128.378906 C 231.746094 128.25 230.8125 128.320312 230.8125 128.320312 C 230.753906 128.25 230.292969 128.054688 230.152344 127.988281 C 229.828125 127.859375 229.429688 127.253906 229.429688 126.726562 C 229.429688 126.136719 230.355469 124.007812 230.617188 123.472656 C 231.816406 121.089844 235.457031 120.621094 237.707031 119.492188 C 238.441406 119.492188 239.492188 119.09375 240.550781 119.09375 C 241.546875 119.09375 242.792969 119.292969 243.332031 119.824219 C 243.863281 120.359375 246.773438 122.082031 246.773438 122.480469 C 246.773438 123.007812 247.304688 123.34375 247.636719 123.609375 C 247.703125 123.609375 249.164062 124.871094 249.691406 124.996094 C 250.550781 125.269531 251.285156 125.136719 251.875 124.871094 C 253.53125 124.070312 253 122.152344 253 120.554688 C 253 119.953125 252.144531 118.425781 251.785156 117.773438 C 251.785156 117.105469 250.789062 115.605469 250.292969 115.109375 C 249.871094 114.695312 248.210938 114.019531 248.210938 113.445312 C 248.210938 112.941406 248.957031 111.699219 249.207031 111.277344 C 251.535156 107.707031 254.367188 105.949219 258.78125 105.949219 C 260.527344 105.949219 262.273438 106.539062 263.6875 106.539062 C 264.769531 106.539062 266.269531 107.871094 267.273438 107.871094 C 269.015625 107.871094 271.671875 110.867188 272.925781 112.363281 C 274.28125 113.925781 275.605469 115.25 276.398438 116.835938 C 277.324219 118.824219 279.835938 121.597656 281.691406 123.460938 C 282.484375 124.25 286.191406 130.726562 286.191406 131.257812 C 287.515625 135.226562 289.371094 140.519531 291.355469 144.492188 C 293.335938 148.46875 296.515625 155.476562 296.515625 159.972656 C 296.515625 161.011719 298.101562 170.945312 298.449219 171.285156 C 299.320312 172.152344 298.964844 179.597656 298.964844 181.324219 C 298.964844 184.960938 298.449219 188.421875 298.449219 192.058594 C 298.449219 193.789062 298.101562 195.691406 298.101562 197.25 C 298.101562 197.421875 297.410156 199.324219 297.238281 199.675781 C 297.238281 199.847656 296.714844 202.097656 296.714844 202.097656 M 82.140625 175.332031 L 100.875 175.332031 C 104.867188 175.332031 109.167969 175.433594 113.152344 175.433594 C 113.773438 175.433594 118.578125 174.820312 118.578125 175.226562 C 119.195312 179.230469 117.457031 184.148438 118.480469 188.253906 C 118.480469 188.453125 118.886719 190.816406 118.886719 190.914062 C 118.578125 191.535156 115.101562 190.304688 115.003906 190.304688 C 113.261719 189.789062 110.289062 189.789062 108.347656 189.789062 C 104.5625 189.277344 99.648438 189.378906 95.761719 189.378906 C 91.152344 189.378906 86.855469 190.816406 82.351562 190.816406 C 81.230469 188.453125 81.230469 185.484375 81.230469 182.40625 C 81.230469 180.871094 80.71875 174.925781 82.140625 175.332031 Z M 173.628906 153.226562 C 178.847656 153.226562 184.417969 149.425781 189.515625 148.183594 C 191.402344 147.710938 192.648438 147.0625 194.546875 147.644531 C 195.546875 147.953125 199.699219 151.328125 200.417969 151.328125 C 202.425781 151.328125 204.503906 150.4375 206.75 150.4375 C 207.996094 150.4375 211.378906 154.894531 212.386719 155.890625 C 214.578125 158.09375 216.886719 159.996094 220.207031 159.996094 C 220.5 161.894531 214.578125 162.011719 213.214844 162.011719 C 212.085938 162.011719 209.601562 161.066406 208.648438 160.46875 C 208.058594 160.117188 205.390625 157.148438 205.390625 157.148438 C 204.59375 157.148438 202.617188 156.617188 202.53125 157.710938 C 202.367188 159.652344 198.785156 159.726562 196.804688 158.628906 C 195.019531 157.644531 194.3125 154 193.066406 153.699219 C 189.277344 152.753906 183.40625 156.070312 179.621094 156.070312 C 177.953125 156.070312 176.066406 155.664062 174.578125 155.070312 C 174.226562 154.945312 173.042969 154.480469 173.042969 154.058594 C 173.042969 153.464844 173.691406 153.226562 173.628906 153.226562 M 186.488281 180.601562 C 186.546875 180.601562 186.96875 180.066406 187.148438 180.003906 C 187.796875 179.714844 188.328125 179.714844 189.035156 179.648438 C 190.046875 179.53125 190.992188 179.414062 192.0625 179.414062 C 194.015625 179.414062 196.5 178.105469 198.335938 177.691406 C 201.007812 177.035156 197.921875 176.6875 196.683594 176.261719 C 193.777344 175.316406 190.695312 174.246094 187.675781 173.777344 C 184.535156 173.296875 182.992188 177.210938 180.152344 177.449219 C 177.128906 177.449219 174.816406 175.261719 171.730469 176.796875 C 168.539062 178.398438 163.5 179.585938 160.773438 181.847656 C 160.835938 182.441406 157.871094 186.066406 159.296875 186.066406 C 160.835938 186.066406 163.441406 184.460938 164.863281 183.980469 C 167.179688 183.207031 169.898438 183.746094 172.453125 183.328125 C 174.171875 183.097656 175.707031 182.617188 177.425781 182.617188 C 179.144531 182.617188 181.28125 184.101562 182.992188 184.101562 C 184.238281 184.40625 185.605469 184.40625 186.90625 184.40625 C 187.261719 184.40625 187.910156 184.519531 188.085938 184.34375 C 188.269531 184.164062 187.976562 183.6875 187.855469 183.566406 C 187.679688 183.390625 187.855469 182.144531 187.625 181.789062 C 187.5 181.605469 186.671875 180.535156 186.488281 180.601562 Z M 174.601562 224.292969 C 172.75 224.292969 166 226.402344 163.621094 226.933594 C 153.273438 229.519531 136.492188 227.636719 126.949219 223.691406 C 118.839844 220.328125 113.628906 216.140625 110.671875 215.6875 C 108.949219 219.136719 106.167969 221.25 102.0625 222.566406 C 98.09375 223.882812 94.917969 227.863281 90.417969 227.199219 C 90.417969 226.011719 88.164062 222.300781 87.765625 220.453125 C 87.105469 217.671875 85.652344 213.835938 84.726562 210.925781 C 84.066406 208.933594 81.28125 197.417969 84.601562 197.949219 C 87.371094 198.355469 98.359375 197.949219 101.003906 197.160156 C 105.242188 195.84375 115.4375 197.027344 119.007812 198.746094 C 123.113281 199.40625 128.933594 202.457031 132.109375 204.039062 C 135.953125 205.890625 141.25 206.824219 145.082031 208.675781 C 150.511719 211.714844 155.015625 214.894531 160.574219 218.199219 C 164.546875 220.578125 170.5 224.554688 174.601562 224.292969 Z M 274.085938 250.613281 C 274.085938 252.550781 266.847656 253.347656 264.445312 253.347656 C 258.972656 253.347656 253.183594 249.8125 248.84375 249.8125 C 241.125 249.8125 235.65625 239.351562 229.070312 238.398438 C 229.070312 241.453125 212.832031 249.8125 209.292969 249.8125 C 202.21875 249.8125 190.636719 254.472656 183.246094 250.765625 C 180.03125 250.765625 176.335938 250.292969 173.761719 249.007812 C 170.546875 247.394531 166.042969 247.558594 162.664062 245.949219 C 160.730469 244.984375 159.609375 242.734375 157.679688 241.773438 C 156.074219 240.976562 151.886719 236.460938 149.71875 237.652344 C 149.71875 238.84375 141.910156 241.226562 140.851562 241.890625 C 137.9375 243.738281 132.378906 246.257812 129.070312 247.046875 C 123.832031 248.300781 115.179688 251.507812 108.652344 251.710938 C 105.457031 251.804688 105.335938 251.117188 103.125 248.902344 C 102.332031 248.105469 101.570312 244.71875 100.746094 243.609375 C 99.0625 241.355469 97.875 239.03125 96.550781 236.890625 C 94.769531 234.003906 94.492188 233.742188 97.332031 232.804688 C 103.074219 230.914062 106.410156 227.429688 112.65625 224.152344 C 121.078125 231.527344 138.203125 233.597656 142.304688 234.878906 C 146.144531 234.878906 150.25 235.800781 154.226562 235.800781 C 157.53125 235.800781 160.976562 235.140625 164.417969 235.140625 C 168.511719 234.476562 173.546875 231.835938 178.050781 230.773438 C 181.621094 229.972656 184.269531 229.316406 187.710938 227.59375 C 188.773438 227.070312 192.214844 224.820312 192.214844 224.15625 C 192.742188 224.15625 193.140625 224.023438 193.664062 224.023438 C 194.066406 224.023438 194.988281 224.425781 195.386719 224.554688 C 195.652344 224.683594 196.3125 225.613281 196.574219 225.613281 C 197.105469 225.742188 198.167969 226.804688 198.5625 227.199219 C 198.96875 227.59375 200.546875 228.390625 200.949219 228.390625 C 203.503906 230.523438 205.917969 230.203125 208.496094 231.488281 C 216.042969 235.183594 225.523438 235.832031 235.015625 235.832031 C 241.285156 235.832031 247.710938 232.933594 253.980469 232.933594 C 259.292969 232.933594 269.101562 226.34375 272.640625 224.574219 C 276.015625 224.574219 278.746094 226.34375 281.636719 227.308594 C 283.730469 227.945312 286.789062 228.757812 289.039062 228.757812 C 287.316406 231.101562 286.769531 234.054688 285.371094 236.160156 C 283.738281 238.644531 280.089844 242.851562 279.164062 245.652344 C 278.539062 247.597656 274.117188 249.535156 274.085938 250.613281 Z M 290.738281 221.871094 C 287.273438 221.871094 284 220.558594 280.8125 219.25 C 277.820312 218.035156 273.144531 214.390625 270.027344 215 C 266.949219 221.148438 250.367188 226.933594 243.96875 226.933594 C 238.945312 226.933594 233.773438 227.59375 228.480469 227.59375 C 223.453125 227.59375 217.898438 224.683594 213.257812 224.683594 C 210.476562 224.683594 207.167969 221.910156 204.375 221.503906 C 204.375 221.503906 200.203125 219.683594 199.34375 219.148438 C 197.636719 218.082031 195.492188 216.046875 193.679688 215.1875 C 190.046875 213.371094 189.53125 217.800781 186.40625 218.511719 C 176.34375 220.777344 162.800781 209.5625 161.265625 210.058594 C 162.441406 209.523438 174.742188 210.058594 176.453125 210.058594 C 183.304688 210.058594 190.578125 208.675781 197.320312 208.675781 C 200.628906 208.675781 204.804688 206.957031 208.121094 206.957031 C 208.867188 206.957031 216.675781 205.136719 216.675781 204.398438 C 231.152344 211.550781 261.863281 213.320312 276.496094 206.089844 C 277.453125 206.089844 278.105469 206.894531 278.914062 207.207031 C 280.679688 208.015625 284.859375 208.339844 287.109375 208.339844 C 289.84375 208.339844 292.734375 208.984375 295.304688 208.984375 C 295.003906 209.050781 294.140625 212.582031 294.0625 213.117188 C 293.898438 214.21875 290.742188 221.8125 290.742188 221.648438 M 192.371094 264.921875 C 190.3125 264.921875 187.128906 268.007812 185.253906 268.007812 C 182.824219 268.007812 178.707031 270.347656 175.421875 270.527344 C 169.34375 271.003906 162.140625 272.683594 156.429688 272.683594 C 153.152344 272.683594 148.757812 273.996094 145.386719 272.875 C 142.988281 272.113281 140.035156 271.898438 137.167969 271.71875 C 132.683594 271.417969 128.480469 270.117188 124.132812 268.957031 C 120.734375 268.054688 117.558594 265.734375 114.96875 261.503906 C 113.957031 259.832031 113.992188 258.390625 116.25 257.925781 C 120.042969 257.136719 123.609375 255.277344 127.414062 254.535156 C 133.125 253.421875 137.800781 251.539062 143.136719 249.761719 C 145.664062 248.921875 148.191406 245.828125 150.253906 245.550781 C 151.421875 247.855469 161.074219 252.457031 163.652344 253.246094 C 168.484375 254.8125 175.671875 258.296875 181.175781 258.296875 C 189.597656 261.101562 199.484375 257.734375 207.679688 257.734375 C 209.367188 257.507812 212.621094 256.722656 214.308594 256.164062 C 217.335938 255.148438 220.152344 254.589844 223.070312 253.128906 C 224.417969 252.457031 229.808594 248.191406 230.03125 248.191406 C 232.839844 248.636719 235.3125 251.101562 237.5625 252.234375 C 244.632812 255.710938 256.992188 260.425781 265.527344 260.425781 C 265.40625 261.210938 259.90625 266.492188 258.902344 266.9375 C 256.992188 267.835938 254.960938 268.730469 252.945312 269.410156 C 251.828125 269.746094 248.902344 271.316406 247.78125 271.316406 C 245.53125 273.113281 238.347656 273.449219 235.195312 273.449219 C 233.0625 273.449219 230.707031 273.339844 228.683594 273.339844 C 228.351562 273.339844 226.554688 273.449219 226.324219 273.339844 C 226.101562 273.222656 224.078125 273 224.078125 273 C 220.371094 273 216.328125 270.984375 212.851562 270.984375 C 209.367188 270.984375 204.429688 270.082031 201.277344 269.070312 C 199.257812 268.398438 194.089844 265.253906 192.371094 264.921875 Z M 192.292969 272.832031 C 188.332031 273.476562 185.019531 276.898438 181.171875 276.898438 C 177.527344 276.898438 173.679688 278.289062 170.476562 278.289062 C 164.589844 278.289062 158.0625 280.320312 152.394531 280.320312 C 150.675781 280.320312 146.617188 281.277344 145.222656 280.636719 C 141.695312 278.925781 146.085938 282.886719 146.085938 282.886719 C 149.71875 284.171875 153.890625 284.808594 157.199219 286.414062 C 157.742188 286.628906 161.804688 287.910156 162.554688 287.910156 C 163.621094 287.910156 165.339844 288.449219 166.40625 288.664062 C 166.828125 288.664062 169.078125 289.195312 169.078125 289.402344 C 175.496094 289.402344 182.019531 291.117188 188.863281 291.117188 L 200.308594 291.117188 C 204.375 291.117188 208.226562 289.625 212.074219 289.625 C 219.351562 289.625 223.523438 286.519531 229.621094 284.488281 C 232.1875 283.632812 233.042969 283.308594 234.539062 281.820312 C 234.859375 281.496094 233.683594 281.28125 233.683594 281.28125 C 232.296875 281.28125 230.257812 281.066406 228.660156 281.066406 C 225.664062 279.996094 220.847656 280.636719 217.75 279.679688 C 213.472656 278.289062 206.730469 279.566406 202.878906 277.648438 C 200.308594 276.359375 194.851562 272.832031 192.292969 272.832031 Z M 269.304688 159.460938 C 270.574219 158.460938 272.117188 157.441406 272.527344 157.441406 C 273.707031 157.441406 275.78125 156.964844 276.847656 156.429688 C 277.144531 156.316406 280.285156 155.425781 280.582031 155.425781 C 283.367188 155.015625 287.996094 152.632812 287.996094 157.496094 C 287.996094 158.578125 288.285156 160.171875 287.214844 160.53125 C 285.320312 161.125 283.304688 162.546875 281.234375 162.546875 C 278.6875 163.613281 273.765625 164.332031 270.925781 164.332031 C 269.675781 164.332031 269.207031 163.789062 268.316406 163.378906 C 267.839844 163.144531 267.542969 162.84375 267.367188 162.429688 C 267.367188 160.855469 267.917969 160.554688 269.304688 159.460938 Z M 270.5625 186.273438 C 271.65625 184.019531 276.363281 184.148438 278.882812 184.148438 C 281.136719 184.148438 283.453125 185.113281 285.714844 185.113281 C 287.074219 185.113281 290.832031 184.703125 290.832031 186.679688 C 290.832031 187.363281 291.242188 188.253906 291.242188 189.074219 C 291.242188 189.617188 289.738281 191.535156 289.390625 191.535156 C 287.757812 192.355469 284.617188 191.332031 282.839844 191.332031 C 279.777344 191.332031 275.617188 191.535156 272.949219 190.640625 C 272.058594 190.375 271.113281 189.617188 270.496094 189.003906 C 270.28125 188.796875 270.085938 186.34375 270.5625 186.273438 Z M 184.589844 298.660156 C 164.296875 297.535156 143.761719 292.71875 127.300781 280.628906 C 118.78125 274.363281 110.394531 267.246094 105.835938 262.359375 C 99.1875 255.207031 93.023438 247.417969 89.058594 239.21875 C 86.074219 233.042969 81.894531 227.148438 79.855469 218.976562 C 76.203125 204.359375 73.921875 191.613281 73.921875 176.433594 C 73.921875 168.664062 76.785156 159.863281 78.011719 152.097656 C 78.011719 148.820312 82.714844 142.488281 82.714844 138.59375 C 82.714844 133.695312 88.855469 128.78125 90.691406 125.097656 C 92.742188 121.007812 94.578125 115.484375 97.449219 112.214844 C 97.449219 111.191406 111.152344 97.285156 112.792969 95.648438 C 118.105469 90.332031 128.75 84.601562 135.695312 81.125 C 136.117188 81.125 142.453125 78.058594 142.65625 77.855469 C 143.882812 76.628906 147.761719 76.007812 149.207031 75.402344 C 149.816406 75.191406 152.683594 73.558594 153.292969 73.558594 C 155.34375 73.558594 157.390625 71.925781 159.410156 72.09375 C 161.144531 71.925781 163.742188 70.710938 165.296875 70.015625 C 168.933594 68.285156 178.804688 67.421875 183.308594 67.421875 C 187.457031 67.421875 191.960938 67.421875 196.117188 67.421875 C 200.277344 67.421875 204.085938 68.460938 208.242188 68.460938 C 211.878906 68.460938 216.722656 69.328125 219.667969 70.710938 C 220.183594 70.878906 223.824219 71.925781 224.351562 71.925781 C 225.550781 71.925781 227.796875 73.652344 228.671875 73.652344 C 235.425781 76.597656 242 79.714844 247.886719 82.65625 C 249.550781 83.410156 253.621094 85.375 257.269531 87.679688 C 263.875 91.84375 270.28125 99.054688 275.832031 104.59375 C 280.945312 108.9375 282.988281 114.054688 287.082031 118.140625 C 288.722656 119.78125 295.269531 131.847656 295.269531 133.28125 C 296.699219 137.570312 298.945312 141.453125 300.386719 145.753906 C 304.265625 157.824219 305.492188 167.839844 305.492188 181.949219 C 305.5625 185.546875 305.816406 188.789062 305.816406 192.292969 C 305.816406 194.039062 304.566406 205.039062 304.066406 205.539062 C 303.8125 205.789062 303.566406 211.539062 303.0625 212.042969 C 302.320312 212.789062 301.066406 215.535156 301.066406 217.292969 C 300.058594 220.535156 296.804688 224.539062 296.804688 227.789062 C 296.804688 230.035156 294.8125 234.042969 293.5625 235.289062 C 292.316406 236.535156 289.640625 243.964844 288.5625 245.535156 C 281.800781 255.449219 268.777344 270.199219 258.300781 276.03125 C 257.574219 276.4375 256.253906 277.714844 255.492188 278.464844 C 255.117188 278.835938 252.683594 280.71875 252.683594 280.71875 C 248.746094 284.089844 242.546875 286.53125 238.246094 288.589844 C 221.769531 296.824219 203.136719 299.6875 184.589844 298.660156 Z M 184.589844 298.660156 " fill-opacity="1" fill-rule="evenodd"/><path fill="#231f20" d="M 336.96875 241.160156 C 334.96875 243.089844 325.507812 241.363281 323.296875 240.226562 C 316.78125 236.886719 316.128906 231.253906 316.230469 224.949219 C 316.328125 218.660156 323.402344 214.003906 328.355469 213.289062 C 334.28125 212.4375 340.167969 212.441406 342.914062 220.5 C 344.15625 224.128906 345.757812 234.363281 341.121094 235.792969 C 336.347656 237.261719 332.828125 236.175781 328.828125 233.730469 C 319.414062 227.96875 332.078125 218.054688 335.546875 225.421875 C 338 230.628906 333.671875 228.488281 333.652344 230.019531 C 333.636719 231.699219 338.394531 231.355469 338.953125 230.8125 C 346.492188 223.511719 329.105469 211.820312 322.257812 225.199219 C 319.519531 230.546875 325.890625 239.433594 331.785156 239.519531 C 333.589844 239.542969 336.410156 240.453125 336.96875 241.160156 " fill-opacity="1" fill-rule="evenodd"/><path fill="#231f20" d="M 58.582031 217.15625 C 56.597656 215.210938 46.117188 216.738281 43.882812 217.867188 C 37.351562 221.15625 37.6875 226.902344 37.742188 233.207031 C 37.746094 234.179688 44.289062 243.246094 44.835938 243.242188 C 52.253906 243.175781 60.773438 248.152344 64.382812 237.859375 C 65.660156 234.234375 68.328125 225.867188 63.695312 224.394531 C 58.933594 222.886719 54.414062 222.101562 50.394531 224.527344 C 40.933594 230.222656 53.53125 240.222656 57.054688 232.886719 C 59.554688 227.691406 55.199219 229.808594 55.183594 228.265625 C 55.175781 226.589844 59.945312 226.96875 60.5 227.519531 C 67.980469 234.875 50.558594 246.429688 43.757812 233.011719 C 42.570312 230.671875 45.480469 222.199219 47.003906 221.480469 C 49.085938 220.496094 51.882812 219.597656 54.398438 219.582031 C 56.210938 219.574219 58.019531 217.867188 58.582031 217.15625 " fill-opacity="1" fill-rule="evenodd"/><g clip-path="url(#031c3fc945)"><g clip-path="url(#c05de36c48)"><path fill="#424642" d="M 14.371094 8.542969 L 363.746094 8.542969 L 363.746094 357.917969 L 14.371094 357.917969 Z M 14.371094 8.542969 " fill-opacity="1" fill-rule="nonzero"/></g></g><g clip-path="url(#c86fbc8dbf)"><g clip-path="url(#ab09d9b135)"><path fill="#272829" d="M 75.1875 67.507812 L 301.574219 67.507812 L 301.574219 296.546875 L 75.1875 296.546875 Z M 75.1875 67.507812 " fill-opacity="1" fill-rule="nonzero"/></g></g><g clip-path="url(#5b8fc8a937)"><path fill="#ffffff" d="M 259.503906 122.914062 L 253.359375 105.902344 L 241 110.367188 C 237.757812 104.90625 233.707031 100.707031 228.894531 97.171875 L 234.675781 84.960938 L 218.316406 77.308594 L 212.367188 89.667969 C 206.574219 88.226562 200.441406 87.925781 194.167969 88.917969 L 189.472656 75.925781 L 172.460938 82.070312 L 177.160156 95.070312 C 172.285156 98.097656 167.570312 102.339844 164.042969 107.144531 L 151.855469 101.347656 L 144.222656 117.707031 L 156.488281 123.335938 C 155.050781 129.121094 154.644531 134.933594 155.636719 141.203125 L 142.488281 145.957031 L 148.632812 162.96875 L 161.789062 158.214844 C 165.027344 163.675781 169.164062 168.117188 173.96875 171.648438 L 168.226562 184 L 184.613281 191.714844 L 190.191406 179.511719 C 195.976562 180.949219 202.308594 181.210938 207.996094 180.425781 L 212.515625 192.941406 L 229.527344 186.796875 L 225.007812 174.285156 C 230.46875 171.039062 234.984375 166.875 238.515625 162.070312 L 250.894531 167.796875 L 258.625 151.410156 L 246.328125 145.511719 C 247.769531 139.726562 248.140625 133.652344 247.140625 127.378906 Z M 208.726562 153.695312 C 198.144531 157.515625 186.464844 152.035156 182.640625 141.453125 C 178.820312 130.871094 184.296875 119.191406 194.882812 115.367188 C 205.464844 111.542969 217.144531 117.027344 220.964844 127.609375 C 224.789062 138.191406 219.3125 149.871094 208.726562 153.695312 Z M 208.726562 153.695312 " fill-opacity="1" fill-rule="nonzero"/></g><path fill="#ffffff" d="M 291.835938 206.039062 L 292.6875 195.960938 L 285.390625 195.34375 C 285.03125 191.6875 283.933594 188.859375 282.320312 185.949219 L 288.089844 181.164062 L 281.578125 173.503906 L 275.507812 178.382812 C 272.90625 176.300781 270.546875 174.789062 266.285156 173.757812 L 266.921875 166.230469 L 256.121094 165.320312 L 255.484375 172.851562 C 253.269531 173.332031 249.476562 174.347656 246.566406 175.960938 L 242.015625 170.203125 L 234.464844 176.730469 L 239.453125 182.332031 C 237.375 184.929688 235.902344 187.539062 234.933594 191.082031 L 227.171875 190.425781 L 226.320312 200.507812 L 234.085938 201.164062 C 234.382812 205.539062 235.507812 208.003906 237.121094 210.914062 L 231.328125 215.886719 L 237.832031 223.644531 L 242.957031 218.722656 C 245.554688 220.800781 249.121094 222.457031 251.222656 223.304688 L 250.648438 230.117188 L 261.449219 231.027344 L 262.023438 224.21875 C 266.398438 223.917969 268.980469 222.800781 271.890625 221.191406 L 276.917969 226.984375 L 284.699219 220.484375 L 279.871094 214.527344 C 281.949219 211.929688 283.511719 209.6875 284.539062 205.425781 Z M 258.914062 210.015625 C 252.660156 209.488281 248.015625 203.988281 248.546875 197.734375 C 249.074219 191.476562 254.574219 186.832031 260.828125 187.363281 C 267.085938 187.890625 271.726562 193.390625 271.199219 199.644531 C 270.671875 205.902344 265.171875 210.542969 258.914062 210.015625 Z M 258.914062 210.015625 " fill-opacity="1" fill-rule="nonzero"/><g clip-path="url(#e34016348c)"><path fill="#ffffff" d="M 176.398438 211.265625 L 176.398438 196.847656 L 166.292969 196.847656 C 165.347656 191.539062 163.464844 187.320312 160.839844 183.398438 L 168.414062 175.679688 L 158.3125 165.507812 L 150.039062 173.042969 C 146.121094 170.417969 141.492188 168.496094 136.179688 167.550781 L 136.179688 156.632812 L 121.765625 156.632812 L 121.765625 167.558594 C 117.210938 168.496094 113.292969 170.382812 109.382812 173.003906 L 102.183594 165.429688 L 92.269531 175.535156 L 99.949219 183.40625 C 97.328125 187.320312 95.542969 191.539062 94.597656 196.847656 L 82.308594 196.847656 L 82.308594 211.265625 L 94.601562 211.265625 C 95.542969 215.820312 97.425781 220.140625 100.046875 224.054688 L 92.464844 231.457031 L 102.566406 241.472656 L 109.382812 233.847656 C 113.296875 236.464844 117.210938 238.304688 121.765625 239.246094 L 121.765625 250.722656 L 136.179688 250.722656 L 136.179688 239.25 C 141.492188 238.304688 146.121094 236.421875 150.03125 233.800781 L 157.960938 241.378906 L 168.238281 231.277344 L 160.753906 224.058594 C 163.375 220.144531 165.347656 215.820312 166.289062 211.265625 Z M 130.6875 219.582031 C 121.796875 219.582031 114.59375 212.378906 114.59375 203.488281 C 114.59375 194.597656 121.796875 187.390625 130.6875 187.390625 C 139.574219 187.390625 146.78125 194.597656 146.78125 203.488281 C 146.78125 212.378906 139.574219 219.582031 130.6875 219.582031 Z M 130.6875 219.582031 " fill-opacity="1" fill-rule="nonzero"/></g><g clip-path="url(#21fd6e597e)"><path fill="#7d7c7c" d="M 220.117188 242.886719 L 226.234375 243.292969 C 228.46875 243.445312 230.566406 242.34375 231.699219 240.410156 L 235.160156 234.550781 C 235.292969 234.324219 235.355469 234.050781 235.339844 233.792969 L 235.128906 229.429688 C 235.097656 228.960938 234.839844 228.539062 234.433594 228.3125 C 234.027344 228.085938 233.527344 228.085938 233.121094 228.296875 L 227.304688 231.453125 C 226.113281 232.101562 224.601562 231.710938 223.875 230.5625 L 223.800781 230.441406 C 223.421875 229.851562 223.300781 229.144531 223.453125 228.449219 C 223.621094 227.753906 224.042969 227.179688 224.648438 226.816406 L 229.886719 223.675781 C 230.324219 223.417969 230.566406 222.9375 230.550781 222.4375 C 230.523438 221.9375 230.21875 221.484375 229.765625 221.273438 C 224.753906 218.933594 219.632812 219.703125 214.542969 223.523438 C 213.257812 224.492188 212.429688 225.972656 212.246094 227.570312 L 211.523438 234.097656 L 202.082031 243.535156 L 192.914062 234.367188 C 193.203125 233.582031 193.367188 232.738281 193.367188 231.875 C 193.367188 229.957031 192.628906 228.160156 191.269531 226.816406 C 191.195312 226.742188 191.089844 226.667969 190.996094 226.605469 L 180.046875 220.21875 C 179.519531 219.898438 178.839844 219.992188 178.402344 220.429688 L 173.207031 225.625 C 172.785156 226.046875 172.695312 226.695312 172.964844 227.226562 L 179.035156 238.476562 C 179.097656 238.597656 179.171875 238.703125 179.277344 238.792969 C 180.667969 240.183594 182.511719 240.894531 184.335938 240.894531 C 185.183594 240.894531 186.027344 240.742188 186.828125 240.441406 L 195.996094 249.605469 L 186.015625 259.589844 L 179.203125 260.554688 C 177.496094 260.796875 175.984375 261.78125 175.066406 263.230469 C 172.164062 267.746094 171.589844 272.414062 173.371094 277.0625 C 173.554688 277.53125 173.976562 277.863281 174.476562 277.925781 C 174.972656 277.984375 175.472656 277.773438 175.757812 277.351562 L 179.472656 272.078125 C 180.457031 270.675781 182.359375 270.3125 183.808594 271.234375 C 185.242188 272.15625 185.695312 274.027344 184.851562 275.507812 L 181.980469 280.492188 C 181.738281 280.914062 181.738281 281.429688 181.980469 281.851562 C 182.222656 282.273438 182.675781 282.53125 183.160156 282.53125 L 186.875 282.53125 C 187.160156 282.53125 187.433594 282.441406 187.660156 282.289062 L 192.945312 278.558594 C 194.621094 277.382812 195.574219 275.371094 195.4375 273.320312 L 195.058594 267.941406 L 204.695312 258.304688 L 210.496094 264.105469 L 208.15625 266.445312 C 207.625 266.976562 207.625 267.835938 208.15625 268.363281 L 219.617188 279.828125 C 221.371094 281.578125 223.664062 282.457031 225.960938 282.457031 C 228.257812 282.457031 230.550781 281.578125 232.304688 279.828125 C 235.808594 276.324219 235.808594 270.628906 232.304688 267.140625 L 220.839844 255.679688 C 220.3125 255.148438 219.453125 255.148438 218.921875 255.679688 L 216.582031 258.019531 L 210.78125 252.21875 Z M 213.773438 235.683594 C 213.984375 235.472656 214.136719 235.183594 214.164062 234.867188 L 214.949219 227.859375 C 215.042969 227 215.496094 226.199219 216.175781 225.683594 C 219.527344 223.164062 222.757812 222.210938 225.960938 222.84375 L 223.242188 224.476562 C 222.003906 225.214844 221.128906 226.410156 220.796875 227.8125 C 220.464844 229.21875 220.703125 230.667969 221.492188 231.890625 L 221.566406 232.011719 C 223.0625 234.351562 226.140625 235.140625 228.574219 233.824219 L 232.5 231.695312 L 232.589844 233.492188 L 229.328125 239.003906 C 228.710938 240.046875 227.578125 240.636719 226.382812 240.5625 L 219.648438 240.121094 C 219.253906 240.09375 218.878906 240.242188 218.589844 240.515625 L 208.847656 250.300781 L 204.015625 245.453125 Z M 181.332031 236.996094 L 175.835938 226.832031 L 179.582031 223.085938 L 189.457031 228.839844 C 190.226562 229.671875 190.652344 230.730469 190.652344 231.863281 C 190.652344 233.054688 190.183594 234.15625 189.351562 235.003906 L 187.492188 236.859375 C 185.800781 238.566406 183.070312 238.597656 181.332031 236.996094 Z M 192.703125 266.460938 C 192.433594 266.734375 192.28125 267.125 192.3125 267.519531 L 192.734375 273.515625 C 192.808594 274.617188 192.296875 275.703125 191.390625 276.339844 L 186.46875 279.8125 L 185.53125 279.8125 L 187.222656 276.867188 C 188.792969 274.132812 187.945312 270.660156 185.289062 268.953125 C 182.617188 267.230469 179.097656 267.925781 177.269531 270.523438 L 175.214844 273.4375 C 174.777344 270.507812 175.488281 267.625 177.359375 264.710938 C 177.875 263.925781 178.6875 263.394531 179.59375 263.261719 L 186.84375 262.21875 C 187.132812 262.171875 187.402344 262.035156 187.613281 261.839844 L 197.914062 251.539062 L 202.761719 256.386719 Z M 219.875 258.5625 L 230.371094 269.058594 C 232.800781 271.492188 232.800781 275.464844 230.371094 277.910156 C 227.9375 280.339844 223.96875 280.339844 221.519531 277.910156 L 211.039062 267.398438 Z M 212.414062 262.171875 L 189.230469 238.976562 L 191.464844 236.738281 L 214.664062 259.9375 Z M 212.414062 262.171875 " fill-opacity="1" fill-rule="nonzero"/></g><g fill="#f46b27" fill-opacity="1"><g transform="translate(83.658037, 105.130138)"><g><path d="M 16.03125 -16.859375 L 8.875 -9.328125 C 7.9375 -8.347656 7.140625 -7.5 6.484375 -6.78125 C 5.828125 -6.070312 5.265625 -5.472656 4.796875 -4.984375 C 4.078125 -4.222656 3.546875 -3.726562 3.203125 -3.5 C 2.859375 -3.28125 2.578125 -3.273438 2.359375 -3.484375 C 2.179688 -3.660156 2.015625 -3.925781 1.859375 -4.28125 C 1.710938 -4.632812 1.484375 -5.066406 1.171875 -5.578125 C 0.785156 -6.203125 0.347656 -6.800781 -0.140625 -7.375 C -0.640625 -7.945312 -1.066406 -8.40625 -1.421875 -8.75 L -14.640625 -21.3125 C -15.003906 -21.65625 -15.476562 -22.050781 -16.0625 -22.5 C -16.644531 -22.957031 -17.265625 -23.375 -17.921875 -23.75 C -18.492188 -24.039062 -18.96875 -24.257812 -19.34375 -24.40625 C -19.71875 -24.550781 -19.988281 -24.695312 -20.15625 -24.84375 C -20.351562 -25.039062 -20.351562 -25.289062 -20.15625 -25.59375 C -19.96875 -25.90625 -19.550781 -26.394531 -18.90625 -27.0625 C -18.488281 -27.507812 -17.96875 -28.050781 -17.34375 -28.6875 C -16.726562 -29.320312 -16 -30.082031 -15.15625 -30.96875 L -8.59375 -37.875 C -7.488281 -39.03125 -6.210938 -39.8125 -4.765625 -40.21875 C -3.316406 -40.625 -1.875 -40.675781 -0.4375 -40.375 C 1 -40.070312 2.25 -39.414062 3.3125 -38.40625 C 3.769531 -37.96875 4.160156 -37.484375 4.484375 -36.953125 C 4.816406 -36.429688 5.082031 -35.898438 5.28125 -35.359375 C 5.519531 -34.804688 5.703125 -34.375 5.828125 -34.0625 C 5.953125 -33.75 6.109375 -33.507812 6.296875 -33.34375 C 6.472656 -33.164062 6.722656 -33.050781 7.046875 -33 C 7.378906 -32.945312 7.851562 -32.898438 8.46875 -32.859375 C 9.09375 -32.828125 9.953125 -32.6875 11.046875 -32.4375 C 11.921875 -32.238281 12.769531 -31.9375 13.59375 -31.53125 C 14.425781 -31.132812 15.175781 -30.613281 15.84375 -29.96875 C 17.03125 -28.84375 17.835938 -27.492188 18.265625 -25.921875 C 18.691406 -24.347656 18.722656 -22.753906 18.359375 -21.140625 C 18.003906 -19.535156 17.226562 -18.109375 16.03125 -16.859375 Z M 9.078125 -23.421875 C 8.023438 -24.421875 6.921875 -25.070312 5.765625 -25.375 C 4.617188 -25.6875 3.753906 -25.550781 3.171875 -24.96875 L 0.96875 -22.65625 C 0.4375 -22.09375 0.046875 -21.632812 -0.203125 -21.28125 C -0.453125 -20.9375 -0.53125 -20.578125 -0.4375 -20.203125 C -0.34375 -19.835938 -0.0390625 -19.382812 0.46875 -18.84375 C 0.988281 -18.3125 1.738281 -17.582031 2.71875 -16.65625 C 3.675781 -15.738281 4.429688 -15.035156 4.984375 -14.546875 C 5.546875 -14.066406 6.015625 -13.789062 6.390625 -13.71875 C 6.765625 -13.644531 7.117188 -13.738281 7.453125 -14 C 7.785156 -14.257812 8.21875 -14.671875 8.75 -15.234375 L 10.953125 -17.546875 C 11.484375 -18.191406 11.5625 -19.082031 11.1875 -20.21875 C 10.820312 -21.351562 10.117188 -22.421875 9.078125 -23.421875 Z M -7.9375 -32.53125 L -9.359375 -31.03125 C -9.828125 -30.53125 -10.117188 -30.128906 -10.234375 -29.828125 C -10.347656 -29.535156 -10.195312 -29.148438 -9.78125 -28.671875 C -9.363281 -28.191406 -8.597656 -27.421875 -7.484375 -26.359375 C -6.390625 -25.316406 -5.59375 -24.597656 -5.09375 -24.203125 C -4.59375 -23.816406 -4.195312 -23.6875 -3.90625 -23.8125 C -3.613281 -23.9375 -3.234375 -24.25 -2.765625 -24.75 L -1.34375 -26.25 C -0.832031 -26.78125 -0.71875 -27.519531 -1 -28.46875 C -1.28125 -29.425781 -1.910156 -30.375 -2.890625 -31.3125 C -3.847656 -32.226562 -4.796875 -32.800781 -5.734375 -33.03125 C -6.671875 -33.257812 -7.40625 -33.09375 -7.9375 -32.53125 Z M -7.9375 -32.53125 "/></g></g></g><g fill="#f46b27" fill-opacity="1"><g transform="translate(107.610306, 79.893618)"><g><path d="M 7.046875 -7.390625 C 7.273438 -6.953125 7.492188 -6.597656 7.703125 -6.328125 C 7.910156 -6.066406 8.070312 -5.84375 8.1875 -5.65625 C 8.332031 -5.394531 8.328125 -5.171875 8.171875 -4.984375 C 8.015625 -4.796875 7.550781 -4.472656 6.78125 -4.015625 L 5.078125 -3.015625 C 3.941406 -2.335938 3.144531 -1.851562 2.6875 -1.5625 C 2.238281 -1.269531 1.960938 -1.207031 1.859375 -1.375 C 1.785156 -1.507812 1.789062 -1.847656 1.875 -2.390625 C 1.96875 -2.941406 1.992188 -3.675781 1.953125 -4.59375 C 1.898438 -5.5625 1.847656 -6.394531 1.796875 -7.09375 C 1.753906 -7.800781 1.65625 -8.597656 1.5 -9.484375 C 1.351562 -10.367188 1.128906 -11.523438 0.828125 -12.953125 C 0.523438 -14.390625 0.132812 -16.300781 -0.34375 -18.6875 L -2.28125 -28.375 C -2.40625 -28.90625 -2.578125 -29.523438 -2.796875 -30.234375 C -3.023438 -30.941406 -3.300781 -31.597656 -3.625 -32.203125 C -3.863281 -32.660156 -4.097656 -33.023438 -4.328125 -33.296875 C -4.566406 -33.566406 -4.742188 -33.796875 -4.859375 -33.984375 C -5.003906 -34.234375 -4.988281 -34.441406 -4.8125 -34.609375 C -4.644531 -34.785156 -4.25 -35.0625 -3.625 -35.4375 L -2.109375 -36.34375 C -1.285156 -36.820312 -0.582031 -37.1875 0 -37.4375 C 0.582031 -37.695312 1.171875 -37.769531 1.765625 -37.65625 C 2.367188 -37.550781 3.097656 -37.234375 3.953125 -36.703125 C 4.804688 -36.171875 5.90625 -35.351562 7.25 -34.25 C 8.601562 -33.15625 10.316406 -31.738281 12.390625 -30 L 22.765625 -21.265625 C 23.179688 -20.910156 23.71875 -20.507812 24.375 -20.0625 C 25.039062 -19.613281 25.742188 -19.210938 26.484375 -18.859375 C 27.203125 -18.503906 27.785156 -18.25 28.234375 -18.09375 C 28.679688 -17.945312 28.953125 -17.800781 29.046875 -17.65625 C 29.117188 -17.519531 29.046875 -17.347656 28.828125 -17.140625 C 28.617188 -16.929688 28.207031 -16.648438 27.59375 -16.296875 C 27.21875 -16.066406 26.757812 -15.800781 26.21875 -15.5 C 25.6875 -15.207031 25.0625 -14.847656 24.34375 -14.421875 L 21.890625 -12.96875 C 21.015625 -12.457031 20.367188 -12.109375 19.953125 -11.921875 C 19.546875 -11.734375 19.242188 -11.675781 19.046875 -11.75 C 18.859375 -11.820312 18.6875 -12.019531 18.53125 -12.34375 C 18.382812 -12.675781 18.140625 -13.097656 17.796875 -13.609375 C 17.472656 -14.160156 17.0625 -14.703125 16.5625 -15.234375 C 16.070312 -15.765625 15.625 -16.222656 15.21875 -16.609375 L 14.46875 -17.21875 C 14.21875 -17.457031 13.984375 -17.582031 13.765625 -17.59375 C 13.546875 -17.613281 13.128906 -17.460938 12.515625 -17.140625 C 11.910156 -16.816406 10.90625 -16.238281 9.5 -15.40625 C 8.125 -14.59375 7.144531 -13.992188 6.5625 -13.609375 C 5.988281 -13.234375 5.648438 -12.953125 5.546875 -12.765625 C 5.453125 -12.585938 5.445312 -12.34375 5.53125 -12.03125 C 5.632812 -11.625 5.773438 -11.007812 5.953125 -10.1875 C 6.128906 -9.363281 6.492188 -8.429688 7.046875 -7.390625 Z M 7.375 -18.984375 C 8.28125 -19.515625 8.898438 -19.929688 9.234375 -20.234375 C 9.578125 -20.535156 9.613281 -20.914062 9.34375 -21.375 C 9.164062 -21.6875 8.8125 -22.082031 8.28125 -22.5625 C 7.757812 -23.039062 7.066406 -23.65625 6.203125 -24.40625 C 5.160156 -25.320312 4.363281 -26 3.8125 -26.4375 C 3.257812 -26.882812 2.890625 -27.050781 2.703125 -26.9375 C 2.523438 -26.832031 2.488281 -26.425781 2.59375 -25.71875 C 2.707031 -25.019531 2.914062 -23.992188 3.21875 -22.640625 C 3.457031 -21.515625 3.660156 -20.609375 3.828125 -19.921875 C 4.003906 -19.234375 4.179688 -18.734375 4.359375 -18.421875 C 4.628906 -17.960938 4.976562 -17.8125 5.40625 -17.96875 C 5.84375 -18.125 6.5 -18.460938 7.375 -18.984375 Z M 7.375 -18.984375 "/></g></g></g><g fill="#f46b27" fill-opacity="1"><g transform="translate(139.80706, 61.288013)"><g><path d="M 18.109375 -4.140625 C 15.847656 -3.515625 13.613281 -3.351562 11.40625 -3.65625 C 9.207031 -3.96875 7.148438 -4.671875 5.234375 -5.765625 C 3.328125 -6.859375 1.679688 -8.269531 0.296875 -10 C -1.078125 -11.726562 -2.070312 -13.71875 -2.6875 -15.96875 C -3.300781 -18.195312 -3.472656 -20.40625 -3.203125 -22.59375 C -2.929688 -24.789062 -2.285156 -26.835938 -1.265625 -28.734375 C -0.253906 -30.640625 1.046875 -32.273438 2.640625 -33.640625 C 4.242188 -35.003906 6.085938 -35.972656 8.171875 -36.546875 C 9.566406 -36.921875 10.765625 -37.078125 11.765625 -37.015625 C 12.773438 -36.953125 13.6875 -36.859375 14.5 -36.734375 C 15.320312 -36.617188 16.09375 -36.65625 16.8125 -36.84375 C 17.394531 -37.007812 17.835938 -37.289062 18.140625 -37.6875 C 18.429688 -38.050781 18.632812 -38.3125 18.75 -38.46875 C 18.863281 -38.625 18.972656 -38.585938 19.078125 -38.359375 C 19.191406 -38.140625 19.351562 -37.660156 19.5625 -36.921875 C 19.78125 -36.179688 20.125 -35.082031 20.59375 -33.625 C 21.039062 -32.238281 21.367188 -31.25 21.578125 -30.65625 C 21.785156 -30.0625 21.8125 -29.742188 21.65625 -29.703125 C 21.476562 -29.648438 21.046875 -29.835938 20.359375 -30.265625 C 19.671875 -30.703125 18.648438 -31.203125 17.296875 -31.765625 C 16.171875 -32.210938 15.023438 -32.507812 13.859375 -32.65625 C 12.703125 -32.8125 11.664062 -32.765625 10.75 -32.515625 C 9.320312 -32.128906 8.179688 -31.25 7.328125 -29.875 C 6.472656 -28.507812 5.957031 -26.820312 5.78125 -24.8125 C 5.613281 -22.8125 5.84375 -20.664062 6.46875 -18.375 C 7.113281 -16.03125 8.039062 -14.070312 9.25 -12.5 C 10.457031 -10.925781 11.84375 -9.816406 13.40625 -9.171875 C 14.96875 -8.523438 16.597656 -8.4375 18.296875 -8.90625 C 19.648438 -9.269531 20.816406 -9.972656 21.796875 -11.015625 C 22.609375 -11.867188 23.207031 -12.554688 23.59375 -13.078125 C 23.976562 -13.597656 24.257812 -13.984375 24.4375 -14.234375 C 24.625 -14.484375 24.828125 -14.609375 25.046875 -14.609375 C 25.273438 -14.617188 25.644531 -14.53125 26.15625 -14.34375 C 26.925781 -14.0625 27.390625 -13.640625 27.546875 -13.078125 C 27.691406 -12.546875 27.546875 -11.851562 27.109375 -11 C 26.671875 -10.144531 25.835938 -9.050781 24.609375 -7.71875 C 23.773438 -6.851562 22.800781 -6.125 21.6875 -5.53125 C 20.582031 -4.945312 19.390625 -4.484375 18.109375 -4.140625 Z M 18.109375 -4.140625 "/></g></g></g><g fill="#f46b27" fill-opacity="1"><g transform="translate(171.519554, 52.401727)"><g><path d="M 24.796875 -25.359375 L 22.890625 -23.1875 C 22.515625 -22.789062 22.222656 -22.441406 22.015625 -22.140625 C 21.816406 -21.835938 21.71875 -21.5 21.71875 -21.125 C 21.71875 -20.539062 22.003906 -19.710938 22.578125 -18.640625 C 23.160156 -17.578125 24.109375 -15.90625 25.421875 -13.625 L 29.859375 -6.21875 C 30.191406 -5.664062 30.617188 -5.046875 31.140625 -4.359375 C 31.660156 -3.679688 32.210938 -3.019531 32.796875 -2.375 C 33.441406 -1.6875 33.953125 -1.164062 34.328125 -0.8125 C 34.710938 -0.457031 34.90625 -0.203125 34.90625 -0.046875 C 34.90625 0.140625 34.472656 0.226562 33.609375 0.21875 C 33.117188 0.21875 32.472656 0.207031 31.671875 0.1875 C 30.867188 0.164062 29.882812 0.15625 28.71875 0.15625 C 26.78125 0.144531 25.34375 0.117188 24.40625 0.078125 C 23.46875 0.046875 22.835938 -0.0507812 22.515625 -0.21875 C 22.191406 -0.382812 21.992188 -0.660156 21.921875 -1.046875 C 21.847656 -1.441406 21.71875 -1.976562 21.53125 -2.65625 C 21.34375 -3.363281 21.082031 -4.070312 20.75 -4.78125 C 20.414062 -5.488281 20.097656 -6.101562 19.796875 -6.625 L 17.46875 -10.53125 C 16.695312 -11.851562 16.144531 -12.773438 15.8125 -13.296875 C 15.476562 -13.828125 15.242188 -14.097656 15.109375 -14.109375 C 14.972656 -14.128906 14.796875 -14.019531 14.578125 -13.78125 C 14.390625 -13.5625 14.242188 -13.359375 14.140625 -13.171875 C 14.046875 -12.984375 13.988281 -12.664062 13.96875 -12.21875 C 13.957031 -11.78125 13.945312 -11.050781 13.9375 -10.03125 L 13.921875 -6.984375 C 13.921875 -6.492188 13.957031 -5.867188 14.03125 -5.109375 C 14.101562 -4.359375 14.25 -3.628906 14.46875 -2.921875 C 14.6875 -2.242188 14.875 -1.703125 15.03125 -1.296875 C 15.195312 -0.898438 15.28125 -0.597656 15.28125 -0.390625 C 15.28125 -0.171875 15.164062 -0.03125 14.9375 0.03125 C 14.707031 0.09375 14.285156 0.125 13.671875 0.125 C 13.234375 0.113281 12.679688 0.0976562 12.015625 0.078125 C 11.359375 0.0664062 10.570312 0.0546875 9.65625 0.046875 C 8.726562 0.046875 7.929688 0.0507812 7.265625 0.0625 C 6.609375 0.0703125 6.066406 0.078125 5.640625 0.078125 C 5.046875 0.078125 4.625 0.046875 4.375 -0.015625 C 4.132812 -0.0859375 4.015625 -0.234375 4.015625 -0.453125 C 4.015625 -0.660156 4.101562 -0.960938 4.28125 -1.359375 C 4.457031 -1.753906 4.648438 -2.289062 4.859375 -2.96875 C 5.046875 -3.675781 5.179688 -4.40625 5.265625 -5.15625 C 5.347656 -5.914062 5.390625 -6.539062 5.390625 -7.03125 L 5.5 -25.265625 C 5.5 -25.765625 5.460938 -26.378906 5.390625 -27.109375 C 5.316406 -27.847656 5.1875 -28.585938 5 -29.328125 C 4.789062 -30.003906 4.601562 -30.546875 4.4375 -30.953125 C 4.269531 -31.359375 4.1875 -31.671875 4.1875 -31.890625 C 4.1875 -32.109375 4.300781 -32.234375 4.53125 -32.265625 C 4.757812 -32.304688 5.171875 -32.328125 5.765625 -32.328125 C 6.191406 -32.328125 6.734375 -32.316406 7.390625 -32.296875 C 8.054688 -32.285156 8.867188 -32.28125 9.828125 -32.28125 C 10.773438 -32.269531 11.578125 -32.269531 12.234375 -32.28125 C 12.898438 -32.289062 13.453125 -32.289062 13.890625 -32.28125 C 14.503906 -32.28125 14.914062 -32.257812 15.125 -32.21875 C 15.34375 -32.175781 15.453125 -32.046875 15.453125 -31.828125 C 15.453125 -31.609375 15.363281 -31.304688 15.1875 -30.921875 C 15.019531 -30.535156 14.84375 -30.003906 14.65625 -29.328125 C 14.4375 -28.617188 14.273438 -27.894531 14.171875 -27.15625 C 14.078125 -26.425781 14.03125 -25.8125 14.03125 -25.3125 L 14.015625 -22.21875 C 14.003906 -21.476562 14.015625 -20.914062 14.046875 -20.53125 C 14.078125 -20.144531 14.171875 -19.953125 14.328125 -19.953125 C 14.578125 -19.953125 15.445312 -20.796875 16.9375 -22.484375 L 19.859375 -25.796875 C 20.285156 -26.316406 20.765625 -26.929688 21.296875 -27.640625 C 21.828125 -28.347656 22.242188 -29.003906 22.546875 -29.609375 C 22.859375 -30.160156 23.078125 -30.613281 23.203125 -30.96875 C 23.328125 -31.320312 23.515625 -31.582031 23.765625 -31.75 C 24.015625 -31.925781 24.460938 -32.039062 25.109375 -32.09375 C 25.753906 -32.15625 26.769531 -32.179688 28.15625 -32.171875 C 29.539062 -32.171875 30.554688 -32.1875 31.203125 -32.21875 C 31.847656 -32.257812 32.171875 -32.207031 32.171875 -32.0625 C 32.171875 -31.9375 31.882812 -31.664062 31.3125 -31.25 C 30.738281 -30.84375 29.925781 -30.191406 28.875 -29.296875 C 28.070312 -28.628906 27.304688 -27.929688 26.578125 -27.203125 C 25.847656 -26.484375 25.253906 -25.867188 24.796875 -25.359375 Z M 24.796875 -25.359375 "/></g></g></g><g fill="#f46b27" fill-opacity="1"><g transform="translate(209.613158, 53.214276)"><g><path d="M 28.640625 2.453125 C 28.304688 3.460938 27.988281 4.265625 27.6875 4.859375 C 27.394531 5.460938 27.003906 5.890625 26.515625 6.140625 C 26.023438 6.390625 25.320312 6.472656 24.40625 6.390625 C 23.5 6.304688 22.265625 6.066406 20.703125 5.671875 C 19.148438 5.273438 17.144531 4.738281 14.6875 4.0625 C 13.082031 3.613281 11.695312 3.238281 10.53125 2.9375 C 9.375 2.632812 8.394531 2.375 7.59375 2.15625 C 6.226562 1.769531 5.304688 1.457031 4.828125 1.21875 C 4.359375 0.976562 4.164062 0.695312 4.25 0.375 C 4.320312 0.132812 4.472656 -0.132812 4.703125 -0.4375 C 4.929688 -0.75 5.1875 -1.132812 5.46875 -1.59375 C 5.863281 -2.226562 6.195312 -2.894531 6.46875 -3.59375 C 6.75 -4.300781 6.953125 -4.894531 7.078125 -5.375 L 11.9375 -22.9375 C 12.070312 -23.425781 12.203125 -24.035156 12.328125 -24.765625 C 12.453125 -25.492188 12.507812 -26.238281 12.5 -27 C 12.488281 -27.550781 12.460938 -28.015625 12.421875 -28.390625 C 12.378906 -28.773438 12.390625 -29.066406 12.453125 -29.265625 C 12.546875 -29.597656 12.84375 -29.75 13.34375 -29.71875 C 13.84375 -29.6875 14.734375 -29.492188 16.015625 -29.140625 C 16.773438 -28.929688 17.71875 -28.664062 18.84375 -28.34375 C 19.96875 -28.019531 21.304688 -27.644531 22.859375 -27.21875 C 25.191406 -26.570312 27.109375 -26.023438 28.609375 -25.578125 C 30.109375 -25.128906 31.253906 -24.707031 32.046875 -24.3125 C 32.835938 -23.914062 33.367188 -23.488281 33.640625 -23.03125 C 33.921875 -22.570312 34.03125 -22.003906 33.96875 -21.328125 C 33.90625 -20.660156 33.765625 -19.800781 33.546875 -18.75 C 33.265625 -17.414062 33.070312 -16.472656 32.96875 -15.921875 C 32.875 -15.378906 32.769531 -15.125 32.65625 -15.15625 C 32.53125 -15.1875 32.382812 -15.429688 32.21875 -15.890625 C 32.0625 -16.359375 31.769531 -16.96875 31.34375 -17.71875 C 30.875 -18.59375 30.160156 -19.453125 29.203125 -20.296875 C 28.242188 -21.140625 26.929688 -21.789062 25.265625 -22.25 L 23.09375 -22.84375 C 22.375 -23.039062 21.84375 -23.113281 21.5 -23.0625 C 21.164062 -23.007812 20.878906 -22.660156 20.640625 -22.015625 C 20.410156 -21.378906 20.070312 -20.257812 19.625 -18.65625 C 19.1875 -17.0625 18.945312 -15.859375 18.90625 -15.046875 C 18.875 -14.242188 19.1875 -13.75 19.84375 -13.5625 C 20.4375 -13.40625 21.460938 -13.476562 22.921875 -13.78125 C 23.640625 -13.9375 24.210938 -14.085938 24.640625 -14.234375 C 25.066406 -14.390625 25.351562 -14.445312 25.5 -14.40625 C 25.644531 -14.363281 25.691406 -14.234375 25.640625 -14.015625 C 25.597656 -13.796875 25.503906 -13.414062 25.359375 -12.875 L 23.8125 -7.265625 C 23.644531 -6.671875 23.515625 -6.257812 23.421875 -6.03125 C 23.328125 -5.800781 23.203125 -5.707031 23.046875 -5.75 C 22.898438 -5.789062 22.691406 -5.984375 22.421875 -6.328125 C 22.148438 -6.671875 21.738281 -7.078125 21.1875 -7.546875 C 20.632812 -8.054688 20.15625 -8.453125 19.75 -8.734375 C 19.351562 -9.023438 18.992188 -9.210938 18.671875 -9.296875 C 18.015625 -9.484375 17.492188 -9.222656 17.109375 -8.515625 C 16.722656 -7.804688 16.300781 -6.632812 15.84375 -5 C 15.414062 -3.4375 15.144531 -2.316406 15.03125 -1.640625 C 14.925781 -0.960938 15.035156 -0.503906 15.359375 -0.265625 C 15.679688 -0.0351562 16.273438 0.195312 17.140625 0.4375 L 19.75 1.15625 C 21.414062 1.613281 22.875 1.734375 24.125 1.515625 C 25.375 1.304688 26.425781 0.9375 27.28125 0.40625 C 28.289062 -0.238281 28.992188 -0.722656 29.390625 -1.046875 C 29.785156 -1.367188 29.90625 -1.265625 29.75 -0.734375 C 29.675781 -0.460938 29.546875 -0.078125 29.359375 0.421875 C 29.171875 0.921875 28.929688 1.597656 28.640625 2.453125 Z M 28.640625 2.453125 "/></g></g></g><g fill="#f46b27" fill-opacity="1"><g transform="translate(239.542534, 61.238709)"><g><path d="M 10.03125 2.765625 C 9.875 3.597656 9.773438 4.226562 9.734375 4.65625 C 9.703125 5.082031 9.632812 5.335938 9.53125 5.421875 C 9.425781 5.503906 9.144531 5.414062 8.6875 5.15625 C 8.425781 5 8.09375 4.789062 7.6875 4.53125 C 7.289062 4.28125 6.785156 3.972656 6.171875 3.609375 C 4.921875 2.878906 4.066406 2.390625 3.609375 2.140625 C 3.148438 1.898438 2.976562 1.679688 3.09375 1.484375 C 3.1875 1.335938 3.414062 1.144531 3.78125 0.90625 C 4.144531 0.675781 4.613281 0.28125 5.1875 -0.28125 C 5.726562 -0.78125 6.210938 -1.320312 6.640625 -1.90625 C 7.078125 -2.5 7.4375 -2.992188 7.71875 -3.390625 L 17.140625 -19.5 C 17.367188 -19.96875 17.628906 -20.53125 17.921875 -21.1875 C 18.222656 -21.851562 18.457031 -22.535156 18.625 -23.234375 C 18.84375 -24.097656 18.960938 -24.765625 18.984375 -25.234375 C 19.015625 -25.703125 19.101562 -25.957031 19.25 -26 C 19.40625 -26.050781 19.765625 -25.910156 20.328125 -25.578125 C 20.617188 -25.410156 21.003906 -25.179688 21.484375 -24.890625 C 21.972656 -24.597656 22.566406 -24.25 23.265625 -23.84375 C 24.296875 -23.238281 25.132812 -22.707031 25.78125 -22.25 C 26.425781 -21.800781 26.929688 -21.28125 27.296875 -20.6875 C 27.671875 -20.101562 27.941406 -19.34375 28.109375 -18.40625 C 28.273438 -17.46875 28.378906 -16.238281 28.421875 -14.71875 C 28.472656 -13.195312 28.507812 -11.234375 28.53125 -8.828125 C 28.601562 -5.535156 28.671875 -3.101562 28.734375 -1.53125 C 28.796875 0.03125 28.976562 0.894531 29.28125 1.0625 C 29.507812 1.207031 29.847656 0.941406 30.296875 0.265625 C 30.753906 -0.410156 31.375 -1.414062 32.15625 -2.75 L 35.625 -8.6875 C 35.851562 -9.144531 36.117188 -9.707031 36.421875 -10.375 C 36.722656 -11.039062 36.953125 -11.71875 37.109375 -12.40625 C 37.328125 -13.269531 37.445312 -13.9375 37.46875 -14.40625 C 37.5 -14.882812 37.570312 -15.15625 37.6875 -15.21875 C 37.800781 -15.289062 38.085938 -15.195312 38.546875 -14.9375 C 38.804688 -14.78125 39.128906 -14.582031 39.515625 -14.34375 C 39.910156 -14.101562 40.40625 -13.8125 41 -13.46875 C 42.238281 -12.738281 43.09375 -12.25 43.5625 -12 C 44.039062 -11.757812 44.21875 -11.535156 44.09375 -11.328125 C 44 -11.171875 43.769531 -10.960938 43.40625 -10.703125 C 43.039062 -10.453125 42.546875 -10.046875 41.921875 -9.484375 C 41.367188 -8.941406 40.878906 -8.367188 40.453125 -7.765625 C 40.023438 -7.171875 39.6875 -6.65625 39.4375 -6.21875 L 33.046875 4.6875 C 31.765625 6.875 30.707031 8.648438 29.875 10.015625 C 29.039062 11.378906 28.351562 12.414062 27.8125 13.125 C 27.269531 13.832031 26.773438 14.28125 26.328125 14.46875 C 25.890625 14.65625 25.4375 14.65625 24.96875 14.46875 C 24.5 14.289062 23.921875 14 23.234375 13.59375 C 22.566406 13.207031 22.015625 12.835938 21.578125 12.484375 C 21.148438 12.140625 20.8125 11.703125 20.5625 11.171875 C 20.3125 10.640625 20.125 9.882812 20 8.90625 C 19.882812 7.925781 19.804688 6.59375 19.765625 4.90625 C 19.734375 3.226562 19.703125 1.082031 19.671875 -1.53125 C 19.671875 -5.113281 19.632812 -7.757812 19.5625 -9.46875 C 19.5 -11.1875 19.289062 -12.144531 18.9375 -12.34375 C 18.675781 -12.5 18.273438 -12.171875 17.734375 -11.359375 C 17.191406 -10.554688 16.453125 -9.363281 15.515625 -7.78125 L 11.484375 -0.875 C 11.210938 -0.414062 10.941406 0.140625 10.671875 0.796875 C 10.398438 1.453125 10.1875 2.109375 10.03125 2.765625 Z M 10.03125 2.765625 "/></g></g></g><g fill="#f46b27" fill-opacity="1"><g transform="translate(271.034252, 79.858959)"><g><path d="M 12.109375 12.640625 L 6.9375 7.234375 C 6.28125 6.546875 5.695312 5.953125 5.1875 5.453125 C 4.6875 4.953125 4.273438 4.53125 3.953125 4.1875 C 3.503906 3.726562 3.21875 3.390625 3.09375 3.171875 C 2.96875 2.953125 2.988281 2.765625 3.15625 2.609375 C 3.300781 2.460938 3.578125 2.3125 3.984375 2.15625 C 4.398438 2.007812 4.910156 1.765625 5.515625 1.421875 C 6.160156 1.066406 6.78125 0.65625 7.375 0.1875 C 7.96875 -0.269531 8.441406 -0.671875 8.796875 -1.015625 L 21.96875 -13.625 C 22.332031 -13.96875 22.75 -14.421875 23.21875 -14.984375 C 23.695312 -15.554688 24.140625 -16.164062 24.546875 -16.8125 C 24.921875 -17.40625 25.1875 -17.894531 25.34375 -18.28125 C 25.5 -18.675781 25.65625 -18.953125 25.8125 -19.109375 C 25.96875 -19.253906 26.148438 -19.257812 26.359375 -19.125 C 26.566406 -18.988281 26.894531 -18.691406 27.34375 -18.234375 C 27.664062 -17.890625 28.0625 -17.460938 28.53125 -16.953125 C 29.007812 -16.453125 29.59375 -15.847656 30.28125 -15.140625 L 35.453125 -9.734375 C 37.054688 -8.066406 38.238281 -6.253906 39 -4.296875 C 39.757812 -2.347656 40.109375 -0.367188 40.046875 1.640625 C 39.992188 3.660156 39.53125 5.628906 38.65625 7.546875 C 37.789062 9.460938 36.523438 11.21875 34.859375 12.8125 C 33.171875 14.425781 31.332031 15.632812 29.34375 16.4375 C 27.363281 17.25 25.347656 17.640625 23.296875 17.609375 C 21.253906 17.578125 19.269531 17.148438 17.34375 16.328125 C 15.425781 15.515625 13.679688 14.285156 12.109375 12.640625 Z M 32.421875 -6.90625 L 31.171875 -8.203125 C 30.867188 -8.515625 30.582031 -8.707031 30.3125 -8.78125 C 30.039062 -8.863281 29.601562 -8.691406 29 -8.265625 C 28.40625 -7.847656 27.515625 -7.078125 26.328125 -5.953125 C 25.140625 -4.835938 23.457031 -3.234375 21.28125 -1.140625 C 19.125 0.910156 17.453125 2.515625 16.265625 3.671875 C 15.085938 4.828125 14.28125 5.691406 13.84375 6.265625 C 13.40625 6.835938 13.21875 7.257812 13.28125 7.53125 C 13.34375 7.8125 13.523438 8.109375 13.828125 8.421875 L 15.078125 9.71875 C 15.929688 10.613281 17.070312 11.039062 18.5 11 C 19.9375 10.96875 21.515625 10.535156 23.234375 9.703125 C 24.953125 8.867188 26.625 7.679688 28.25 6.140625 C 29.894531 4.554688 31.160156 2.925781 32.046875 1.25 C 32.941406 -0.414062 33.441406 -1.96875 33.546875 -3.40625 C 33.648438 -4.84375 33.273438 -6.007812 32.421875 -6.90625 Z M 32.421875 -6.90625 "/></g></g></g><g fill="#f46b27" fill-opacity="1"><g transform="translate(89.700221, 310.190001)"><g><path d="M 15.03125 10.4375 C 13.082031 9.195312 11.488281 7.664062 10.25 5.84375 C 9.007812 4.03125 8.160156 2.0625 7.703125 -0.0625 C 7.253906 -2.1875 7.210938 -4.34375 7.578125 -6.53125 C 7.941406 -8.726562 8.75 -10.816406 10 -12.796875 C 11.25 -14.773438 12.785156 -16.394531 14.609375 -17.65625 C 16.429688 -18.925781 18.398438 -19.8125 20.515625 -20.3125 C 22.640625 -20.8125 24.789062 -20.894531 26.96875 -20.5625 C 29.144531 -20.226562 31.207031 -19.441406 33.15625 -18.203125 C 35.101562 -16.972656 36.6875 -15.445312 37.90625 -13.625 C 39.132812 -11.8125 39.976562 -9.835938 40.4375 -7.703125 C 40.90625 -5.578125 40.957031 -3.414062 40.59375 -1.21875 C 40.226562 0.96875 39.421875 3.050781 38.171875 5.03125 C 36.921875 7.007812 35.382812 8.628906 33.5625 9.890625 C 31.738281 11.160156 29.757812 12.039062 27.625 12.53125 C 25.5 13.03125 23.351562 13.113281 21.1875 12.78125 C 19.03125 12.445312 16.976562 11.664062 15.03125 10.4375 Z M 30.703125 -14.328125 C 29.578125 -15.035156 28.25 -15.21875 26.71875 -14.875 C 25.195312 -14.53125 23.660156 -13.738281 22.109375 -12.5 C 20.566406 -11.257812 19.1875 -9.675781 17.96875 -7.75 C 16.75 -5.832031 15.90625 -3.90625 15.4375 -1.96875 C 14.976562 -0.03125 14.921875 1.703125 15.265625 3.234375 C 15.609375 4.765625 16.34375 5.882812 17.46875 6.59375 C 18.601562 7.3125 19.929688 7.492188 21.453125 7.140625 C 22.972656 6.785156 24.507812 5.984375 26.0625 4.734375 C 27.613281 3.492188 29 1.914062 30.21875 0 C 31.4375 -1.925781 32.273438 -3.851562 32.734375 -5.78125 C 33.191406 -7.71875 33.25 -9.445312 32.90625 -10.96875 C 32.570312 -12.488281 31.835938 -13.609375 30.703125 -14.328125 Z M 30.703125 -14.328125 "/></g></g></g><g fill="#f46b27" fill-opacity="1"><g transform="translate(129.759538, 333.455616)"><g><path d="M 14.671875 1.53125 C 14.648438 2.226562 14.65625 2.789062 14.6875 3.21875 C 14.726562 3.65625 14.71875 3.972656 14.65625 4.171875 C 14.59375 4.378906 14.453125 4.472656 14.234375 4.453125 C 14.015625 4.429688 13.613281 4.332031 13.03125 4.15625 C 12.613281 4.019531 12.097656 3.847656 11.484375 3.640625 C 10.867188 3.429688 10.113281 3.179688 9.21875 2.890625 C 8.300781 2.609375 7.523438 2.375 6.890625 2.1875 C 6.253906 2.007812 5.726562 1.851562 5.3125 1.71875 C 4.75 1.539062 4.363281 1.394531 4.15625 1.28125 C 3.957031 1.164062 3.890625 1.003906 3.953125 0.796875 C 4.015625 0.597656 4.1875 0.332031 4.46875 0 C 4.757812 -0.320312 5.109375 -0.773438 5.515625 -1.359375 C 5.941406 -2.003906 6.304688 -2.671875 6.609375 -3.359375 C 6.910156 -4.054688 7.132812 -4.640625 7.28125 -5.109375 L 12.75 -22.5 C 12.894531 -22.976562 13.039062 -23.582031 13.1875 -24.3125 C 13.34375 -25.039062 13.421875 -25.769531 13.421875 -26.5 C 13.429688 -27.050781 13.425781 -27.523438 13.40625 -27.921875 C 13.394531 -28.316406 13.421875 -28.613281 13.484375 -28.8125 C 13.585938 -29.132812 13.882812 -29.273438 14.375 -29.234375 C 14.875 -29.191406 15.769531 -28.96875 17.0625 -28.5625 C 17.832031 -28.320312 18.765625 -28.019531 19.859375 -27.65625 C 20.953125 -27.300781 22.265625 -26.882812 23.796875 -26.40625 C 26.140625 -25.664062 28.046875 -25.046875 29.515625 -24.546875 C 30.992188 -24.054688 32.125 -23.59375 32.90625 -23.15625 C 33.695312 -22.726562 34.222656 -22.28125 34.484375 -21.8125 C 34.742188 -21.351562 34.828125 -20.789062 34.734375 -20.125 C 34.648438 -19.457031 34.476562 -18.597656 34.21875 -17.546875 C 33.914062 -16.253906 33.691406 -15.332031 33.546875 -14.78125 C 33.410156 -14.226562 33.28125 -13.96875 33.15625 -14 C 33.039062 -14.039062 32.910156 -14.300781 32.765625 -14.78125 C 32.628906 -15.269531 32.375 -15.878906 32 -16.609375 C 31.5625 -17.484375 30.878906 -18.359375 29.953125 -19.234375 C 29.035156 -20.109375 27.753906 -20.800781 26.109375 -21.3125 L 23.90625 -22.015625 C 23.382812 -22.179688 22.957031 -22.28125 22.625 -22.3125 C 22.300781 -22.34375 22.03125 -22.210938 21.8125 -21.921875 C 21.59375 -21.640625 21.351562 -21.144531 21.09375 -20.4375 C 20.832031 -19.726562 20.5 -18.710938 20.09375 -17.390625 C 19.53125 -15.609375 19.195312 -14.296875 19.09375 -13.453125 C 18.988281 -12.609375 19.289062 -12.078125 20 -11.859375 C 20.320312 -11.753906 20.75 -11.703125 21.28125 -11.703125 C 21.8125 -11.703125 22.4375 -11.722656 23.15625 -11.765625 C 23.988281 -11.835938 24.628906 -11.929688 25.078125 -12.046875 C 25.535156 -12.160156 25.847656 -12.191406 26.015625 -12.140625 C 26.171875 -12.097656 26.234375 -11.957031 26.203125 -11.71875 C 26.179688 -11.488281 26.082031 -11.09375 25.90625 -10.53125 L 24.15625 -4.984375 C 24 -4.453125 23.867188 -4.082031 23.765625 -3.875 C 23.671875 -3.664062 23.546875 -3.582031 23.390625 -3.625 C 23.222656 -3.675781 22.976562 -3.890625 22.65625 -4.265625 C 22.34375 -4.640625 21.863281 -5.085938 21.21875 -5.609375 C 19.882812 -6.722656 18.910156 -7.375 18.296875 -7.5625 C 17.742188 -7.738281 17.332031 -7.613281 17.0625 -7.1875 C 16.800781 -6.769531 16.539062 -6.132812 16.28125 -5.28125 L 15.421875 -2.546875 C 15.273438 -2.078125 15.113281 -1.472656 14.9375 -0.734375 C 14.769531 -0.00390625 14.679688 0.75 14.671875 1.53125 Z M 14.671875 1.53125 "/></g></g></g><g fill="#f46b27" fill-opacity="1"><g transform="translate(166.640722, 343.914765)"><g><path d="M 14.625 -1.921875 C 14.769531 -1.234375 14.910156 -0.679688 15.046875 -0.265625 C 15.179688 0.140625 15.242188 0.445312 15.234375 0.65625 C 15.210938 0.875 15.09375 1 14.875 1.03125 C 14.664062 1.0625 14.253906 1.054688 13.640625 1.015625 C 13.203125 0.984375 12.660156 0.9375 12.015625 0.875 C 11.367188 0.8125 10.570312 0.75 9.625 0.6875 C 8.675781 0.613281 7.867188 0.5625 7.203125 0.53125 C 6.546875 0.5 6.003906 0.46875 5.578125 0.4375 C 4.984375 0.394531 4.570312 0.34375 4.34375 0.28125 C 4.113281 0.21875 4.007812 0.078125 4.03125 -0.140625 C 4.039062 -0.347656 4.144531 -0.644531 4.34375 -1.03125 C 4.550781 -1.414062 4.78125 -1.941406 5.03125 -2.609375 C 5.300781 -3.316406 5.503906 -4.046875 5.640625 -4.796875 C 5.773438 -5.546875 5.859375 -6.164062 5.890625 -6.65625 L 7.1875 -24.84375 C 7.226562 -25.34375 7.234375 -25.957031 7.203125 -26.6875 C 7.179688 -27.425781 7.082031 -28.160156 6.90625 -28.890625 C 6.800781 -29.429688 6.691406 -29.890625 6.578125 -30.265625 C 6.460938 -30.648438 6.414062 -30.945312 6.4375 -31.15625 C 6.457031 -31.5 6.710938 -31.703125 7.203125 -31.765625 C 7.703125 -31.835938 8.628906 -31.828125 9.984375 -31.734375 C 10.785156 -31.671875 11.757812 -31.59375 12.90625 -31.5 C 14.0625 -31.414062 15.441406 -31.316406 17.046875 -31.203125 C 19.492188 -31.023438 21.488281 -30.863281 23.03125 -30.71875 C 24.582031 -30.582031 25.789062 -30.394531 26.65625 -30.15625 C 27.519531 -29.925781 28.128906 -29.609375 28.484375 -29.203125 C 28.847656 -28.804688 29.066406 -28.273438 29.140625 -27.609375 C 29.210938 -26.941406 29.242188 -26.070312 29.234375 -25 C 29.234375 -23.675781 29.222656 -22.722656 29.203125 -22.140625 C 29.191406 -21.566406 29.128906 -21.285156 29.015625 -21.296875 C 28.890625 -21.304688 28.703125 -21.53125 28.453125 -21.96875 C 28.210938 -22.40625 27.820312 -22.9375 27.28125 -23.5625 C 26.65625 -24.3125 25.789062 -25.003906 24.6875 -25.640625 C 23.59375 -26.273438 22.1875 -26.65625 20.46875 -26.78125 L 18.15625 -26.9375 C 17.601562 -26.976562 17.164062 -26.976562 16.84375 -26.9375 C 16.519531 -26.894531 16.285156 -26.710938 16.140625 -26.390625 C 15.992188 -26.066406 15.875 -25.53125 15.78125 -24.78125 C 15.695312 -24.03125 15.609375 -22.960938 15.515625 -21.578125 C 15.378906 -19.710938 15.359375 -18.351562 15.453125 -17.5 C 15.554688 -16.65625 15.972656 -16.207031 16.703125 -16.15625 C 17.035156 -16.132812 17.460938 -16.179688 17.984375 -16.296875 C 18.503906 -16.421875 19.113281 -16.59375 19.8125 -16.8125 C 20.601562 -17.070312 21.207031 -17.3125 21.625 -17.53125 C 22.039062 -17.75 22.335938 -17.851562 22.515625 -17.84375 C 22.671875 -17.820312 22.757812 -17.695312 22.78125 -17.46875 C 22.8125 -17.238281 22.804688 -16.832031 22.765625 -16.25 L 22.359375 -10.4375 C 22.316406 -9.882812 22.269531 -9.492188 22.21875 -9.265625 C 22.175781 -9.035156 22.082031 -8.925781 21.9375 -8.9375 C 21.757812 -8.957031 21.46875 -9.109375 21.0625 -9.390625 C 20.664062 -9.679688 20.09375 -10.007812 19.34375 -10.375 C 17.789062 -11.132812 16.695312 -11.539062 16.0625 -11.59375 C 15.476562 -11.632812 15.101562 -11.421875 14.9375 -10.953125 C 14.78125 -10.484375 14.671875 -9.800781 14.609375 -8.90625 L 14.40625 -6.0625 C 14.375 -5.570312 14.359375 -4.945312 14.359375 -4.1875 C 14.367188 -3.425781 14.457031 -2.671875 14.625 -1.921875 Z M 14.625 -1.921875 "/></g></g></g><g fill="#f46b27" fill-opacity="1"><g transform="translate(204.32767, 345.238708)"><g><path d="M 10.5625 -26.875 L 12.921875 -8.796875 C 12.984375 -8.316406 13.085938 -7.707031 13.234375 -6.96875 C 13.390625 -6.226562 13.625 -5.515625 13.9375 -4.828125 C 14.25 -4.191406 14.515625 -3.6875 14.734375 -3.3125 C 14.953125 -2.9375 15.070312 -2.644531 15.09375 -2.4375 C 15.125 -2.21875 15.023438 -2.0625 14.796875 -1.96875 C 14.578125 -1.875 14.164062 -1.789062 13.5625 -1.71875 C 13.125 -1.65625 12.578125 -1.585938 11.921875 -1.515625 C 11.265625 -1.453125 10.484375 -1.363281 9.578125 -1.25 C 8.660156 -1.125 7.875 -1.007812 7.21875 -0.90625 C 6.5625 -0.8125 6.019531 -0.738281 5.59375 -0.6875 C 5 -0.601562 4.578125 -0.578125 4.328125 -0.609375 C 4.085938 -0.640625 3.953125 -0.765625 3.921875 -0.984375 C 3.898438 -1.191406 3.945312 -1.503906 4.0625 -1.921875 C 4.1875 -2.335938 4.300781 -2.894531 4.40625 -3.59375 C 4.53125 -4.332031 4.582031 -5.082031 4.5625 -5.84375 C 4.550781 -6.601562 4.515625 -7.222656 4.453125 -7.703125 L 2.09375 -25.78125 C 2.03125 -26.28125 1.910156 -26.890625 1.734375 -27.609375 C 1.566406 -28.328125 1.328125 -29.019531 1.015625 -29.6875 C 0.722656 -30.363281 0.46875 -30.878906 0.25 -31.234375 C 0.03125 -31.597656 -0.09375 -31.890625 -0.125 -32.109375 C -0.15625 -32.328125 -0.0546875 -32.476562 0.171875 -32.5625 C 0.410156 -32.65625 0.828125 -32.742188 1.421875 -32.828125 C 1.847656 -32.878906 2.390625 -32.941406 3.046875 -33.015625 C 3.703125 -33.085938 4.488281 -33.1875 5.40625 -33.3125 C 6.3125 -33.425781 7.09375 -33.53125 7.75 -33.625 C 8.40625 -33.71875 8.953125 -33.796875 9.390625 -33.859375 C 9.992188 -33.929688 10.410156 -33.953125 10.640625 -33.921875 C 10.878906 -33.898438 11.015625 -33.78125 11.046875 -33.5625 C 11.078125 -33.34375 11.03125 -33.03125 10.90625 -32.625 C 10.789062 -32.226562 10.671875 -31.660156 10.546875 -30.921875 C 10.421875 -30.203125 10.375 -29.472656 10.40625 -28.734375 C 10.445312 -27.992188 10.5 -27.375 10.5625 -26.875 Z M 10.5625 -26.875 "/></g></g></g><g fill="#f46b27" fill-opacity="1"><g transform="translate(232.345678, 341.312751)"><g><path d="M 17.765625 -5.453125 C 15.554688 -4.671875 13.335938 -4.347656 11.109375 -4.484375 C 8.890625 -4.628906 6.785156 -5.175781 4.796875 -6.125 C 2.816406 -7.082031 1.078125 -8.367188 -0.421875 -9.984375 C -1.929688 -11.609375 -3.078125 -13.519531 -3.859375 -15.71875 C -4.628906 -17.894531 -4.960938 -20.085938 -4.859375 -22.296875 C -4.753906 -24.515625 -4.265625 -26.609375 -3.390625 -28.578125 C -2.523438 -30.546875 -1.34375 -32.269531 0.15625 -33.75 C 1.65625 -35.238281 3.421875 -36.34375 5.453125 -37.0625 C 6.816406 -37.539062 8 -37.785156 9 -37.796875 C 10.007812 -37.804688 10.925781 -37.78125 11.75 -37.71875 C 12.570312 -37.65625 13.332031 -37.742188 14.03125 -37.984375 C 14.613281 -38.191406 15.039062 -38.503906 15.3125 -38.921875 C 15.570312 -39.316406 15.753906 -39.59375 15.859375 -39.75 C 15.960938 -39.90625 16.078125 -39.875 16.203125 -39.65625 C 16.328125 -39.445312 16.523438 -38.976562 16.796875 -38.25 C 17.066406 -37.53125 17.488281 -36.460938 18.0625 -35.046875 C 18.59375 -33.703125 18.988281 -32.738281 19.25 -32.15625 C 19.507812 -31.582031 19.566406 -31.269531 19.421875 -31.21875 C 19.242188 -31.15625 18.789062 -31.3125 18.0625 -31.6875 C 17.34375 -32.070312 16.285156 -32.492188 14.890625 -32.953125 C 13.734375 -33.316406 12.570312 -33.53125 11.40625 -33.59375 C 10.25 -33.65625 9.226562 -33.523438 8.34375 -33.203125 C 6.945312 -32.710938 5.867188 -31.753906 5.109375 -30.328125 C 4.359375 -28.898438 3.96875 -27.179688 3.9375 -25.171875 C 3.914062 -23.160156 4.300781 -21.035156 5.09375 -18.796875 C 5.90625 -16.515625 6.972656 -14.632812 8.296875 -13.15625 C 9.617188 -11.675781 11.082031 -10.671875 12.6875 -10.140625 C 14.289062 -9.617188 15.925781 -9.648438 17.59375 -10.234375 C 18.914062 -10.703125 20.023438 -11.488281 20.921875 -12.59375 C 21.671875 -13.507812 22.21875 -14.238281 22.5625 -14.78125 C 22.90625 -15.332031 23.160156 -15.738281 23.328125 -16 C 23.492188 -16.257812 23.6875 -16.398438 23.90625 -16.421875 C 24.125 -16.453125 24.492188 -16.390625 25.015625 -16.234375 C 25.816406 -16.003906 26.316406 -15.613281 26.515625 -15.0625 C 26.691406 -14.539062 26.59375 -13.835938 26.21875 -12.953125 C 25.851562 -12.078125 25.097656 -10.925781 23.953125 -9.5 C 23.203125 -8.59375 22.296875 -7.800781 21.234375 -7.125 C 20.171875 -6.457031 19.015625 -5.898438 17.765625 -5.453125 Z M 17.765625 -5.453125 "/></g></g></g><g fill="#f46b27" fill-opacity="1"><g transform="translate(271.066873, 326.208289)"><g><path d="M 20.59375 -20.03125 C 21.132812 -19.125 21.535156 -18.359375 21.796875 -17.734375 C 22.066406 -17.117188 22.132812 -16.546875 22 -16.015625 C 21.875 -15.492188 21.476562 -14.910156 20.8125 -14.265625 C 20.15625 -13.617188 19.164062 -12.835938 17.84375 -11.921875 C 16.53125 -11.015625 14.8125 -9.851562 12.6875 -8.4375 C 11.300781 -7.519531 10.113281 -6.722656 9.125 -6.046875 C 8.132812 -5.367188 7.289062 -4.800781 6.59375 -4.34375 C 5.414062 -3.550781 4.578125 -3.054688 4.078125 -2.859375 C 3.585938 -2.660156 3.25 -2.703125 3.0625 -2.984375 C 2.925781 -3.191406 2.816406 -3.476562 2.734375 -3.84375 C 2.648438 -4.21875 2.53125 -4.664062 2.375 -5.1875 C 2.164062 -5.882812 1.882812 -6.570312 1.53125 -7.25 C 1.175781 -7.925781 0.863281 -8.46875 0.59375 -8.875 L -9.515625 -24.0625 C -9.785156 -24.476562 -10.15625 -24.96875 -10.625 -25.53125 C -11.09375 -26.09375 -11.628906 -26.625 -12.234375 -27.125 C -12.648438 -27.488281 -13.015625 -27.773438 -13.328125 -27.984375 C -13.640625 -28.203125 -13.851562 -28.398438 -13.96875 -28.578125 C -14.15625 -28.867188 -14.070312 -29.191406 -13.71875 -29.546875 C -13.375 -29.898438 -12.644531 -30.445312 -11.53125 -31.1875 C -10.875 -31.625 -10.054688 -32.164062 -9.078125 -32.8125 C -8.097656 -33.457031 -6.9375 -34.222656 -5.59375 -35.109375 C -3.570312 -36.453125 -1.90625 -37.539062 -0.59375 -38.375 C 0.71875 -39.21875 1.785156 -39.804688 2.609375 -40.140625 C 3.429688 -40.484375 4.101562 -40.609375 4.625 -40.515625 C 5.15625 -40.421875 5.648438 -40.128906 6.109375 -39.640625 C 6.578125 -39.148438 7.132812 -38.484375 7.78125 -37.640625 C 8.613281 -36.554688 9.203125 -35.796875 9.546875 -35.359375 C 9.898438 -34.921875 10.023438 -34.664062 9.921875 -34.59375 C 9.816406 -34.519531 9.535156 -34.570312 9.078125 -34.75 C 8.628906 -34.9375 7.976562 -35.113281 7.125 -35.28125 C 6.175781 -35.5 5.066406 -35.519531 3.796875 -35.34375 C 2.523438 -35.175781 1.171875 -34.613281 -0.265625 -33.65625 L -2.15625 -32.40625 C -2.769531 -31.988281 -3.164062 -31.640625 -3.34375 -31.359375 C -3.519531 -31.078125 -3.445312 -30.632812 -3.125 -30.03125 C -2.800781 -29.425781 -2.175781 -28.429688 -1.25 -27.046875 C -0.332031 -25.671875 0.421875 -24.707031 1.015625 -24.15625 C 1.609375 -23.601562 2.1875 -23.515625 2.75 -23.890625 C 3.257812 -24.234375 3.878906 -25.050781 4.609375 -26.34375 C 4.941406 -26.988281 5.191406 -27.519531 5.359375 -27.9375 C 5.523438 -28.363281 5.675781 -28.617188 5.8125 -28.703125 C 5.9375 -28.785156 6.066406 -28.738281 6.203125 -28.5625 C 6.347656 -28.382812 6.578125 -28.0625 6.890625 -27.59375 L 10.109375 -22.75 C 10.453125 -22.238281 10.675781 -21.875 10.78125 -21.65625 C 10.894531 -21.4375 10.882812 -21.28125 10.75 -21.1875 C 10.625 -21.101562 10.335938 -21.066406 9.890625 -21.078125 C 9.453125 -21.097656 8.882812 -21.0625 8.1875 -20.96875 C 7.425781 -20.875 6.804688 -20.769531 6.328125 -20.65625 C 5.847656 -20.539062 5.472656 -20.390625 5.203125 -20.203125 C 4.640625 -19.828125 4.492188 -19.257812 4.765625 -18.5 C 5.046875 -17.75 5.65625 -16.664062 6.59375 -15.25 C 7.5 -13.894531 8.171875 -12.957031 8.609375 -12.4375 C 9.046875 -11.914062 9.457031 -11.695312 9.84375 -11.78125 C 10.226562 -11.875 10.796875 -12.164062 11.546875 -12.65625 L 13.8125 -14.171875 C 15.25 -15.128906 16.296875 -16.148438 16.953125 -17.234375 C 17.617188 -18.316406 18.023438 -19.351562 18.171875 -20.34375 C 18.347656 -21.539062 18.441406 -22.394531 18.453125 -22.90625 C 18.460938 -23.414062 18.625 -23.4375 18.9375 -22.96875 C 19.09375 -22.738281 19.296875 -22.382812 19.546875 -21.90625 C 19.804688 -21.4375 20.15625 -20.8125 20.59375 -20.03125 Z M 20.59375 -20.03125 "/></g></g></g></svg>